<svg xmlns="http://www.w3.org/2000/svg" class="app-chart" viewBox="0 0 360 490" role="img" aria-label="Clava-JS summed App-build timing distributions"><style>svg{background:white}text{fill:#18212e;font-family:system-ui}.grid{stroke:#d5dfe8;stroke-dasharray:3 4}.divider{stroke:#d5dfe8}.tick,.label,.value{font-size:12px}.mode{font-size:13px;font-weight:650}.foot{font-size:11px}</style><desc>Each dot is one of four repeats, summed across all completed App calls in the original suite. All modes and stages share one seconds axis. This is not per-file replay or suite command wall time.</desc><line class="grid" x1="98.00" x2="98.00" y1="28" y2="454"/><text class="tick" x="98.00" y="18" text-anchor="middle">5.0s</text><line class="grid" x1="188.00" x2="188.00" y1="28" y2="454"/><text class="tick" x="188.00" y="18" text-anchor="middle">7.8s</text><line class="grid" x1="278.00" x2="278.00" y1="28" y2="454"/><text class="tick" x="278.00" y="18" text-anchor="middle">10.6s</text><text class="mode" x="0" y="45">Direct · ccache off</text><text class="label" x="0" y="71">Before cache</text><line x1="210.53" x2="214.68" y1="67" y2="67" stroke="#2563eb" stroke-width="2"/><rect x="210.94" y="59" width="2.24" height="16" fill="#2563eb" fill-opacity=".22" stroke="#2563eb"/><line x1="211.87" x2="211.87" y1="58" y2="76" stroke="#2563eb" stroke-width="3"/><text class="value" x="359" y="71" text-anchor="end">8.55s</text><circle cx="211.07" cy="64" r="2.8" fill="#2563eb"><title>Repeat 1: 8.529s summed across 170 App calls</title></circle><circle cx="212.68" cy="67" r="2.8" fill="#2563eb"><title>Repeat 2: 8.580s summed across 170 App calls</title></circle><circle cx="210.53" cy="70" r="2.8" fill="#2563eb"><title>Repeat 3: 8.512s summed across 170 App calls</title></circle><circle cx="214.68" cy="64" r="2.8" fill="#2563eb"><title>Repeat 4: 8.643s summed across 170 App calls</title></circle><text class="label" x="0" y="99">Text</text><line x1="221.17" x2="223.85" y1="95" y2="95" stroke="#059669" stroke-width="2"/><rect x="222.95" y="87" width="2.00" height="16" fill="#059669" fill-opacity=".22" stroke="#059669"/><line x1="223.67" x2="223.67" y1="86" y2="104" stroke="#059669" stroke-width="3"/><text class="value" x="359" y="99" text-anchor="end">8.93s</text><circle cx="223.55" cy="92" r="2.8" fill="#059669"><title>Repeat 1: 8.923s summed across 170 App calls</title></circle><circle cx="221.17" cy="95" r="2.8" fill="#059669"><title>Repeat 2: 8.848s summed across 170 App calls</title></circle><circle cx="223.85" cy="98" r="2.8" fill="#059669"><title>Repeat 3: 8.932s summed across 170 App calls</title></circle><circle cx="223.79" cy="92" r="2.8" fill="#059669"><title>Repeat 4: 8.930s summed across 170 App calls</title></circle><text class="label" x="0" y="127">Protobuf</text><line x1="246.04" x2="252.14" y1="123" y2="123" stroke="#7c3aed" stroke-width="2"/><rect x="248.47" y="115" width="3.35" height="16" fill="#7c3aed" fill-opacity=".22" stroke="#7c3aed"/><line x1="250.50" x2="250.50" y1="114" y2="132" stroke="#7c3aed" stroke-width="3"/><text class="value" x="359" y="127" text-anchor="end">9.77s</text><circle cx="246.04" cy="120" r="2.8" fill="#7c3aed"><title>Repeat 1: 9.633s summed across 170 App calls</title></circle><circle cx="249.28" cy="123" r="2.8" fill="#7c3aed"><title>Repeat 2: 9.735s summed across 170 App calls</title></circle><circle cx="251.72" cy="126" r="2.8" fill="#7c3aed"><title>Repeat 3: 9.812s summed across 170 App calls</title></circle><circle cx="252.14" cy="120" r="2.8" fill="#7c3aed"><title>Repeat 4: 9.826s summed across 170 App calls</title></circle><text class="label" x="0" y="155">FlatBuffers</text><line x1="244.21" x2="248.40" y1="151" y2="151" stroke="#d97706" stroke-width="2"/><rect x="244.60" y="143" width="3.30" height="16" fill="#d97706" fill-opacity=".22" stroke="#d97706"/><line x1="246.23" x2="246.23" y1="142" y2="160" stroke="#d97706" stroke-width="3"/><text class="value" x="359" y="155" text-anchor="end">9.64s</text><circle cx="244.72" cy="148" r="2.8" fill="#d97706"><title>Repeat 1: 9.591s summed across 170 App calls</title></circle><circle cx="247.73" cy="151" r="2.8" fill="#d97706"><title>Repeat 2: 9.686s summed across 170 App calls</title></circle><circle cx="244.21" cy="154" r="2.8" fill="#d97706"><title>Repeat 3: 9.575s summed across 170 App calls</title></circle><circle cx="248.40" cy="148" r="2.8" fill="#d97706"><title>Repeat 4: 9.708s summed across 170 App calls</title></circle><line class="divider" x1="0" x2="360" y1="189" y2="189"/><text class="mode" x="0" y="204">Cold · empty cache</text><text class="label" x="0" y="230">Text</text><line x1="228.49" x2="239.85" y1="226" y2="226" stroke="#059669" stroke-width="2"/><rect x="231.60" y="218" width="4.62" height="16" fill="#059669" fill-opacity=".22" stroke="#059669"/><line x1="233.82" x2="233.82" y1="217" y2="235" stroke="#059669" stroke-width="3"/><text class="value" x="359" y="230" text-anchor="end">9.25s</text><circle cx="235.01" cy="223" r="2.8" fill="#059669"><title>Repeat 1: 9.285s summed across 170 App calls</title></circle><circle cx="228.49" cy="226" r="2.8" fill="#059669"><title>Repeat 2: 9.079s summed across 170 App calls</title></circle><circle cx="232.63" cy="229" r="2.8" fill="#059669"><title>Repeat 3: 9.210s summed across 170 App calls</title></circle><circle cx="239.85" cy="223" r="2.8" fill="#059669"><title>Repeat 4: 9.438s summed across 170 App calls</title></circle><text class="label" x="0" y="258">Protobuf</text><line x1="258.11" x2="268.22" y1="254" y2="254" stroke="#7c3aed" stroke-width="2"/><rect x="261.28" y="246" width="3.60" height="16" fill="#7c3aed" fill-opacity=".22" stroke="#7c3aed"/><line x1="263.05" x2="263.05" y1="245" y2="263" stroke="#7c3aed" stroke-width="3"/><text class="value" x="359" y="258" text-anchor="end">10.17s</text><circle cx="268.22" cy="251" r="2.8" fill="#7c3aed"><title>Repeat 1: 10.333s summed across 170 App calls</title></circle><circle cx="258.11" cy="254" r="2.8" fill="#7c3aed"><title>Repeat 2: 10.014s summed across 170 App calls</title></circle><circle cx="263.76" cy="257" r="2.8" fill="#7c3aed"><title>Repeat 3: 10.193s summed across 170 App calls</title></circle><circle cx="262.33" cy="251" r="2.8" fill="#7c3aed"><title>Repeat 4: 10.148s summed across 170 App calls</title></circle><text class="label" x="0" y="286">FlatBuffers</text><line x1="266.90" x2="270.08" y1="282" y2="282" stroke="#d97706" stroke-width="2"/><rect x="267.99" y="274" width="2.00" height="16" fill="#d97706" fill-opacity=".22" stroke="#d97706"/><line x1="268.53" x2="268.53" y1="273" y2="291" stroke="#d97706" stroke-width="3"/><text class="value" x="359" y="286" text-anchor="end">10.34s</text><circle cx="268.72" cy="279" r="2.8" fill="#d97706"><title>Repeat 1: 10.349s summed across 170 App calls</title></circle><circle cx="270.08" cy="282" r="2.8" fill="#d97706"><title>Repeat 2: 10.392s summed across 170 App calls</title></circle><circle cx="266.90" cy="285" r="2.8" fill="#d97706"><title>Repeat 3: 10.292s summed across 170 App calls</title></circle><circle cx="268.35" cy="279" r="2.8" fill="#d97706"><title>Repeat 4: 10.338s summed across 170 App calls</title></circle><line class="divider" x1="0" x2="360" y1="320" y2="320"/><text class="mode" x="0" y="335">Warm · seeded cache</text><text class="label" x="0" y="361">Text</text><line x1="105.92" x2="107.90" y1="357" y2="357" stroke="#059669" stroke-width="2"/><rect x="106.28" y="349" width="2.00" height="16" fill="#059669" fill-opacity=".22" stroke="#059669"/><line x1="106.94" x2="106.94" y1="348" y2="366" stroke="#059669" stroke-width="3"/><text class="value" x="359" y="361" text-anchor="end">5.24s</text><circle cx="107.48" cy="354" r="2.8" fill="#059669"><title>Repeat 1: 5.257s summed across 170 App calls</title></circle><circle cx="105.92" cy="357" r="2.8" fill="#059669"><title>Repeat 2: 5.208s summed across 170 App calls</title></circle><circle cx="107.90" cy="360" r="2.8" fill="#059669"><title>Repeat 3: 5.271s summed across 170 App calls</title></circle><circle cx="106.40" cy="354" r="2.8" fill="#059669"><title>Repeat 4: 5.223s summed across 170 App calls</title></circle><text class="label" x="0" y="389">Protobuf</text><line x1="130.04" x2="134.50" y1="385" y2="385" stroke="#7c3aed" stroke-width="2"/><rect x="131.28" y="377" width="2.27" height="16" fill="#7c3aed" fill-opacity=".22" stroke="#7c3aed"/><line x1="132.46" x2="132.46" y1="376" y2="394" stroke="#7c3aed" stroke-width="3"/><text class="value" x="359" y="389" text-anchor="end">6.05s</text><circle cx="133.23" cy="382" r="2.8" fill="#7c3aed"><title>Repeat 1: 6.071s summed across 170 App calls</title></circle><circle cx="134.50" cy="385" r="2.8" fill="#7c3aed"><title>Repeat 2: 6.111s summed across 170 App calls</title></circle><circle cx="130.04" cy="388" r="2.8" fill="#7c3aed"><title>Repeat 3: 5.970s summed across 170 App calls</title></circle><circle cx="131.69" cy="382" r="2.8" fill="#7c3aed"><title>Repeat 4: 6.022s summed across 170 App calls</title></circle><text class="label" x="0" y="417">FlatBuffers</text><line x1="138.39" x2="141.51" y1="413" y2="413" stroke="#d97706" stroke-width="2"/><rect x="139.29" y="405" width="2.11" height="16" fill="#d97706" fill-opacity=".22" stroke="#d97706"/><line x1="140.48" x2="140.48" y1="404" y2="422" stroke="#d97706" stroke-width="3"/><text class="value" x="359" y="417" text-anchor="end">6.30s</text><circle cx="141.37" cy="410" r="2.8" fill="#d97706"><title>Repeat 1: 6.328s summed across 170 App calls</title></circle><circle cx="139.59" cy="413" r="2.8" fill="#d97706"><title>Repeat 2: 6.271s summed across 170 App calls</title></circle><circle cx="138.39" cy="416" r="2.8" fill="#d97706"><title>Repeat 3: 6.234s summed across 170 App calls</title></circle><circle cx="141.51" cy="410" r="2.8" fill="#d97706"><title>Repeat 4: 6.332s summed across 170 App calls</title></circle><text class="foot" x="0" y="464">Non-zero axis · seconds · same scale across Direct, Cold, and Warm</text><text class="foot" x="0" y="480">Four repeats · summed App calls per repeat · lower is faster</text></svg>
