<svg xmlns="http://www.w3.org/2000/svg" viewBox="0 0 360 525" role="img" aria-label="Clava-JS runtime distributions"><style>svg{background:white}text{fill:#18212e;font-family:system-ui}.grid{stroke:#d5dfe8;stroke-dasharray:3 4}.divider{stroke:#d5dfe8}.tick,.label,.value{font-size:12px}.mode{font-size:13px;font-weight:650}.foot{font-size:11px}</style><desc>Lower is faster. Dots are individual runs. Box is middle half. Line is median. Whiskers show all runs. All cache sections share one non-zero time axis.</desc><line class="grid" x1="112.00" x2="112.00" y1="28" y2="480"/><text class="tick" x="112.00" y="18" text-anchor="middle">30.5s</text><line class="grid" x1="202.00" x2="202.00" y1="28" y2="480"/><text class="tick" x="202.00" y="18" text-anchor="middle">35.7s</text><line class="grid" x1="292.00" x2="292.00" y1="28" y2="480"/><text class="tick" x="292.00" y="18" text-anchor="middle">40.9s</text><text class="mode" x="0" y="49">Direct · ccache off</text><text class="label" x="0" y="79">Before cache</text><line x1="222.49" x2="255.21" y1="75" y2="75" stroke="#2563eb" stroke-width="2"/><rect x="231.96" y="66" width="8.18" height="18" fill="#2563eb" fill-opacity=".22" stroke="#2563eb"/><line x1="235.12" x2="235.12" y1="65" y2="85" stroke="#2563eb" stroke-width="3"/><text class="value" x="359" y="79" text-anchor="end">37.57s</text><circle cx="235.12" cy="71" r="2.8" fill="#2563eb"><title>Run 1: 37.570s</title></circle><circle cx="235.12" cy="75" r="2.8" fill="#2563eb"><title>Run 2: 37.570s</title></circle><circle cx="255.21" cy="79" r="2.8" fill="#2563eb"><title>Run 3: 38.730s</title></circle><circle cx="222.49" cy="71" r="2.8" fill="#2563eb"><title>Run 4: 36.840s</title></circle><text class="label" x="0" y="109">Text</text><line x1="224.39" x2="244.13" y1="105" y2="105" stroke="#059669" stroke-width="2"/><rect x="233.48" y="96" width="7.14" height="18" fill="#059669" fill-opacity=".22" stroke="#059669"/><line x1="237.98" x2="237.98" y1="95" y2="115" stroke="#059669" stroke-width="3"/><text class="value" x="359" y="109" text-anchor="end">37.73s</text><circle cx="239.45" cy="101" r="2.8" fill="#059669"><title>Run 1: 37.820s</title></circle><circle cx="236.51" cy="105" r="2.8" fill="#059669"><title>Run 2: 37.650s</title></circle><circle cx="244.13" cy="109" r="2.8" fill="#059669"><title>Run 3: 38.090s</title></circle><circle cx="224.39" cy="101" r="2.8" fill="#059669"><title>Run 4: 36.950s</title></circle><text class="label" x="0" y="139">Protobuf</text><line x1="240.32" x2="254.69" y1="135" y2="135" stroke="#7c3aed" stroke-width="2"/><rect x="242.40" y="126" width="6.84" height="18" fill="#7c3aed" fill-opacity=".22" stroke="#7c3aed"/><line x1="245.25" x2="245.25" y1="125" y2="145" stroke="#7c3aed" stroke-width="3"/><text class="value" x="359" y="139" text-anchor="end">38.16s</text><circle cx="254.69" cy="131" r="2.8" fill="#7c3aed"><title>Run 1: 38.700s</title></circle><circle cx="247.42" cy="135" r="2.8" fill="#7c3aed"><title>Run 2: 38.280s</title></circle><circle cx="240.32" cy="139" r="2.8" fill="#7c3aed"><title>Run 3: 37.870s</title></circle><circle cx="243.09" cy="131" r="2.8" fill="#7c3aed"><title>Run 4: 38.030s</title></circle><text class="label" x="0" y="169">FlatBuffers</text><line x1="169.75" x2="177.53" y1="165" y2="165" stroke="#d97706" stroke-width="2"/><rect x="170.10" y="156" width="6.38" height="18" fill="#d97706" fill-opacity=".22" stroke="#d97706"/><line x1="173.17" x2="173.17" y1="155" y2="175" stroke="#d97706" stroke-width="3"/><text class="value" x="359" y="169" text-anchor="end">33.99s</text><circle cx="170.21" cy="161" r="2.8" fill="#d97706"><title>Run 1: 33.821s</title></circle><circle cx="177.53" cy="165" r="2.8" fill="#d97706"><title>Run 2: 34.244s</title></circle><circle cx="169.75" cy="169" r="2.8" fill="#d97706"><title>Run 3: 33.794s</title></circle><circle cx="176.13" cy="161" r="2.8" fill="#d97706"><title>Run 4: 34.162s</title></circle><line class="divider" x1="0" x2="360" y1="205" y2="205"/><text class="mode" x="0" y="221">Cold · empty cache</text><text class="label" x="0" y="251">Text</text><line x1="240.49" x2="249.15" y1="247" y2="247" stroke="#059669" stroke-width="2"/><rect x="243.48" y="238" width="3.07" height="18" fill="#059669" fill-opacity=".22" stroke="#059669"/><line x1="245.08" x2="245.08" y1="237" y2="257" stroke="#059669" stroke-width="3"/><text class="value" x="359" y="251" text-anchor="end">38.14s</text><circle cx="244.47" cy="243" r="2.8" fill="#059669"><title>Run 1: 38.110s</title></circle><circle cx="249.15" cy="247" r="2.8" fill="#059669"><title>Run 2: 38.380s</title></circle><circle cx="245.69" cy="251" r="2.8" fill="#059669"><title>Run 3: 38.180s</title></circle><circle cx="240.49" cy="243" r="2.8" fill="#059669"><title>Run 4: 37.880s</title></circle><text class="label" x="0" y="281">Protobuf</text><line x1="240.32" x2="285.33" y1="277" y2="277" stroke="#7c3aed" stroke-width="2"/><rect x="251.10" y="268" width="14.37" height="18" fill="#7c3aed" fill-opacity=".22" stroke="#7c3aed"/><line x1="256.77" x2="256.77" y1="267" y2="287" stroke="#7c3aed" stroke-width="3"/><text class="value" x="359" y="281" text-anchor="end">38.82s</text><circle cx="285.33" cy="273" r="2.8" fill="#7c3aed"><title>Run 1: 40.470s</title></circle><circle cx="258.84" cy="277" r="2.8" fill="#7c3aed"><title>Run 2: 38.940s</title></circle><circle cx="240.32" cy="281" r="2.8" fill="#7c3aed"><title>Run 3: 37.870s</title></circle><circle cx="254.69" cy="273" r="2.8" fill="#7c3aed"><title>Run 4: 38.700s</title></circle><text class="label" x="0" y="311">FlatBuffers</text><line x1="184.67" x2="200.44" y1="307" y2="307" stroke="#d97706" stroke-width="2"/><rect x="187.11" y="298" width="4.69" height="18" fill="#d97706" fill-opacity=".22" stroke="#d97706"/><line x1="188.43" x2="188.43" y1="297" y2="317" stroke="#d97706" stroke-width="3"/><text class="value" x="359" y="311" text-anchor="end">34.87s</text><circle cx="188.92" cy="303" r="2.8" fill="#d97706"><title>Run 1: 34.902s</title></circle><circle cx="200.44" cy="307" r="2.8" fill="#d97706"><title>Run 2: 35.567s</title></circle><circle cx="187.93" cy="311" r="2.8" fill="#d97706"><title>Run 3: 34.844s</title></circle><circle cx="184.67" cy="303" r="2.8" fill="#d97706"><title>Run 4: 34.656s</title></circle><line class="divider" x1="0" x2="360" y1="347" y2="347"/><text class="mode" x="0" y="363">Warm · seeded cache</text><text class="label" x="0" y="393">Text</text><line x1="159.81" x2="176.26" y1="389" y2="389" stroke="#059669" stroke-width="2"/><rect x="166.04" y="380" width="5.02" height="18" fill="#059669" fill-opacity=".22" stroke="#059669"/><line x1="168.73" x2="168.73" y1="379" y2="399" stroke="#059669" stroke-width="3"/><text class="value" x="359" y="393" text-anchor="end">33.73s</text><circle cx="168.12" cy="385" r="2.8" fill="#059669"><title>Run 1: 33.700s</title></circle><circle cx="169.33" cy="389" r="2.8" fill="#059669"><title>Run 2: 33.770s</title></circle><circle cx="176.26" cy="393" r="2.8" fill="#059669"><title>Run 3: 34.170s</title></circle><circle cx="159.81" cy="385" r="2.8" fill="#059669"><title>Run 4: 33.220s</title></circle><text class="label" x="0" y="423">Protobuf</text><line x1="180.93" x2="190.80" y1="419" y2="419" stroke="#7c3aed" stroke-width="2"/><rect x="181.97" y="410" width="7.27" height="18" fill="#7c3aed" fill-opacity=".22" stroke="#7c3aed"/><line x1="185.52" x2="185.52" y1="409" y2="429" stroke="#7c3aed" stroke-width="3"/><text class="value" x="359" y="423" text-anchor="end">34.70s</text><circle cx="190.80" cy="415" r="2.8" fill="#7c3aed"><title>Run 1: 35.010s</title></circle><circle cx="182.32" cy="419" r="2.8" fill="#7c3aed"><title>Run 2: 34.520s</title></circle><circle cx="180.93" cy="423" r="2.8" fill="#7c3aed"><title>Run 3: 34.440s</title></circle><circle cx="188.72" cy="415" r="2.8" fill="#7c3aed"><title>Run 4: 34.890s</title></circle><text class="label" x="0" y="453">FlatBuffers</text><line x1="118.67" x2="127.41" y1="449" y2="449" stroke="#d97706" stroke-width="2"/><rect x="120.53" y="440" width="4.76" height="18" fill="#d97706" fill-opacity=".22" stroke="#d97706"/><line x1="122.87" x2="122.87" y1="439" y2="459" stroke="#d97706" stroke-width="3"/><text class="value" x="359" y="453" text-anchor="end">31.09s</text><circle cx="124.59" cy="445" r="2.8" fill="#d97706"><title>Run 1: 31.186s</title></circle><circle cx="127.41" cy="449" r="2.8" fill="#d97706"><title>Run 2: 31.348s</title></circle><circle cx="118.67" cy="453" r="2.8" fill="#d97706"><title>Run 3: 30.844s</title></circle><circle cx="121.15" cy="445" r="2.8" fill="#d97706"><title>Run 4: 30.987s</title></circle><text class="foot" x="0" y="514">Non-zero axis · seconds · lower is faster</text></svg>
