<?xml version="1.0" encoding="UTF-8" standalone="no"?>
<!DOCTYPE svg PUBLIC "-//W3C//DTD SVG 1.1//EN"
 "http://www.w3.org/Graphics/SVG/1.1/DTD/svg11.dtd">
<!-- Generated by graphviz version 2.48.0 (20210717.1556)
 -->
<!-- Title: CxxWeaver_join_point_hierarchy_join_point_hierarchy Pages: 1 -->
<svg width="656pt" height="1488pt"
 viewBox="0.00 0.00 656.00 1488.00" xmlns="http://www.w3.org/2000/svg" xmlns:xlink="http://www.w3.org/1999/xlink">
<g id="graph0" class="graph" transform="scale(1 1) rotate(0) translate(4 1484)">
<title>CxxWeaver_join_point_hierarchy_join_point_hierarchy</title>
<polygon fill="white" stroke="transparent" points="-4,4 -4,-1484 652,-1484 652,4 -4,4"/>
<!-- accessSpecifier -->
<g id="node1" class="node">
<title>accessSpecifier</title>
<polygon fill="#b2dfee" stroke="#b2dfee" points="305,-574 227,-574 227,-555 305,-555 305,-574"/>
<text text-anchor="middle" x="266" y="-562" font-family="Times New Roman,serif" font-size="10.00">accessSpecifier</text>
</g>
<!-- decl -->
<g id="node2" class="node">
<title>decl</title>
<polygon fill="#b2dfee" stroke="#b2dfee" points="155.5,-519 101.5,-519 101.5,-500 155.5,-500 155.5,-519"/>
<text text-anchor="middle" x="128.5" y="-507" font-family="Times New Roman,serif" font-size="10.00">decl</text>
</g>
<!-- accessSpecifier&#45;&gt;decl -->
<g id="edge1" class="edge">
<title>accessSpecifier&#45;&gt;decl</title>
<path fill="none" stroke="black" d="M227.91,-554.94C219.61,-552.47 210.93,-549.62 203,-546.5 186.69,-540.09 169.13,-531.32 155.27,-523.94"/>
<polygon fill="black" stroke="black" points="156.78,-520.77 146.32,-519.09 153.44,-526.93 156.78,-520.77"/>
</g>
<!-- joinpoint -->
<g id="node9" class="node">
<title>joinpoint</title>
<polygon fill="#b2dfee" stroke="#b2dfee" points="54,-278 0,-278 0,-259 54,-259 54,-278"/>
<text text-anchor="middle" x="27" y="-266" font-family="Times New Roman,serif" font-size="10.00">joinpoint</text>
</g>
<!-- decl&#45;&gt;joinpoint -->
<g id="edge20" class="edge">
<title>decl&#45;&gt;joinpoint</title>
<path fill="none" stroke="black" d="M123.48,-499.75C108.5,-463.49 55.86,-335.97 35.82,-287.44"/>
<polygon fill="black" stroke="black" points="39.02,-286.01 31.96,-278.1 32.55,-288.68 39.02,-286.01"/>
</g>
<!-- adjustedType -->
<g id="node3" class="node">
<title>adjustedType</title>
<polygon fill="#b2dfee" stroke="#b2dfee" points="302,-1369 230,-1369 230,-1350 302,-1350 302,-1369"/>
<text text-anchor="middle" x="266" y="-1357" font-family="Times New Roman,serif" font-size="10.00">adjustedType</text>
</g>
<!-- type -->
<g id="node4" class="node">
<title>type</title>
<polygon fill="#b2dfee" stroke="#b2dfee" points="155.5,-1258 101.5,-1258 101.5,-1239 155.5,-1239 155.5,-1258"/>
<text text-anchor="middle" x="128.5" y="-1246" font-family="Times New Roman,serif" font-size="10.00">type</text>
</g>
<!-- adjustedType&#45;&gt;type -->
<g id="edge2" class="edge">
<title>adjustedType&#45;&gt;type</title>
<path fill="none" stroke="black" d="M229.87,-1353.35C220.62,-1350.68 211,-1346.88 203,-1341.5 174.26,-1322.16 151.53,-1288.04 139.34,-1266.94"/>
<polygon fill="black" stroke="black" points="142.29,-1265.04 134.36,-1258.01 136.17,-1268.45 142.29,-1265.04"/>
</g>
<!-- type&#45;&gt;joinpoint -->
<g id="edge66" class="edge">
<title>type&#45;&gt;joinpoint</title>
<path fill="none" stroke="black" d="M126.52,-1238.8C117.11,-1146.18 43.24,-418.57 30.02,-288.4"/>
<polygon fill="black" stroke="black" points="33.49,-287.87 28.99,-278.28 26.52,-288.58 33.49,-287.87"/>
</g>
<!-- arrayAccess -->
<g id="node5" class="node">
<title>arrayAccess</title>
<polygon fill="#b2dfee" stroke="#b2dfee" points="299.5,-814 232.5,-814 232.5,-795 299.5,-795 299.5,-814"/>
<text text-anchor="middle" x="266" y="-802" font-family="Times New Roman,serif" font-size="10.00">arrayAccess</text>
</g>
<!-- expression -->
<g id="node6" class="node">
<title>expression</title>
<polygon fill="#b2dfee" stroke="#b2dfee" points="158,-833 99,-833 99,-814 158,-814 158,-833"/>
<text text-anchor="middle" x="128.5" y="-821" font-family="Times New Roman,serif" font-size="10.00">expression</text>
</g>
<!-- arrayAccess&#45;&gt;expression -->
<g id="edge3" class="edge">
<title>arrayAccess&#45;&gt;expression</title>
<path fill="none" stroke="black" d="M232.2,-809.1C212.99,-811.79 188.62,-815.21 168.44,-818.04"/>
<polygon fill="black" stroke="black" points="167.74,-814.6 158.32,-819.46 168.71,-821.54 167.74,-814.6"/>
</g>
<!-- expression&#45;&gt;joinpoint -->
<g id="edge30" class="edge">
<title>expression&#45;&gt;joinpoint</title>
<path fill="none" stroke="black" d="M125.77,-813.87C114.19,-749.27 47.79,-378.87 31.57,-288.42"/>
<polygon fill="black" stroke="black" points="34.98,-287.62 29.77,-278.4 28.09,-288.86 34.98,-287.62"/>
</g>
<!-- arrayType -->
<g id="node7" class="node">
<title>arrayType</title>
<polygon fill="#b2dfee" stroke="#b2dfee" points="295,-1332 237,-1332 237,-1313 295,-1313 295,-1332"/>
<text text-anchor="middle" x="266" y="-1320" font-family="Times New Roman,serif" font-size="10.00">arrayType</text>
</g>
<!-- arrayType&#45;&gt;type -->
<g id="edge4" class="edge">
<title>arrayType&#45;&gt;type</title>
<path fill="none" stroke="black" d="M236.7,-1316.63C225.83,-1313.78 213.51,-1309.8 203,-1304.5 182.16,-1294 161.28,-1277.35 147.12,-1264.93"/>
<polygon fill="black" stroke="black" points="149.4,-1262.27 139.62,-1258.19 144.72,-1267.48 149.4,-1262.27"/>
</g>
<!-- attribute -->
<g id="node8" class="node">
<title>attribute</title>
<polygon fill="#b2dfee" stroke="#b2dfee" points="155.5,-352 101.5,-352 101.5,-333 155.5,-333 155.5,-352"/>
<text text-anchor="middle" x="128.5" y="-340" font-family="Times New Roman,serif" font-size="10.00">attribute</text>
</g>
<!-- attribute&#45;&gt;joinpoint -->
<g id="edge5" class="edge">
<title>attribute&#45;&gt;joinpoint</title>
<path fill="none" stroke="black" d="M104.71,-332.85C99.71,-330.39 94.56,-327.56 90,-324.5 73.01,-313.1 55.91,-297.25 43.99,-285.33"/>
<polygon fill="black" stroke="black" points="46.45,-282.84 36.95,-278.14 41.45,-287.73 46.45,-282.84"/>
</g>
<!-- binaryOp -->
<g id="node10" class="node">
<title>binaryOp</title>
<polygon fill="#b2dfee" stroke="#b2dfee" points="438,-907 384,-907 384,-888 438,-888 438,-907"/>
<text text-anchor="middle" x="411" y="-895" font-family="Times New Roman,serif" font-size="10.00">binaryOp</text>
</g>
<!-- op -->
<g id="node11" class="node">
<title>op</title>
<polygon fill="#b2dfee" stroke="#b2dfee" points="293,-777 239,-777 239,-758 293,-758 293,-777"/>
<text text-anchor="middle" x="266" y="-765" font-family="Times New Roman,serif" font-size="10.00">op</text>
</g>
<!-- binaryOp&#45;&gt;op -->
<g id="edge6" class="edge">
<title>binaryOp&#45;&gt;op</title>
<path fill="none" stroke="black" d="M383.55,-891.04C376.84,-888.37 370.09,-884.65 365,-879.5 333.84,-847.98 361.45,-816.69 329,-786.5 321.86,-779.85 312.45,-775.53 303.12,-772.72"/>
<polygon fill="black" stroke="black" points="303.7,-769.25 293.15,-770.22 302,-776.05 303.7,-769.25"/>
</g>
<!-- op&#45;&gt;expression -->
<g id="edge48" class="edge">
<title>op&#45;&gt;expression</title>
<path fill="none" stroke="black" d="M238.72,-774.49C227.55,-777.73 214.49,-781.89 203,-786.5 186.74,-793.03 169.18,-801.8 155.3,-809.16"/>
<polygon fill="black" stroke="black" points="153.49,-806.16 146.35,-813.99 156.81,-812.33 153.49,-806.16"/>
</g>
<!-- body -->
<g id="node12" class="node">
<title>body</title>
<polygon fill="#b2dfee" stroke="#b2dfee" points="438,-204 384,-204 384,-185 438,-185 438,-204"/>
<text text-anchor="middle" x="411" y="-192" font-family="Times New Roman,serif" font-size="10.00">body</text>
</g>
<!-- scope -->
<g id="node13" class="node">
<title>scope</title>
<polygon fill="#b2dfee" stroke="#b2dfee" points="293,-204 239,-204 239,-185 293,-185 293,-204"/>
<text text-anchor="middle" x="266" y="-192" font-family="Times New Roman,serif" font-size="10.00">scope</text>
</g>
<!-- body&#45;&gt;scope -->
<g id="edge7" class="edge">
<title>body&#45;&gt;scope</title>
<path fill="none" stroke="black" d="M383.77,-194.5C361.2,-194.5 328.39,-194.5 303.29,-194.5"/>
<polygon fill="black" stroke="black" points="303.06,-191 293.06,-194.5 303.06,-198 303.06,-191"/>
</g>
<!-- statement -->
<g id="node19" class="node">
<title>statement</title>
<polygon fill="#b2dfee" stroke="#b2dfee" points="156.5,-315 100.5,-315 100.5,-296 156.5,-296 156.5,-315"/>
<text text-anchor="middle" x="128.5" y="-303" font-family="Times New Roman,serif" font-size="10.00">statement</text>
</g>
<!-- scope&#45;&gt;statement -->
<g id="edge57" class="edge">
<title>scope&#45;&gt;statement</title>
<path fill="none" stroke="black" d="M238.88,-197.18C226.84,-199.56 213.03,-204.05 203,-212.5 175.03,-236.07 192.65,-260.43 167,-286.5 165.62,-287.9 164.11,-289.22 162.52,-290.46"/>
<polygon fill="black" stroke="black" points="160.53,-287.58 154.06,-295.97 164.35,-293.45 160.53,-287.58"/>
</g>
<!-- boolLiteral -->
<g id="node14" class="node">
<title>boolLiteral</title>
<polygon fill="#b2dfee" stroke="#b2dfee" points="440.5,-796 381.5,-796 381.5,-777 440.5,-777 440.5,-796"/>
<text text-anchor="middle" x="411" y="-784" font-family="Times New Roman,serif" font-size="10.00">boolLiteral</text>
</g>
<!-- literal -->
<g id="node15" class="node">
<title>literal</title>
<polygon fill="#b2dfee" stroke="#b2dfee" points="293,-740 239,-740 239,-721 293,-721 293,-740"/>
<text text-anchor="middle" x="266" y="-728" font-family="Times New Roman,serif" font-size="10.00">literal</text>
</g>
<!-- boolLiteral&#45;&gt;literal -->
<g id="edge8" class="edge">
<title>boolLiteral&#45;&gt;literal</title>
<path fill="none" stroke="black" d="M384.57,-776.87C378.13,-774.28 371.26,-771.4 365,-768.5 348.58,-760.91 345.72,-756.4 329,-749.5 320.61,-746.04 311.35,-742.87 302.6,-740.15"/>
<polygon fill="black" stroke="black" points="303.61,-736.8 293.02,-737.29 301.6,-743.51 303.61,-736.8"/>
</g>
<!-- literal&#45;&gt;expression -->
<g id="edge39" class="edge">
<title>literal&#45;&gt;expression</title>
<path fill="none" stroke="black" d="M238.77,-735.51C227.25,-738.45 213.89,-742.93 203,-749.5 178.45,-764.32 156.14,-789.13 142.7,-805.89"/>
<polygon fill="black" stroke="black" points="139.9,-803.79 136.51,-813.83 145.42,-808.09 139.9,-803.79"/>
</g>
<!-- builtinType -->
<g id="node16" class="node">
<title>builtinType</title>
<polygon fill="#b2dfee" stroke="#b2dfee" points="297.5,-1295 234.5,-1295 234.5,-1276 297.5,-1276 297.5,-1295"/>
<text text-anchor="middle" x="266" y="-1283" font-family="Times New Roman,serif" font-size="10.00">builtinType</text>
</g>
<!-- builtinType&#45;&gt;type -->
<g id="edge9" class="edge">
<title>builtinType&#45;&gt;type</title>
<path fill="none" stroke="black" d="M234.25,-1277.1C213.76,-1271.51 186.75,-1264.13 165.3,-1258.27"/>
<polygon fill="black" stroke="black" points="166.13,-1254.88 155.57,-1255.62 164.29,-1261.63 166.13,-1254.88"/>
</g>
<!-- call -->
<g id="node17" class="node">
<title>call</title>
<polygon fill="#b2dfee" stroke="#b2dfee" points="293,-685 239,-685 239,-666 293,-666 293,-685"/>
<text text-anchor="middle" x="266" y="-673" font-family="Times New Roman,serif" font-size="10.00">call</text>
</g>
<!-- call&#45;&gt;expression -->
<g id="edge10" class="edge">
<title>call&#45;&gt;expression</title>
<path fill="none" stroke="black" d="M243.88,-685.09C231.08,-691.6 214.97,-701.08 203,-712.5 174.03,-740.14 150.61,-781.21 138.49,-804.87"/>
<polygon fill="black" stroke="black" points="135.34,-803.34 134.01,-813.85 141.61,-806.47 135.34,-803.34"/>
</g>
<!-- case -->
<g id="node18" class="node">
<title>case</title>
<polygon fill="#b2dfee" stroke="#b2dfee" points="293,-167 239,-167 239,-148 293,-148 293,-167"/>
<text text-anchor="middle" x="266" y="-155" font-family="Times New Roman,serif" font-size="10.00">case</text>
</g>
<!-- case&#45;&gt;statement -->
<g id="edge11" class="edge">
<title>case&#45;&gt;statement</title>
<path fill="none" stroke="black" d="M238.96,-159.47C226.65,-161.67 212.58,-166.22 203,-175.5 165.76,-211.6 200.72,-247.09 167,-286.5 165.99,-287.68 164.89,-288.79 163.72,-289.84"/>
<polygon fill="black" stroke="black" points="161.34,-287.24 155.25,-295.91 165.42,-292.94 161.34,-287.24"/>
</g>
<!-- statement&#45;&gt;joinpoint -->
<g id="edge58" class="edge">
<title>statement&#45;&gt;joinpoint</title>
<path fill="none" stroke="black" d="M101.88,-295.97C90.13,-291.6 76.02,-286.36 63.29,-281.62"/>
<polygon fill="black" stroke="black" points="64.48,-278.33 53.88,-278.12 62.04,-284.89 64.48,-278.33"/>
</g>
<!-- cast -->
<g id="node20" class="node">
<title>cast</title>
<polygon fill="#b2dfee" stroke="#b2dfee" points="293,-648 239,-648 239,-629 293,-629 293,-648"/>
<text text-anchor="middle" x="266" y="-636" font-family="Times New Roman,serif" font-size="10.00">cast</text>
</g>
<!-- cast&#45;&gt;expression -->
<g id="edge12" class="edge">
<title>cast&#45;&gt;expression</title>
<path fill="none" stroke="black" d="M238.73,-641.49C226.65,-644.04 212.85,-648.76 203,-657.5 158.32,-697.14 139.52,-769.05 132.76,-803.73"/>
<polygon fill="black" stroke="black" points="129.31,-803.14 130.97,-813.6 136.2,-804.39 129.31,-803.14"/>
</g>
<!-- cilkFor -->
<g id="node21" class="node">
<title>cilkFor</title>
<polygon fill="#b2dfee" stroke="#b2dfee" points="438,-130 384,-130 384,-111 438,-111 438,-130"/>
<text text-anchor="middle" x="411" y="-118" font-family="Times New Roman,serif" font-size="10.00">cilkFor</text>
</g>
<!-- loop -->
<g id="node22" class="node">
<title>loop</title>
<polygon fill="#b2dfee" stroke="#b2dfee" points="293,-130 239,-130 239,-111 293,-111 293,-130"/>
<text text-anchor="middle" x="266" y="-118" font-family="Times New Roman,serif" font-size="10.00">loop</text>
</g>
<!-- cilkFor&#45;&gt;loop -->
<g id="edge13" class="edge">
<title>cilkFor&#45;&gt;loop</title>
<path fill="none" stroke="black" d="M383.77,-120.5C361.2,-120.5 328.39,-120.5 303.29,-120.5"/>
<polygon fill="black" stroke="black" points="303.06,-117 293.06,-120.5 303.06,-124 303.06,-117"/>
</g>
<!-- loop&#45;&gt;statement -->
<g id="edge40" class="edge">
<title>loop&#45;&gt;statement</title>
<path fill="none" stroke="black" d="M238.97,-122.12C226.5,-124.22 212.3,-128.78 203,-138.5 156.2,-187.41 209.05,-233.45 167,-286.5 166.06,-287.68 165.04,-288.79 163.94,-289.84"/>
<polygon fill="black" stroke="black" points="161.78,-287.09 155.86,-295.88 165.97,-292.69 161.78,-287.09"/>
</g>
<!-- cilkSpawn -->
<g id="node23" class="node">
<title>cilkSpawn</title>
<polygon fill="#b2dfee" stroke="#b2dfee" points="439.5,-685 382.5,-685 382.5,-666 439.5,-666 439.5,-685"/>
<text text-anchor="middle" x="411" y="-673" font-family="Times New Roman,serif" font-size="10.00">cilkSpawn</text>
</g>
<!-- cilkSpawn&#45;&gt;call -->
<g id="edge14" class="edge">
<title>cilkSpawn&#45;&gt;call</title>
<path fill="none" stroke="black" d="M382.43,-675.5C359.85,-675.5 327.72,-675.5 303.09,-675.5"/>
<polygon fill="black" stroke="black" points="303.04,-672 293.04,-675.5 303.04,-679 303.04,-672"/>
</g>
<!-- cilkSync -->
<g id="node24" class="node">
<title>cilkSync</title>
<polygon fill="#b2dfee" stroke="#b2dfee" points="293,-389 239,-389 239,-370 293,-370 293,-389"/>
<text text-anchor="middle" x="266" y="-377" font-family="Times New Roman,serif" font-size="10.00">cilkSync</text>
</g>
<!-- cilkSync&#45;&gt;statement -->
<g id="edge15" class="edge">
<title>cilkSync&#45;&gt;statement</title>
<path fill="none" stroke="black" d="M238.74,-375.03C227.21,-372.29 213.86,-368.02 203,-361.5 183.33,-349.69 185.48,-338.09 167,-324.5 164.94,-322.99 162.75,-321.53 160.49,-320.15"/>
<polygon fill="black" stroke="black" points="162.07,-317.02 151.63,-315.19 158.65,-323.13 162.07,-317.02"/>
</g>
<!-- class -->
<g id="node25" class="node">
<title>class</title>
<polygon fill="#b2dfee" stroke="#b2dfee" points="552.5,-444 498.5,-444 498.5,-425 552.5,-425 552.5,-444"/>
<text text-anchor="middle" x="525.5" y="-432" font-family="Times New Roman,serif" font-size="10.00">class</text>
</g>
<!-- record -->
<g id="node26" class="node">
<title>record</title>
<polygon fill="#b2dfee" stroke="#b2dfee" points="438,-463 384,-463 384,-444 438,-444 438,-463"/>
<text text-anchor="middle" x="411" y="-451" font-family="Times New Roman,serif" font-size="10.00">record</text>
</g>
<!-- class&#45;&gt;record -->
<g id="edge16" class="edge">
<title>class&#45;&gt;record</title>
<path fill="none" stroke="black" d="M498.41,-438.91C483.61,-441.41 464.85,-444.57 448.59,-447.32"/>
<polygon fill="black" stroke="black" points="447.62,-443.93 438.34,-449.05 448.78,-450.84 447.62,-443.93"/>
</g>
<!-- namedDecl -->
<g id="node32" class="node">
<title>namedDecl</title>
<polygon fill="#b2dfee" stroke="#b2dfee" points="296.5,-537 235.5,-537 235.5,-518 296.5,-518 296.5,-537"/>
<text text-anchor="middle" x="266" y="-525" font-family="Times New Roman,serif" font-size="10.00">namedDecl</text>
</g>
<!-- record&#45;&gt;namedDecl -->
<g id="edge55" class="edge">
<title>record&#45;&gt;namedDecl</title>
<path fill="none" stroke="black" d="M383.85,-462.46C377.42,-465.22 370.74,-468.58 365,-472.5 346.05,-485.44 348.67,-497.69 329,-509.5 322.11,-513.64 314.21,-516.87 306.42,-519.38"/>
<polygon fill="black" stroke="black" points="305.32,-516.05 296.68,-522.19 307.25,-522.78 305.32,-516.05"/>
</g>
<!-- clavaException -->
<g id="node27" class="node">
<title>clavaException</title>
<polygon fill="#b2dfee" stroke="#b2dfee" points="167,-278 90,-278 90,-259 167,-259 167,-278"/>
<text text-anchor="middle" x="128.5" y="-266" font-family="Times New Roman,serif" font-size="10.00">clavaException</text>
</g>
<!-- clavaException&#45;&gt;joinpoint -->
<g id="edge17" class="edge">
<title>clavaException&#45;&gt;joinpoint</title>
<path fill="none" stroke="black" d="M89.88,-268.5C81.53,-268.5 72.68,-268.5 64.37,-268.5"/>
<polygon fill="black" stroke="black" points="64.22,-265 54.22,-268.5 64.22,-272 64.22,-265"/>
</g>
<!-- comment -->
<g id="node28" class="node">
<title>comment</title>
<polygon fill="#b2dfee" stroke="#b2dfee" points="155.5,-241 101.5,-241 101.5,-222 155.5,-222 155.5,-241"/>
<text text-anchor="middle" x="128.5" y="-229" font-family="Times New Roman,serif" font-size="10.00">comment</text>
</g>
<!-- comment&#45;&gt;joinpoint -->
<g id="edge18" class="edge">
<title>comment&#45;&gt;joinpoint</title>
<path fill="none" stroke="black" d="M101.88,-241.03C90.13,-245.4 76.02,-250.64 63.29,-255.38"/>
<polygon fill="black" stroke="black" points="62.04,-252.11 53.88,-258.88 64.48,-258.67 62.04,-252.11"/>
</g>
<!-- cudaKernelCall -->
<g id="node29" class="node">
<title>cudaKernelCall</title>
<polygon fill="#b2dfee" stroke="#b2dfee" points="449.5,-648 372.5,-648 372.5,-629 449.5,-629 449.5,-648"/>
<text text-anchor="middle" x="411" y="-636" font-family="Times New Roman,serif" font-size="10.00">cudaKernelCall</text>
</g>
<!-- cudaKernelCall&#45;&gt;call -->
<g id="edge19" class="edge">
<title>cudaKernelCall&#45;&gt;call</title>
<path fill="none" stroke="black" d="M373.17,-648.03C351.6,-653.61 324.47,-660.63 303.03,-666.18"/>
<polygon fill="black" stroke="black" points="302.12,-662.8 293.32,-668.69 303.88,-669.57 302.12,-662.8"/>
</g>
<!-- declStmt -->
<g id="node30" class="node">
<title>declStmt</title>
<polygon fill="#b2dfee" stroke="#b2dfee" points="293,-352 239,-352 239,-333 293,-333 293,-352"/>
<text text-anchor="middle" x="266" y="-340" font-family="Times New Roman,serif" font-size="10.00">declStmt</text>
</g>
<!-- declStmt&#45;&gt;statement -->
<g id="edge21" class="edge">
<title>declStmt&#45;&gt;statement</title>
<path fill="none" stroke="black" d="M238.87,-335.37C218.38,-329.77 189.58,-321.9 166.67,-315.65"/>
<polygon fill="black" stroke="black" points="167.51,-312.25 156.94,-312.99 165.67,-319 167.51,-312.25"/>
</g>
<!-- declarator -->
<g id="node31" class="node">
<title>declarator</title>
<polygon fill="#b2dfee" stroke="#b2dfee" points="439,-389 383,-389 383,-370 439,-370 439,-389"/>
<text text-anchor="middle" x="411" y="-377" font-family="Times New Roman,serif" font-size="10.00">declarator</text>
</g>
<!-- declarator&#45;&gt;namedDecl -->
<g id="edge22" class="edge">
<title>declarator&#45;&gt;namedDecl</title>
<path fill="none" stroke="black" d="M400.98,-389.3C391.34,-400.1 375.95,-418.22 365,-435.5 345.42,-466.39 356.97,-485.93 329,-509.5 322.54,-514.94 314.51,-518.74 306.4,-521.39"/>
<polygon fill="black" stroke="black" points="305.28,-518.07 296.56,-524.09 307.13,-524.82 305.28,-518.07"/>
</g>
<!-- namedDecl&#45;&gt;decl -->
<g id="edge45" class="edge">
<title>namedDecl&#45;&gt;decl</title>
<path fill="none" stroke="black" d="M235.26,-523.55C214.78,-520.83 187.44,-517.2 165.68,-514.31"/>
<polygon fill="black" stroke="black" points="165.88,-510.8 155.51,-512.96 164.96,-517.74 165.88,-510.8"/>
</g>
<!-- deleteExpr -->
<g id="node33" class="node">
<title>deleteExpr</title>
<polygon fill="#b2dfee" stroke="#b2dfee" points="295,-1036 237,-1036 237,-1017 295,-1017 295,-1036"/>
<text text-anchor="middle" x="266" y="-1024" font-family="Times New Roman,serif" font-size="10.00">deleteExpr</text>
</g>
<!-- deleteExpr&#45;&gt;expression -->
<g id="edge23" class="edge">
<title>deleteExpr&#45;&gt;expression</title>
<path fill="none" stroke="black" d="M236.72,-1023.77C225.09,-1021.36 212.21,-1016.87 203,-1008.5 153.63,-963.64 136.92,-881.25 131.69,-843.43"/>
<polygon fill="black" stroke="black" points="135.13,-842.7 130.41,-833.21 128.18,-843.57 135.13,-842.7"/>
</g>
<!-- elaboratedType -->
<g id="node34" class="node">
<title>elaboratedType</title>
<polygon fill="#b2dfee" stroke="#b2dfee" points="306,-1258 226,-1258 226,-1239 306,-1239 306,-1258"/>
<text text-anchor="middle" x="266" y="-1246" font-family="Times New Roman,serif" font-size="10.00">elaboratedType</text>
</g>
<!-- elaboratedType&#45;&gt;type -->
<g id="edge24" class="edge">
<title>elaboratedType&#45;&gt;type</title>
<path fill="none" stroke="black" d="M225.81,-1248.5C206.9,-1248.5 184.37,-1248.5 165.85,-1248.5"/>
<polygon fill="black" stroke="black" points="165.75,-1245 155.75,-1248.5 165.75,-1252 165.75,-1245"/>
</g>
<!-- empty -->
<g id="node35" class="node">
<title>empty</title>
<polygon fill="#b2dfee" stroke="#b2dfee" points="155.5,-204 101.5,-204 101.5,-185 155.5,-185 155.5,-204"/>
<text text-anchor="middle" x="128.5" y="-192" font-family="Times New Roman,serif" font-size="10.00">empty</text>
</g>
<!-- empty&#45;&gt;joinpoint -->
<g id="edge25" class="edge">
<title>empty&#45;&gt;joinpoint</title>
<path fill="none" stroke="black" d="M104.71,-204.15C99.71,-206.61 94.56,-209.44 90,-212.5 73.01,-223.9 55.91,-239.75 43.99,-251.67"/>
<polygon fill="black" stroke="black" points="41.45,-249.27 36.95,-258.86 46.45,-254.16 41.45,-249.27"/>
</g>
<!-- enumDecl -->
<g id="node36" class="node">
<title>enumDecl</title>
<polygon fill="#b2dfee" stroke="#b2dfee" points="439,-574 383,-574 383,-555 439,-555 439,-574"/>
<text text-anchor="middle" x="411" y="-562" font-family="Times New Roman,serif" font-size="10.00">enumDecl</text>
</g>
<!-- enumDecl&#45;&gt;namedDecl -->
<g id="edge26" class="edge">
<title>enumDecl&#45;&gt;namedDecl</title>
<path fill="none" stroke="black" d="M382.77,-557.45C361.21,-551.88 330.81,-544.01 306.57,-537.74"/>
<polygon fill="black" stroke="black" points="307.16,-534.27 296.6,-535.16 305.4,-541.05 307.16,-534.27"/>
</g>
<!-- enumType -->
<g id="node37" class="node">
<title>enumType</title>
<polygon fill="#b2dfee" stroke="#b2dfee" points="440.5,-1221 381.5,-1221 381.5,-1202 440.5,-1202 440.5,-1221"/>
<text text-anchor="middle" x="411" y="-1209" font-family="Times New Roman,serif" font-size="10.00">enumType</text>
</g>
<!-- tagType -->
<g id="node38" class="node">
<title>tagType</title>
<polygon fill="#b2dfee" stroke="#b2dfee" points="293,-1221 239,-1221 239,-1202 293,-1202 293,-1221"/>
<text text-anchor="middle" x="266" y="-1209" font-family="Times New Roman,serif" font-size="10.00">tagType</text>
</g>
<!-- enumType&#45;&gt;tagType -->
<g id="edge27" class="edge">
<title>enumType&#45;&gt;tagType</title>
<path fill="none" stroke="black" d="M381.41,-1211.5C358.97,-1211.5 327.59,-1211.5 303.37,-1211.5"/>
<polygon fill="black" stroke="black" points="303.14,-1208 293.14,-1211.5 303.14,-1215 303.14,-1208"/>
</g>
<!-- tagType&#45;&gt;type -->
<g id="edge62" class="edge">
<title>tagType&#45;&gt;type</title>
<path fill="none" stroke="black" d="M238.87,-1218.63C217.97,-1224.34 188.44,-1232.4 165.33,-1238.72"/>
<polygon fill="black" stroke="black" points="164.27,-1235.38 155.55,-1241.39 166.11,-1242.13 164.27,-1235.38"/>
</g>
<!-- enumeratorDecl -->
<g id="node39" class="node">
<title>enumeratorDecl</title>
<polygon fill="#b2dfee" stroke="#b2dfee" points="451,-537 371,-537 371,-518 451,-518 451,-537"/>
<text text-anchor="middle" x="411" y="-525" font-family="Times New Roman,serif" font-size="10.00">enumeratorDecl</text>
</g>
<!-- enumeratorDecl&#45;&gt;namedDecl -->
<g id="edge28" class="edge">
<title>enumeratorDecl&#45;&gt;namedDecl</title>
<path fill="none" stroke="black" d="M370.92,-527.5C351.07,-527.5 326.97,-527.5 306.99,-527.5"/>
<polygon fill="black" stroke="black" points="306.96,-524 296.96,-527.5 306.96,-531 306.96,-524"/>
</g>
<!-- exprStmt -->
<g id="node40" class="node">
<title>exprStmt</title>
<polygon fill="#b2dfee" stroke="#b2dfee" points="293,-315 239,-315 239,-296 293,-296 293,-315"/>
<text text-anchor="middle" x="266" y="-303" font-family="Times New Roman,serif" font-size="10.00">exprStmt</text>
</g>
<!-- exprStmt&#45;&gt;statement -->
<g id="edge29" class="edge">
<title>exprStmt&#45;&gt;statement</title>
<path fill="none" stroke="black" d="M238.87,-305.5C218.47,-305.5 189.83,-305.5 166.98,-305.5"/>
<polygon fill="black" stroke="black" points="166.94,-302 156.94,-305.5 166.94,-309 166.94,-302"/>
</g>
<!-- field -->
<g id="node41" class="node">
<title>field</title>
<polygon fill="#b2dfee" stroke="#b2dfee" points="552.5,-333 498.5,-333 498.5,-314 552.5,-314 552.5,-333"/>
<text text-anchor="middle" x="525.5" y="-321" font-family="Times New Roman,serif" font-size="10.00">field</text>
</g>
<!-- field&#45;&gt;declarator -->
<g id="edge31" class="edge">
<title>field&#45;&gt;declarator</title>
<path fill="none" stroke="black" d="M505.16,-333.13C487.26,-342.04 460.44,-355.39 440.17,-365.48"/>
<polygon fill="black" stroke="black" points="438.48,-362.41 431.09,-370 441.6,-368.68 438.48,-362.41"/>
</g>
<!-- file -->
<g id="node42" class="node">
<title>file</title>
<polygon fill="#b2dfee" stroke="#b2dfee" points="155.5,-167 101.5,-167 101.5,-148 155.5,-148 155.5,-167"/>
<text text-anchor="middle" x="128.5" y="-155" font-family="Times New Roman,serif" font-size="10.00">file</text>
</g>
<!-- file&#45;&gt;joinpoint -->
<g id="edge32" class="edge">
<title>file&#45;&gt;joinpoint</title>
<path fill="none" stroke="black" d="M102.53,-167.15C98.09,-169.5 93.71,-172.28 90,-175.5 65.81,-196.51 47.03,-229.1 36.75,-249.6"/>
<polygon fill="black" stroke="black" points="33.48,-248.31 32.28,-258.84 39.79,-251.36 33.48,-248.31"/>
</g>
<!-- floatLiteral -->
<g id="node43" class="node">
<title>floatLiteral</title>
<polygon fill="#b2dfee" stroke="#b2dfee" points="440.5,-759 381.5,-759 381.5,-740 440.5,-740 440.5,-759"/>
<text text-anchor="middle" x="411" y="-747" font-family="Times New Roman,serif" font-size="10.00">floatLiteral</text>
</g>
<!-- floatLiteral&#45;&gt;literal -->
<g id="edge33" class="edge">
<title>floatLiteral&#45;&gt;literal</title>
<path fill="none" stroke="black" d="M381.41,-745.7C358.97,-742.72 327.59,-738.55 303.37,-735.33"/>
<polygon fill="black" stroke="black" points="303.51,-731.82 293.14,-733.97 302.59,-738.76 303.51,-731.82"/>
</g>
<!-- function -->
<g id="node44" class="node">
<title>function</title>
<polygon fill="#b2dfee" stroke="#b2dfee" points="552.5,-407 498.5,-407 498.5,-388 552.5,-388 552.5,-407"/>
<text text-anchor="middle" x="525.5" y="-395" font-family="Times New Roman,serif" font-size="10.00">function</text>
</g>
<!-- function&#45;&gt;declarator -->
<g id="edge34" class="edge">
<title>function&#45;&gt;declarator</title>
<path fill="none" stroke="black" d="M498.41,-393.33C483.82,-390.99 465.39,-388.04 449.3,-385.47"/>
<polygon fill="black" stroke="black" points="449.55,-381.96 439.13,-383.84 448.45,-388.88 449.55,-381.96"/>
</g>
<!-- functionType -->
<g id="node45" class="node">
<title>functionType</title>
<polygon fill="#b2dfee" stroke="#b2dfee" points="301.5,-1184 230.5,-1184 230.5,-1165 301.5,-1165 301.5,-1184"/>
<text text-anchor="middle" x="266" y="-1172" font-family="Times New Roman,serif" font-size="10.00">functionType</text>
</g>
<!-- functionType&#45;&gt;type -->
<g id="edge35" class="edge">
<title>functionType&#45;&gt;type</title>
<path fill="none" stroke="black" d="M230.39,-1182.81C221.23,-1185.62 211.53,-1189.17 203,-1193.5 182.57,-1203.88 161.9,-1219.95 147.71,-1232.04"/>
<polygon fill="black" stroke="black" points="145.39,-1229.42 140.15,-1238.63 149.99,-1234.7 145.39,-1229.42"/>
</g>
<!-- if -->
<g id="node46" class="node">
<title>if</title>
<polygon fill="#b2dfee" stroke="#b2dfee" points="293,-278 239,-278 239,-259 293,-259 293,-278"/>
<text text-anchor="middle" x="266" y="-266" font-family="Times New Roman,serif" font-size="10.00">if</text>
</g>
<!-- if&#45;&gt;statement -->
<g id="edge36" class="edge">
<title>if&#45;&gt;statement</title>
<path fill="none" stroke="black" d="M238.87,-275.63C218.38,-281.23 189.58,-289.1 166.67,-295.35"/>
<polygon fill="black" stroke="black" points="165.67,-292 156.94,-298.01 167.51,-298.75 165.67,-292"/>
</g>
<!-- include -->
<g id="node47" class="node">
<title>include</title>
<polygon fill="#b2dfee" stroke="#b2dfee" points="293,-500 239,-500 239,-481 293,-481 293,-500"/>
<text text-anchor="middle" x="266" y="-488" font-family="Times New Roman,serif" font-size="10.00">include</text>
</g>
<!-- include&#45;&gt;decl -->
<g id="edge37" class="edge">
<title>include&#45;&gt;decl</title>
<path fill="none" stroke="black" d="M238.87,-494.16C218.07,-497.08 188.71,-501.2 165.65,-504.43"/>
<polygon fill="black" stroke="black" points="164.96,-500.99 155.55,-505.85 165.93,-507.93 164.96,-500.99"/>
</g>
<!-- intLiteral -->
<g id="node48" class="node">
<title>intLiteral</title>
<polygon fill="#b2dfee" stroke="#b2dfee" points="438,-722 384,-722 384,-703 438,-703 438,-722"/>
<text text-anchor="middle" x="411" y="-710" font-family="Times New Roman,serif" font-size="10.00">intLiteral</text>
</g>
<!-- intLiteral&#45;&gt;literal -->
<g id="edge38" class="edge">
<title>intLiteral&#45;&gt;literal</title>
<path fill="none" stroke="black" d="M383.77,-715.8C361.2,-718.64 328.39,-722.77 303.29,-725.93"/>
<polygon fill="black" stroke="black" points="302.55,-722.5 293.06,-727.22 303.42,-729.44 302.55,-722.5"/>
</g>
<!-- marker -->
<g id="node49" class="node">
<title>marker</title>
<polygon fill="#b2dfee" stroke="#b2dfee" points="293,-93 239,-93 239,-74 293,-74 293,-93"/>
<text text-anchor="middle" x="266" y="-81" font-family="Times New Roman,serif" font-size="10.00">marker</text>
</g>
<!-- pragma -->
<g id="node50" class="node">
<title>pragma</title>
<polygon fill="#b2dfee" stroke="#b2dfee" points="155.5,-93 101.5,-93 101.5,-74 155.5,-74 155.5,-93"/>
<text text-anchor="middle" x="128.5" y="-81" font-family="Times New Roman,serif" font-size="10.00">pragma</text>
</g>
<!-- marker&#45;&gt;pragma -->
<g id="edge41" class="edge">
<title>marker&#45;&gt;pragma</title>
<path fill="none" stroke="black" d="M238.87,-83.5C218.07,-83.5 188.71,-83.5 165.65,-83.5"/>
<polygon fill="black" stroke="black" points="165.55,-80 155.55,-83.5 165.55,-87 165.55,-80"/>
</g>
<!-- pragma&#45;&gt;joinpoint -->
<g id="edge52" class="edge">
<title>pragma&#45;&gt;joinpoint</title>
<path fill="none" stroke="black" d="M120.11,-93.34C112.18,-104.12 99.45,-122.07 90,-138.5 68.09,-176.61 47.04,-223.67 36,-249.43"/>
<polygon fill="black" stroke="black" points="32.71,-248.21 32.02,-258.78 39.15,-250.95 32.71,-248.21"/>
</g>
<!-- memberAccess -->
<g id="node51" class="node">
<title>memberAccess</title>
<polygon fill="#b2dfee" stroke="#b2dfee" points="304.5,-999 227.5,-999 227.5,-980 304.5,-980 304.5,-999"/>
<text text-anchor="middle" x="266" y="-987" font-family="Times New Roman,serif" font-size="10.00">memberAccess</text>
</g>
<!-- memberAccess&#45;&gt;expression -->
<g id="edge42" class="edge">
<title>memberAccess&#45;&gt;expression</title>
<path fill="none" stroke="black" d="M227.46,-983.93C218.73,-981.26 209.97,-977.32 203,-971.5 162.04,-937.27 141.8,-874.62 133.79,-842.94"/>
<polygon fill="black" stroke="black" points="137.17,-842.04 131.45,-833.12 130.36,-843.66 137.17,-842.04"/>
</g>
<!-- memberCall -->
<g id="node52" class="node">
<title>memberCall</title>
<polygon fill="#b2dfee" stroke="#b2dfee" points="442,-611 380,-611 380,-592 442,-592 442,-611"/>
<text text-anchor="middle" x="411" y="-599" font-family="Times New Roman,serif" font-size="10.00">memberCall</text>
</g>
<!-- memberCall&#45;&gt;call -->
<g id="edge43" class="edge">
<title>memberCall&#45;&gt;call</title>
<path fill="none" stroke="black" d="M382.44,-611.08C376.45,-613.71 370.32,-616.86 365,-620.5 346.05,-633.44 348.67,-645.69 329,-657.5 321.11,-662.24 311.91,-665.79 303.04,-668.43"/>
<polygon fill="black" stroke="black" points="302.02,-665.07 293.26,-671.03 303.82,-671.84 302.02,-665.07"/>
</g>
<!-- method -->
<g id="node53" class="node">
<title>method</title>
<polygon fill="#b2dfee" stroke="#b2dfee" points="648,-407 594,-407 594,-388 648,-388 648,-407"/>
<text text-anchor="middle" x="621" y="-395" font-family="Times New Roman,serif" font-size="10.00">method</text>
</g>
<!-- method&#45;&gt;function -->
<g id="edge44" class="edge">
<title>method&#45;&gt;function</title>
<path fill="none" stroke="black" d="M593.96,-397.5C584.31,-397.5 573.19,-397.5 562.8,-397.5"/>
<polygon fill="black" stroke="black" points="562.73,-394 552.73,-397.5 562.73,-401 562.73,-394"/>
</g>
<!-- newExpr -->
<g id="node54" class="node">
<title>newExpr</title>
<polygon fill="#b2dfee" stroke="#b2dfee" points="293,-962 239,-962 239,-943 293,-943 293,-962"/>
<text text-anchor="middle" x="266" y="-950" font-family="Times New Roman,serif" font-size="10.00">newExpr</text>
</g>
<!-- newExpr&#45;&gt;expression -->
<g id="edge46" class="edge">
<title>newExpr&#45;&gt;expression</title>
<path fill="none" stroke="black" d="M238.74,-949.08C226.95,-946.55 213.38,-942.14 203,-934.5 170.42,-910.53 148.04,-867.46 137.13,-842.61"/>
<polygon fill="black" stroke="black" points="140.27,-841.04 133.17,-833.18 133.82,-843.75 140.27,-841.04"/>
</g>
<!-- omp -->
<g id="node55" class="node">
<title>omp</title>
<polygon fill="#b2dfee" stroke="#b2dfee" points="293,-56 239,-56 239,-37 293,-37 293,-56"/>
<text text-anchor="middle" x="266" y="-44" font-family="Times New Roman,serif" font-size="10.00">omp</text>
</g>
<!-- omp&#45;&gt;pragma -->
<g id="edge47" class="edge">
<title>omp&#45;&gt;pragma</title>
<path fill="none" stroke="black" d="M238.87,-53.63C217.97,-59.34 188.44,-67.4 165.33,-73.72"/>
<polygon fill="black" stroke="black" points="164.27,-70.38 155.55,-76.39 166.11,-77.13 164.27,-70.38"/>
</g>
<!-- param -->
<g id="node56" class="node">
<title>param</title>
<polygon fill="#b2dfee" stroke="#b2dfee" points="648,-370 594,-370 594,-351 648,-351 648,-370"/>
<text text-anchor="middle" x="621" y="-358" font-family="Times New Roman,serif" font-size="10.00">param</text>
</g>
<!-- vardecl -->
<g id="node57" class="node">
<title>vardecl</title>
<polygon fill="#b2dfee" stroke="#b2dfee" points="552.5,-370 498.5,-370 498.5,-351 552.5,-351 552.5,-370"/>
<text text-anchor="middle" x="525.5" y="-358" font-family="Times New Roman,serif" font-size="10.00">vardecl</text>
</g>
<!-- param&#45;&gt;vardecl -->
<g id="edge49" class="edge">
<title>param&#45;&gt;vardecl</title>
<path fill="none" stroke="black" d="M593.96,-360.5C584.31,-360.5 573.19,-360.5 562.8,-360.5"/>
<polygon fill="black" stroke="black" points="562.73,-357 552.73,-360.5 562.73,-364 562.73,-357"/>
</g>
<!-- vardecl&#45;&gt;declarator -->
<g id="edge73" class="edge">
<title>vardecl&#45;&gt;declarator</title>
<path fill="none" stroke="black" d="M498.41,-364.91C483.82,-367.37 465.39,-370.48 449.3,-373.2"/>
<polygon fill="black" stroke="black" points="448.4,-369.8 439.13,-374.92 449.57,-376.7 448.4,-369.8"/>
</g>
<!-- parenType -->
<g id="node58" class="node">
<title>parenType</title>
<polygon fill="#b2dfee" stroke="#b2dfee" points="296,-1147 236,-1147 236,-1128 296,-1128 296,-1147"/>
<text text-anchor="middle" x="266" y="-1135" font-family="Times New Roman,serif" font-size="10.00">parenType</text>
</g>
<!-- parenType&#45;&gt;type -->
<g id="edge50" class="edge">
<title>parenType&#45;&gt;type</title>
<path fill="none" stroke="black" d="M235.94,-1142.6C224.96,-1145.46 212.78,-1149.85 203,-1156.5 174.68,-1175.75 151.96,-1209.19 139.63,-1230.01"/>
<polygon fill="black" stroke="black" points="136.5,-1228.43 134.57,-1238.85 142.58,-1231.91 136.5,-1228.43"/>
</g>
<!-- pointerType -->
<g id="node59" class="node">
<title>pointerType</title>
<polygon fill="#b2dfee" stroke="#b2dfee" points="299,-1110 233,-1110 233,-1091 299,-1091 299,-1110"/>
<text text-anchor="middle" x="266" y="-1098" font-family="Times New Roman,serif" font-size="10.00">pointerType</text>
</g>
<!-- pointerType&#45;&gt;type -->
<g id="edge51" class="edge">
<title>pointerType&#45;&gt;type</title>
<path fill="none" stroke="black" d="M232.82,-1105.49C222.49,-1108.29 211.52,-1112.67 203,-1119.5 166.6,-1148.64 144.94,-1201.01 135.37,-1229.23"/>
<polygon fill="black" stroke="black" points="132.03,-1228.17 132.28,-1238.76 138.69,-1230.33 132.03,-1228.17"/>
</g>
<!-- program -->
<g id="node60" class="node">
<title>program</title>
<polygon fill="#b2dfee" stroke="#b2dfee" points="155.5,-56 101.5,-56 101.5,-37 155.5,-37 155.5,-56"/>
<text text-anchor="middle" x="128.5" y="-44" font-family="Times New Roman,serif" font-size="10.00">program</text>
</g>
<!-- program&#45;&gt;joinpoint -->
<g id="edge53" class="edge">
<title>program&#45;&gt;joinpoint</title>
<path fill="none" stroke="black" d="M101.32,-55.55C97.1,-57.93 93.1,-60.88 90,-64.5 43.05,-119.22 31.65,-208.76 28.89,-248.46"/>
<polygon fill="black" stroke="black" points="25.38,-248.5 28.29,-258.68 32.37,-248.9 25.38,-248.5"/>
</g>
<!-- qualType -->
<g id="node61" class="node">
<title>qualType</title>
<polygon fill="#b2dfee" stroke="#b2dfee" points="293.5,-1073 238.5,-1073 238.5,-1054 293.5,-1054 293.5,-1073"/>
<text text-anchor="middle" x="266" y="-1061" font-family="Times New Roman,serif" font-size="10.00">qualType</text>
</g>
<!-- qualType&#45;&gt;type -->
<g id="edge54" class="edge">
<title>qualType&#45;&gt;type</title>
<path fill="none" stroke="black" d="M238.42,-1066.56C226.41,-1069.12 212.77,-1073.83 203,-1082.5 158.32,-1122.14 139.52,-1194.05 132.76,-1228.73"/>
<polygon fill="black" stroke="black" points="129.31,-1228.14 130.97,-1238.6 136.2,-1229.39 129.31,-1228.14"/>
</g>
<!-- returnStmt -->
<g id="node62" class="node">
<title>returnStmt</title>
<polygon fill="#b2dfee" stroke="#b2dfee" points="295.5,-241 236.5,-241 236.5,-222 295.5,-222 295.5,-241"/>
<text text-anchor="middle" x="266" y="-229" font-family="Times New Roman,serif" font-size="10.00">returnStmt</text>
</g>
<!-- returnStmt&#45;&gt;statement -->
<g id="edge56" class="edge">
<title>returnStmt&#45;&gt;statement</title>
<path fill="none" stroke="black" d="M236.26,-236.58C225.33,-239.32 213.09,-243.44 203,-249.5 183.33,-261.31 185.48,-272.91 167,-286.5 164.94,-288.01 162.75,-289.47 160.49,-290.85"/>
<polygon fill="black" stroke="black" points="158.65,-287.87 151.63,-295.81 162.07,-293.98 158.65,-287.87"/>
</g>
<!-- struct -->
<g id="node63" class="node">
<title>struct</title>
<polygon fill="#b2dfee" stroke="#b2dfee" points="552.5,-481 498.5,-481 498.5,-462 552.5,-462 552.5,-481"/>
<text text-anchor="middle" x="525.5" y="-469" font-family="Times New Roman,serif" font-size="10.00">struct</text>
</g>
<!-- struct&#45;&gt;record -->
<g id="edge59" class="edge">
<title>struct&#45;&gt;record</title>
<path fill="none" stroke="black" d="M498.41,-467.33C483.61,-464.96 464.85,-461.96 448.59,-459.35"/>
<polygon fill="black" stroke="black" points="448.77,-455.84 438.34,-457.71 447.66,-462.75 448.77,-455.84"/>
</g>
<!-- switch -->
<g id="node64" class="node">
<title>switch</title>
<polygon fill="#b2dfee" stroke="#b2dfee" points="293,-463 239,-463 239,-444 293,-444 293,-463"/>
<text text-anchor="middle" x="266" y="-451" font-family="Times New Roman,serif" font-size="10.00">switch</text>
</g>
<!-- switch&#45;&gt;statement -->
<g id="edge60" class="edge">
<title>switch&#45;&gt;statement</title>
<path fill="none" stroke="black" d="M238.96,-451.53C226.65,-449.33 212.58,-444.78 203,-435.5 165.76,-399.4 200.72,-363.91 167,-324.5 165.99,-323.32 164.89,-322.21 163.72,-321.16"/>
<polygon fill="black" stroke="black" points="165.42,-318.06 155.25,-315.09 161.34,-323.76 165.42,-318.06"/>
</g>
<!-- tag -->
<g id="node65" class="node">
<title>tag</title>
<polygon fill="#b2dfee" stroke="#b2dfee" points="293,-19 239,-19 239,0 293,0 293,-19"/>
<text text-anchor="middle" x="266" y="-7" font-family="Times New Roman,serif" font-size="10.00">tag</text>
</g>
<!-- tag&#45;&gt;pragma -->
<g id="edge61" class="edge">
<title>tag&#45;&gt;pragma</title>
<path fill="none" stroke="black" d="M238.74,-13.97C227.21,-16.71 213.86,-20.98 203,-27.5 183.33,-39.31 185.48,-50.91 167,-64.5 164.94,-66.01 162.75,-67.47 160.49,-68.85"/>
<polygon fill="black" stroke="black" points="158.65,-65.87 151.63,-73.81 162.07,-71.98 158.65,-65.87"/>
</g>
<!-- templateSpecializationType -->
<g id="node66" class="node">
<title>templateSpecializationType</title>
<polygon fill="#b2dfee" stroke="#b2dfee" points="329,-1480 203,-1480 203,-1461 329,-1461 329,-1480"/>
<text text-anchor="middle" x="266" y="-1468" font-family="Times New Roman,serif" font-size="10.00">templateSpecializationType</text>
</g>
<!-- templateSpecializationType&#45;&gt;type -->
<g id="edge63" class="edge">
<title>templateSpecializationType&#45;&gt;type</title>
<path fill="none" stroke="black" d="M215.26,-1460.86C210.79,-1458.62 206.6,-1455.88 203,-1452.5 149.17,-1401.98 134.68,-1309.15 130.85,-1268.48"/>
<polygon fill="black" stroke="black" points="134.32,-1267.94 130.01,-1258.26 127.34,-1268.51 134.32,-1267.94"/>
</g>
<!-- ternaryOp -->
<g id="node67" class="node">
<title>ternaryOp</title>
<polygon fill="#b2dfee" stroke="#b2dfee" points="439.5,-870 382.5,-870 382.5,-851 439.5,-851 439.5,-870"/>
<text text-anchor="middle" x="411" y="-858" font-family="Times New Roman,serif" font-size="10.00">ternaryOp</text>
</g>
<!-- ternaryOp&#45;&gt;op -->
<g id="edge64" class="edge">
<title>ternaryOp&#45;&gt;op</title>
<path fill="none" stroke="black" d="M382.33,-852.55C376.22,-849.98 370.06,-846.68 365,-842.5 342.18,-823.67 352.58,-804.37 329,-786.5 321.36,-780.71 311.93,-776.67 302.76,-773.85"/>
<polygon fill="black" stroke="black" points="303.57,-770.45 293.01,-771.26 301.77,-777.21 303.57,-770.45"/>
</g>
<!-- this -->
<g id="node68" class="node">
<title>this</title>
<polygon fill="#b2dfee" stroke="#b2dfee" points="293,-925 239,-925 239,-906 293,-906 293,-925"/>
<text text-anchor="middle" x="266" y="-913" font-family="Times New Roman,serif" font-size="10.00">this</text>
</g>
<!-- this&#45;&gt;expression -->
<g id="edge65" class="edge">
<title>this&#45;&gt;expression</title>
<path fill="none" stroke="black" d="M238.77,-910.98C227.25,-908.23 213.89,-903.96 203,-897.5 178.34,-882.86 156.06,-858.01 142.65,-841.19"/>
<polygon fill="black" stroke="black" points="145.37,-838.98 136.48,-833.22 139.84,-843.27 145.37,-838.98"/>
</g>
<!-- typedefDecl -->
<g id="node69" class="node">
<title>typedefDecl</title>
<polygon fill="#b2dfee" stroke="#b2dfee" points="558,-518 493,-518 493,-499 558,-499 558,-518"/>
<text text-anchor="middle" x="525.5" y="-506" font-family="Times New Roman,serif" font-size="10.00">typedefDecl</text>
</g>
<!-- typedefNameDecl -->
<g id="node70" class="node">
<title>typedefNameDecl</title>
<polygon fill="#b2dfee" stroke="#b2dfee" points="455,-500 367,-500 367,-481 455,-481 455,-500"/>
<text text-anchor="middle" x="411" y="-488" font-family="Times New Roman,serif" font-size="10.00">typedefNameDecl</text>
</g>
<!-- typedefDecl&#45;&gt;typedefNameDecl -->
<g id="edge67" class="edge">
<title>typedefDecl&#45;&gt;typedefNameDecl</title>
<path fill="none" stroke="black" d="M492.86,-503.44C484.27,-502.06 474.73,-500.54 465.29,-499.03"/>
<polygon fill="black" stroke="black" points="465.58,-495.53 455.15,-497.4 464.47,-502.44 465.58,-495.53"/>
</g>
<!-- typedefNameDecl&#45;&gt;namedDecl -->
<g id="edge68" class="edge">
<title>typedefNameDecl&#45;&gt;namedDecl</title>
<path fill="none" stroke="black" d="M373.17,-500.03C352.83,-505.29 327.56,-511.83 306.77,-517.21"/>
<polygon fill="black" stroke="black" points="305.77,-513.85 296.96,-519.75 307.52,-520.63 305.77,-513.85"/>
</g>
<!-- typedefType -->
<g id="node71" class="node">
<title>typedefType</title>
<polygon fill="#b2dfee" stroke="#b2dfee" points="300,-1443 232,-1443 232,-1424 300,-1424 300,-1443"/>
<text text-anchor="middle" x="266" y="-1431" font-family="Times New Roman,serif" font-size="10.00">typedefType</text>
</g>
<!-- typedefType&#45;&gt;type -->
<g id="edge69" class="edge">
<title>typedefType&#45;&gt;type</title>
<path fill="none" stroke="black" d="M231.78,-1429.42C221.61,-1426.8 211.01,-1422.52 203,-1415.5 157.63,-1375.76 139.09,-1302.76 132.57,-1267.95"/>
<polygon fill="black" stroke="black" points="136.01,-1267.34 130.85,-1258.08 129.12,-1268.54 136.01,-1267.34"/>
</g>
<!-- unaryExprOrType -->
<g id="node72" class="node">
<title>unaryExprOrType</title>
<polygon fill="#b2dfee" stroke="#b2dfee" points="310,-888 222,-888 222,-869 310,-869 310,-888"/>
<text text-anchor="middle" x="266" y="-876" font-family="Times New Roman,serif" font-size="10.00">unaryExprOrType</text>
</g>
<!-- unaryExprOrType&#45;&gt;expression -->
<g id="edge70" class="edge">
<title>unaryExprOrType&#45;&gt;expression</title>
<path fill="none" stroke="black" d="M227.91,-868.94C219.61,-866.47 210.93,-863.62 203,-860.5 186.69,-854.09 169.13,-845.32 155.27,-837.94"/>
<polygon fill="black" stroke="black" points="156.78,-834.77 146.32,-833.09 153.44,-840.93 156.78,-834.77"/>
</g>
<!-- unaryOp -->
<g id="node73" class="node">
<title>unaryOp</title>
<polygon fill="#b2dfee" stroke="#b2dfee" points="438,-833 384,-833 384,-814 438,-814 438,-833"/>
<text text-anchor="middle" x="411" y="-821" font-family="Times New Roman,serif" font-size="10.00">unaryOp</text>
</g>
<!-- unaryOp&#45;&gt;op -->
<g id="edge71" class="edge">
<title>unaryOp&#45;&gt;op</title>
<path fill="none" stroke="black" d="M384.57,-813.87C378.13,-811.28 371.26,-808.4 365,-805.5 348.58,-797.91 345.72,-793.4 329,-786.5 320.61,-783.04 311.35,-779.87 302.6,-777.15"/>
<polygon fill="black" stroke="black" points="303.61,-773.8 293.02,-774.29 301.6,-780.51 303.61,-773.8"/>
</g>
<!-- undefinedType -->
<g id="node74" class="node">
<title>undefinedType</title>
<polygon fill="#b2dfee" stroke="#b2dfee" points="305,-1406 227,-1406 227,-1387 305,-1387 305,-1406"/>
<text text-anchor="middle" x="266" y="-1394" font-family="Times New Roman,serif" font-size="10.00">undefinedType</text>
</g>
<!-- undefinedType&#45;&gt;type -->
<g id="edge72" class="edge">
<title>undefinedType&#45;&gt;type</title>
<path fill="none" stroke="black" d="M226.7,-1390.36C218.29,-1387.71 209.86,-1383.92 203,-1378.5 166.22,-1349.4 144.72,-1296.52 135.27,-1267.99"/>
<polygon fill="black" stroke="black" points="138.58,-1266.84 132.23,-1258.35 131.9,-1268.94 138.58,-1266.84"/>
</g>
<!-- variableArrayType -->
<g id="node75" class="node">
<title>variableArrayType</title>
<polygon fill="#b2dfee" stroke="#b2dfee" points="457,-1332 365,-1332 365,-1313 457,-1313 457,-1332"/>
<text text-anchor="middle" x="411" y="-1320" font-family="Times New Roman,serif" font-size="10.00">variableArrayType</text>
</g>
<!-- variableArrayType&#45;&gt;arrayType -->
<g id="edge74" class="edge">
<title>variableArrayType&#45;&gt;arrayType</title>
<path fill="none" stroke="black" d="M364.75,-1322.5C345.65,-1322.5 323.64,-1322.5 305.35,-1322.5"/>
<polygon fill="black" stroke="black" points="305.34,-1319 295.34,-1322.5 305.34,-1326 305.34,-1319"/>
</g>
<!-- varref -->
<g id="node76" class="node">
<title>varref</title>
<polygon fill="#b2dfee" stroke="#b2dfee" points="293,-851 239,-851 239,-832 293,-832 293,-851"/>
<text text-anchor="middle" x="266" y="-839" font-family="Times New Roman,serif" font-size="10.00">varref</text>
</g>
<!-- varref&#45;&gt;expression -->
<g id="edge75" class="edge">
<title>varref&#45;&gt;expression</title>
<path fill="none" stroke="black" d="M238.87,-838.03C218.87,-835.37 190.95,-831.66 168.33,-828.66"/>
<polygon fill="black" stroke="black" points="168.73,-825.18 158.36,-827.33 167.81,-832.12 168.73,-825.18"/>
</g>
<!-- wrapperStmt -->
<g id="node77" class="node">
<title>wrapperStmt</title>
<polygon fill="#b2dfee" stroke="#b2dfee" points="299.5,-426 232.5,-426 232.5,-407 299.5,-407 299.5,-426"/>
<text text-anchor="middle" x="266" y="-414" font-family="Times New Roman,serif" font-size="10.00">wrapperStmt</text>
</g>
<!-- wrapperStmt&#45;&gt;statement -->
<g id="edge76" class="edge">
<title>wrapperStmt&#45;&gt;statement</title>
<path fill="none" stroke="black" d="M232.26,-412.32C222,-409.7 211.23,-405.43 203,-398.5 175.03,-374.93 192.65,-350.57 167,-324.5 165.62,-323.1 164.11,-321.78 162.52,-320.54"/>
<polygon fill="black" stroke="black" points="164.35,-317.55 154.06,-315.03 160.53,-323.42 164.35,-317.55"/>
</g>
</g>
</svg>
