<?xml version="1.0" encoding="UTF-8" standalone="no"?>
<!DOCTYPE svg PUBLIC "-//W3C//DTD SVG 1.1//EN"
 "http://www.w3.org/Graphics/SVG/1.1/DTD/svg11.dtd">
<!-- Generated by graphviz version 2.48.0 (20210717.1556)
 -->
<!-- Title: CxxWeaver_join_point_hierarchy_join_point_hierarchy Pages: 1 -->
<svg width="656pt" height="1433pt"
 viewBox="0.00 0.00 656.00 1433.00" xmlns="http://www.w3.org/2000/svg" xmlns:xlink="http://www.w3.org/1999/xlink">
<g id="graph0" class="graph" transform="scale(1 1) rotate(0) translate(4 1429)">
<title>CxxWeaver_join_point_hierarchy_join_point_hierarchy</title>
<polygon fill="white" stroke="transparent" points="-4,4 -4,-1429 652,-1429 652,4 -4,4"/>
<!-- accessSpecifier -->
<g id="node1" class="node">
<title>accessSpecifier</title>
<polygon fill="#b2dfee" stroke="#b2dfee" points="305,-574 227,-574 227,-555 305,-555 305,-574"/>
<text text-anchor="middle" x="266" y="-562" font-family="Times New Roman,serif" font-size="10.00">accessSpecifier</text>
</g>
<!-- decl -->
<g id="node2" class="node">
<title>decl</title>
<polygon fill="#b2dfee" stroke="#b2dfee" points="155.5,-519 101.5,-519 101.5,-500 155.5,-500 155.5,-519"/>
<text text-anchor="middle" x="128.5" y="-507" font-family="Times New Roman,serif" font-size="10.00">decl</text>
</g>
<!-- accessSpecifier&#45;&gt;decl -->
<g id="edge1" class="edge">
<title>accessSpecifier&#45;&gt;decl</title>
<path fill="none" stroke="black" d="M227.91,-554.94C219.61,-552.47 210.93,-549.62 203,-546.5 186.69,-540.09 169.13,-531.32 155.27,-523.94"/>
<polygon fill="black" stroke="black" points="156.78,-520.77 146.32,-519.09 153.44,-526.93 156.78,-520.77"/>
</g>
<!-- joinpoint -->
<g id="node9" class="node">
<title>joinpoint</title>
<polygon fill="#b2dfee" stroke="#b2dfee" points="54,-278 0,-278 0,-259 54,-259 54,-278"/>
<text text-anchor="middle" x="27" y="-266" font-family="Times New Roman,serif" font-size="10.00">joinpoint</text>
</g>
<!-- decl&#45;&gt;joinpoint -->
<g id="edge19" class="edge">
<title>decl&#45;&gt;joinpoint</title>
<path fill="none" stroke="black" d="M123.48,-499.75C108.5,-463.49 55.86,-335.97 35.82,-287.44"/>
<polygon fill="black" stroke="black" points="39.02,-286.01 31.96,-278.1 32.55,-288.68 39.02,-286.01"/>
</g>
<!-- adjustedType -->
<g id="node3" class="node">
<title>adjustedType</title>
<polygon fill="#b2dfee" stroke="#b2dfee" points="302,-1314 230,-1314 230,-1295 302,-1295 302,-1314"/>
<text text-anchor="middle" x="266" y="-1302" font-family="Times New Roman,serif" font-size="10.00">adjustedType</text>
</g>
<!-- type -->
<g id="node4" class="node">
<title>type</title>
<polygon fill="#b2dfee" stroke="#b2dfee" points="155.5,-1203 101.5,-1203 101.5,-1184 155.5,-1184 155.5,-1203"/>
<text text-anchor="middle" x="128.5" y="-1191" font-family="Times New Roman,serif" font-size="10.00">type</text>
</g>
<!-- adjustedType&#45;&gt;type -->
<g id="edge2" class="edge">
<title>adjustedType&#45;&gt;type</title>
<path fill="none" stroke="black" d="M229.87,-1298.35C220.62,-1295.68 211,-1291.88 203,-1286.5 174.26,-1267.16 151.53,-1233.04 139.34,-1211.94"/>
<polygon fill="black" stroke="black" points="142.29,-1210.04 134.36,-1203.01 136.17,-1213.45 142.29,-1210.04"/>
</g>
<!-- type&#45;&gt;joinpoint -->
<g id="edge63" class="edge">
<title>type&#45;&gt;joinpoint</title>
<path fill="none" stroke="black" d="M126.45,-1183.74C116.8,-1094.05 43.63,-413.8 30.14,-288.36"/>
<polygon fill="black" stroke="black" points="33.6,-287.83 29.05,-278.26 26.64,-288.58 33.6,-287.83"/>
</g>
<!-- arrayAccess -->
<g id="node5" class="node">
<title>arrayAccess</title>
<polygon fill="#b2dfee" stroke="#b2dfee" points="299.5,-759 232.5,-759 232.5,-740 299.5,-740 299.5,-759"/>
<text text-anchor="middle" x="266" y="-747" font-family="Times New Roman,serif" font-size="10.00">arrayAccess</text>
</g>
<!-- expression -->
<g id="node6" class="node">
<title>expression</title>
<polygon fill="#b2dfee" stroke="#b2dfee" points="158,-778 99,-778 99,-759 158,-759 158,-778"/>
<text text-anchor="middle" x="128.5" y="-766" font-family="Times New Roman,serif" font-size="10.00">expression</text>
</g>
<!-- arrayAccess&#45;&gt;expression -->
<g id="edge3" class="edge">
<title>arrayAccess&#45;&gt;expression</title>
<path fill="none" stroke="black" d="M232.2,-754.1C212.99,-756.79 188.62,-760.21 168.44,-763.04"/>
<polygon fill="black" stroke="black" points="167.74,-759.6 158.32,-764.46 168.71,-766.54 167.74,-759.6"/>
</g>
<!-- expression&#45;&gt;joinpoint -->
<g id="edge29" class="edge">
<title>expression&#45;&gt;joinpoint</title>
<path fill="none" stroke="black" d="M125.6,-758.96C113.63,-698.81 48.59,-371.97 31.9,-288.12"/>
<polygon fill="black" stroke="black" points="35.3,-287.27 29.92,-278.14 28.44,-288.63 35.3,-287.27"/>
</g>
<!-- arrayType -->
<g id="node7" class="node">
<title>arrayType</title>
<polygon fill="#b2dfee" stroke="#b2dfee" points="295,-1277 237,-1277 237,-1258 295,-1258 295,-1277"/>
<text text-anchor="middle" x="266" y="-1265" font-family="Times New Roman,serif" font-size="10.00">arrayType</text>
</g>
<!-- arrayType&#45;&gt;type -->
<g id="edge4" class="edge">
<title>arrayType&#45;&gt;type</title>
<path fill="none" stroke="black" d="M236.7,-1261.63C225.83,-1258.78 213.51,-1254.8 203,-1249.5 182.16,-1239 161.28,-1222.35 147.12,-1209.93"/>
<polygon fill="black" stroke="black" points="149.4,-1207.27 139.62,-1203.19 144.72,-1212.48 149.4,-1207.27"/>
</g>
<!-- attribute -->
<g id="node8" class="node">
<title>attribute</title>
<polygon fill="#b2dfee" stroke="#b2dfee" points="155.5,-352 101.5,-352 101.5,-333 155.5,-333 155.5,-352"/>
<text text-anchor="middle" x="128.5" y="-340" font-family="Times New Roman,serif" font-size="10.00">attribute</text>
</g>
<!-- attribute&#45;&gt;joinpoint -->
<g id="edge5" class="edge">
<title>attribute&#45;&gt;joinpoint</title>
<path fill="none" stroke="black" d="M106.33,-332.96C100.85,-330.18 95.07,-326.95 90,-323.5 73.57,-312.32 56.82,-297.2 44.88,-285.63"/>
<polygon fill="black" stroke="black" points="47.02,-282.83 37.44,-278.29 42.1,-287.81 47.02,-282.83"/>
</g>
<!-- binaryOp -->
<g id="node10" class="node">
<title>binaryOp</title>
<polygon fill="#b2dfee" stroke="#b2dfee" points="438,-796 384,-796 384,-777 438,-777 438,-796"/>
<text text-anchor="middle" x="411" y="-784" font-family="Times New Roman,serif" font-size="10.00">binaryOp</text>
</g>
<!-- op -->
<g id="node11" class="node">
<title>op</title>
<polygon fill="#b2dfee" stroke="#b2dfee" points="293,-722 239,-722 239,-703 293,-703 293,-722"/>
<text text-anchor="middle" x="266" y="-710" font-family="Times New Roman,serif" font-size="10.00">op</text>
</g>
<!-- binaryOp&#45;&gt;op -->
<g id="edge6" class="edge">
<title>binaryOp&#45;&gt;op</title>
<path fill="none" stroke="black" d="M383.84,-778.18C377.41,-775.56 370.73,-772.34 365,-768.5 345.93,-755.74 348.58,-743.46 329,-731.5 321.11,-726.68 311.91,-723 303.04,-720.22"/>
<polygon fill="black" stroke="black" points="303.84,-716.81 293.26,-717.46 301.93,-723.55 303.84,-716.81"/>
</g>
<!-- op&#45;&gt;expression -->
<g id="edge45" class="edge">
<title>op&#45;&gt;expression</title>
<path fill="none" stroke="black" d="M238.72,-719.49C227.55,-722.73 214.49,-726.89 203,-731.5 186.74,-738.03 169.18,-746.8 155.3,-754.16"/>
<polygon fill="black" stroke="black" points="153.49,-751.16 146.35,-758.99 156.81,-757.33 153.49,-751.16"/>
</g>
<!-- body -->
<g id="node12" class="node">
<title>body</title>
<polygon fill="#b2dfee" stroke="#b2dfee" points="438,-204 384,-204 384,-185 438,-185 438,-204"/>
<text text-anchor="middle" x="411" y="-192" font-family="Times New Roman,serif" font-size="10.00">body</text>
</g>
<!-- scope -->
<g id="node13" class="node">
<title>scope</title>
<polygon fill="#b2dfee" stroke="#b2dfee" points="293,-204 239,-204 239,-185 293,-185 293,-204"/>
<text text-anchor="middle" x="266" y="-192" font-family="Times New Roman,serif" font-size="10.00">scope</text>
</g>
<!-- body&#45;&gt;scope -->
<g id="edge7" class="edge">
<title>body&#45;&gt;scope</title>
<path fill="none" stroke="black" d="M383.77,-194.5C361.2,-194.5 328.39,-194.5 303.29,-194.5"/>
<polygon fill="black" stroke="black" points="303.06,-191 293.06,-194.5 303.06,-198 303.06,-191"/>
</g>
<!-- statement -->
<g id="node17" class="node">
<title>statement</title>
<polygon fill="#b2dfee" stroke="#b2dfee" points="156.5,-315 100.5,-315 100.5,-296 156.5,-296 156.5,-315"/>
<text text-anchor="middle" x="128.5" y="-303" font-family="Times New Roman,serif" font-size="10.00">statement</text>
</g>
<!-- scope&#45;&gt;statement -->
<g id="edge54" class="edge">
<title>scope&#45;&gt;statement</title>
<path fill="none" stroke="black" d="M238.88,-197.18C226.84,-199.56 213.03,-204.05 203,-212.5 175.03,-236.07 192.65,-260.43 167,-286.5 165.62,-287.9 164.11,-289.22 162.52,-290.46"/>
<polygon fill="black" stroke="black" points="160.53,-287.58 154.06,-295.97 164.35,-293.45 160.53,-287.58"/>
</g>
<!-- builtinType -->
<g id="node14" class="node">
<title>builtinType</title>
<polygon fill="#b2dfee" stroke="#b2dfee" points="297.5,-1240 234.5,-1240 234.5,-1221 297.5,-1221 297.5,-1240"/>
<text text-anchor="middle" x="266" y="-1228" font-family="Times New Roman,serif" font-size="10.00">builtinType</text>
</g>
<!-- builtinType&#45;&gt;type -->
<g id="edge8" class="edge">
<title>builtinType&#45;&gt;type</title>
<path fill="none" stroke="black" d="M234.25,-1222.1C213.76,-1216.51 186.75,-1209.13 165.3,-1203.27"/>
<polygon fill="black" stroke="black" points="166.13,-1199.88 155.57,-1200.62 164.29,-1206.63 166.13,-1199.88"/>
</g>
<!-- call -->
<g id="node15" class="node">
<title>call</title>
<polygon fill="#b2dfee" stroke="#b2dfee" points="293,-685 239,-685 239,-666 293,-666 293,-685"/>
<text text-anchor="middle" x="266" y="-673" font-family="Times New Roman,serif" font-size="10.00">call</text>
</g>
<!-- call&#45;&gt;expression -->
<g id="edge9" class="edge">
<title>call&#45;&gt;expression</title>
<path fill="none" stroke="black" d="M238.77,-680.51C227.25,-683.45 213.89,-687.93 203,-694.5 178.45,-709.32 156.14,-734.13 142.7,-750.89"/>
<polygon fill="black" stroke="black" points="139.9,-748.79 136.51,-758.83 145.42,-753.09 139.9,-748.79"/>
</g>
<!-- case -->
<g id="node16" class="node">
<title>case</title>
<polygon fill="#b2dfee" stroke="#b2dfee" points="293,-167 239,-167 239,-148 293,-148 293,-167"/>
<text text-anchor="middle" x="266" y="-155" font-family="Times New Roman,serif" font-size="10.00">case</text>
</g>
<!-- case&#45;&gt;statement -->
<g id="edge10" class="edge">
<title>case&#45;&gt;statement</title>
<path fill="none" stroke="black" d="M238.96,-159.47C226.65,-161.67 212.58,-166.22 203,-175.5 165.76,-211.6 200.72,-247.09 167,-286.5 165.99,-287.68 164.89,-288.79 163.72,-289.84"/>
<polygon fill="black" stroke="black" points="161.34,-287.24 155.25,-295.91 165.42,-292.94 161.34,-287.24"/>
</g>
<!-- statement&#45;&gt;joinpoint -->
<g id="edge55" class="edge">
<title>statement&#45;&gt;joinpoint</title>
<path fill="none" stroke="black" d="M101.88,-295.97C90.13,-291.6 76.02,-286.36 63.29,-281.62"/>
<polygon fill="black" stroke="black" points="64.48,-278.33 53.88,-278.12 62.04,-284.89 64.48,-278.33"/>
</g>
<!-- cast -->
<g id="node18" class="node">
<title>cast</title>
<polygon fill="#b2dfee" stroke="#b2dfee" points="293,-648 239,-648 239,-629 293,-629 293,-648"/>
<text text-anchor="middle" x="266" y="-636" font-family="Times New Roman,serif" font-size="10.00">cast</text>
</g>
<!-- cast&#45;&gt;expression -->
<g id="edge11" class="edge">
<title>cast&#45;&gt;expression</title>
<path fill="none" stroke="black" d="M238.73,-642.39C226.94,-645.13 213.37,-649.75 203,-657.5 170.6,-681.71 148.15,-724.69 137.19,-749.47"/>
<polygon fill="black" stroke="black" points="133.88,-748.29 133.2,-758.86 140.33,-751.02 133.88,-748.29"/>
</g>
<!-- cilkFor -->
<g id="node19" class="node">
<title>cilkFor</title>
<polygon fill="#b2dfee" stroke="#b2dfee" points="438,-130 384,-130 384,-111 438,-111 438,-130"/>
<text text-anchor="middle" x="411" y="-118" font-family="Times New Roman,serif" font-size="10.00">cilkFor</text>
</g>
<!-- loop -->
<g id="node20" class="node">
<title>loop</title>
<polygon fill="#b2dfee" stroke="#b2dfee" points="293,-130 239,-130 239,-111 293,-111 293,-130"/>
<text text-anchor="middle" x="266" y="-118" font-family="Times New Roman,serif" font-size="10.00">loop</text>
</g>
<!-- cilkFor&#45;&gt;loop -->
<g id="edge12" class="edge">
<title>cilkFor&#45;&gt;loop</title>
<path fill="none" stroke="black" d="M383.77,-120.5C361.2,-120.5 328.39,-120.5 303.29,-120.5"/>
<polygon fill="black" stroke="black" points="303.06,-117 293.06,-120.5 303.06,-124 303.06,-117"/>
</g>
<!-- loop&#45;&gt;statement -->
<g id="edge37" class="edge">
<title>loop&#45;&gt;statement</title>
<path fill="none" stroke="black" d="M238.97,-122.12C226.5,-124.22 212.3,-128.78 203,-138.5 156.2,-187.41 209.05,-233.45 167,-286.5 166.06,-287.68 165.04,-288.79 163.94,-289.84"/>
<polygon fill="black" stroke="black" points="161.78,-287.09 155.86,-295.88 165.97,-292.69 161.78,-287.09"/>
</g>
<!-- cilkSpawn -->
<g id="node21" class="node">
<title>cilkSpawn</title>
<polygon fill="#b2dfee" stroke="#b2dfee" points="439.5,-685 382.5,-685 382.5,-666 439.5,-666 439.5,-685"/>
<text text-anchor="middle" x="411" y="-673" font-family="Times New Roman,serif" font-size="10.00">cilkSpawn</text>
</g>
<!-- cilkSpawn&#45;&gt;call -->
<g id="edge13" class="edge">
<title>cilkSpawn&#45;&gt;call</title>
<path fill="none" stroke="black" d="M382.43,-675.5C359.85,-675.5 327.72,-675.5 303.09,-675.5"/>
<polygon fill="black" stroke="black" points="303.04,-672 293.04,-675.5 303.04,-679 303.04,-672"/>
</g>
<!-- cilkSync -->
<g id="node22" class="node">
<title>cilkSync</title>
<polygon fill="#b2dfee" stroke="#b2dfee" points="293,-389 239,-389 239,-370 293,-370 293,-389"/>
<text text-anchor="middle" x="266" y="-377" font-family="Times New Roman,serif" font-size="10.00">cilkSync</text>
</g>
<!-- cilkSync&#45;&gt;statement -->
<g id="edge14" class="edge">
<title>cilkSync&#45;&gt;statement</title>
<path fill="none" stroke="black" d="M238.7,-375.1C227.16,-372.37 213.81,-368.09 203,-361.5 183.14,-349.39 185.8,-337.21 167,-323.5 165.38,-322.32 163.67,-321.18 161.91,-320.1"/>
<polygon fill="black" stroke="black" points="163.31,-316.87 152.86,-315.08 159.92,-322.99 163.31,-316.87"/>
</g>
<!-- class -->
<g id="node23" class="node">
<title>class</title>
<polygon fill="#b2dfee" stroke="#b2dfee" points="552.5,-611 498.5,-611 498.5,-592 552.5,-592 552.5,-611"/>
<text text-anchor="middle" x="525.5" y="-599" font-family="Times New Roman,serif" font-size="10.00">class</text>
</g>
<!-- record -->
<g id="node24" class="node">
<title>record</title>
<polygon fill="#b2dfee" stroke="#b2dfee" points="438,-574 384,-574 384,-555 438,-555 438,-574"/>
<text text-anchor="middle" x="411" y="-562" font-family="Times New Roman,serif" font-size="10.00">record</text>
</g>
<!-- class&#45;&gt;record -->
<g id="edge15" class="edge">
<title>class&#45;&gt;record</title>
<path fill="none" stroke="black" d="M498.41,-592.92C483.46,-588 464.49,-581.76 448.13,-576.38"/>
<polygon fill="black" stroke="black" points="448.93,-572.96 438.34,-573.16 446.75,-579.61 448.93,-572.96"/>
</g>
<!-- namedDecl -->
<g id="node30" class="node">
<title>namedDecl</title>
<polygon fill="#b2dfee" stroke="#b2dfee" points="296.5,-537 235.5,-537 235.5,-518 296.5,-518 296.5,-537"/>
<text text-anchor="middle" x="266" y="-525" font-family="Times New Roman,serif" font-size="10.00">namedDecl</text>
</g>
<!-- record&#45;&gt;namedDecl -->
<g id="edge52" class="edge">
<title>record&#45;&gt;namedDecl</title>
<path fill="none" stroke="black" d="M383.77,-557.71C362.09,-552.1 330.96,-544.05 306.3,-537.67"/>
<polygon fill="black" stroke="black" points="307.07,-534.25 296.52,-535.14 305.32,-541.03 307.07,-534.25"/>
</g>
<!-- clavaException -->
<g id="node25" class="node">
<title>clavaException</title>
<polygon fill="#b2dfee" stroke="#b2dfee" points="167,-278 90,-278 90,-259 167,-259 167,-278"/>
<text text-anchor="middle" x="128.5" y="-266" font-family="Times New Roman,serif" font-size="10.00">clavaException</text>
</g>
<!-- clavaException&#45;&gt;joinpoint -->
<g id="edge16" class="edge">
<title>clavaException&#45;&gt;joinpoint</title>
<path fill="none" stroke="black" d="M89.88,-268.5C81.53,-268.5 72.68,-268.5 64.37,-268.5"/>
<polygon fill="black" stroke="black" points="64.22,-265 54.22,-268.5 64.22,-272 64.22,-265"/>
</g>
<!-- comment -->
<g id="node26" class="node">
<title>comment</title>
<polygon fill="#b2dfee" stroke="#b2dfee" points="155.5,-241 101.5,-241 101.5,-222 155.5,-222 155.5,-241"/>
<text text-anchor="middle" x="128.5" y="-229" font-family="Times New Roman,serif" font-size="10.00">comment</text>
</g>
<!-- comment&#45;&gt;joinpoint -->
<g id="edge17" class="edge">
<title>comment&#45;&gt;joinpoint</title>
<path fill="none" stroke="black" d="M101.88,-241.03C90.13,-245.4 76.02,-250.64 63.29,-255.38"/>
<polygon fill="black" stroke="black" points="62.04,-252.11 53.88,-258.88 64.48,-258.67 62.04,-252.11"/>
</g>
<!-- cudaKernelCall -->
<g id="node27" class="node">
<title>cudaKernelCall</title>
<polygon fill="#b2dfee" stroke="#b2dfee" points="449.5,-648 372.5,-648 372.5,-629 449.5,-629 449.5,-648"/>
<text text-anchor="middle" x="411" y="-636" font-family="Times New Roman,serif" font-size="10.00">cudaKernelCall</text>
</g>
<!-- cudaKernelCall&#45;&gt;call -->
<g id="edge18" class="edge">
<title>cudaKernelCall&#45;&gt;call</title>
<path fill="none" stroke="black" d="M373.17,-648.03C351.6,-653.61 324.47,-660.63 303.03,-666.18"/>
<polygon fill="black" stroke="black" points="302.12,-662.8 293.32,-668.69 303.88,-669.57 302.12,-662.8"/>
</g>
<!-- declStmt -->
<g id="node28" class="node">
<title>declStmt</title>
<polygon fill="#b2dfee" stroke="#b2dfee" points="293,-352 239,-352 239,-333 293,-333 293,-352"/>
<text text-anchor="middle" x="266" y="-340" font-family="Times New Roman,serif" font-size="10.00">declStmt</text>
</g>
<!-- declStmt&#45;&gt;statement -->
<g id="edge20" class="edge">
<title>declStmt&#45;&gt;statement</title>
<path fill="none" stroke="black" d="M238.87,-335.37C218.38,-329.77 189.58,-321.9 166.67,-315.65"/>
<polygon fill="black" stroke="black" points="167.51,-312.25 156.94,-312.99 165.67,-319 167.51,-312.25"/>
</g>
<!-- declarator -->
<g id="node29" class="node">
<title>declarator</title>
<polygon fill="#b2dfee" stroke="#b2dfee" points="439,-537 383,-537 383,-518 439,-518 439,-537"/>
<text text-anchor="middle" x="411" y="-525" font-family="Times New Roman,serif" font-size="10.00">declarator</text>
</g>
<!-- declarator&#45;&gt;namedDecl -->
<g id="edge21" class="edge">
<title>declarator&#45;&gt;namedDecl</title>
<path fill="none" stroke="black" d="M382.77,-527.5C361.31,-527.5 331.08,-527.5 306.89,-527.5"/>
<polygon fill="black" stroke="black" points="306.6,-524 296.6,-527.5 306.6,-531 306.6,-524"/>
</g>
<!-- namedDecl&#45;&gt;decl -->
<g id="edge42" class="edge">
<title>namedDecl&#45;&gt;decl</title>
<path fill="none" stroke="black" d="M235.26,-523.55C214.78,-520.83 187.44,-517.2 165.68,-514.31"/>
<polygon fill="black" stroke="black" points="165.88,-510.8 155.51,-512.96 164.96,-517.74 165.88,-510.8"/>
</g>
<!-- deleteExpr -->
<g id="node31" class="node">
<title>deleteExpr</title>
<polygon fill="#b2dfee" stroke="#b2dfee" points="295,-611 237,-611 237,-592 295,-592 295,-611"/>
<text text-anchor="middle" x="266" y="-599" font-family="Times New Roman,serif" font-size="10.00">deleteExpr</text>
</g>
<!-- deleteExpr&#45;&gt;expression -->
<g id="edge22" class="edge">
<title>deleteExpr&#45;&gt;expression</title>
<path fill="none" stroke="black" d="M236.72,-605.17C225.22,-607.85 212.44,-612.49 203,-620.5 162.3,-655.03 141.93,-717.55 133.85,-749.13"/>
<polygon fill="black" stroke="black" points="130.43,-748.37 131.48,-758.91 137.23,-750.01 130.43,-748.37"/>
</g>
<!-- elaboratedType -->
<g id="node32" class="node">
<title>elaboratedType</title>
<polygon fill="#b2dfee" stroke="#b2dfee" points="306,-1203 226,-1203 226,-1184 306,-1184 306,-1203"/>
<text text-anchor="middle" x="266" y="-1191" font-family="Times New Roman,serif" font-size="10.00">elaboratedType</text>
</g>
<!-- elaboratedType&#45;&gt;type -->
<g id="edge23" class="edge">
<title>elaboratedType&#45;&gt;type</title>
<path fill="none" stroke="black" d="M225.81,-1193.5C206.9,-1193.5 184.37,-1193.5 165.85,-1193.5"/>
<polygon fill="black" stroke="black" points="165.75,-1190 155.75,-1193.5 165.75,-1197 165.75,-1190"/>
</g>
<!-- empty -->
<g id="node33" class="node">
<title>empty</title>
<polygon fill="#b2dfee" stroke="#b2dfee" points="155.5,-204 101.5,-204 101.5,-185 155.5,-185 155.5,-204"/>
<text text-anchor="middle" x="128.5" y="-192" font-family="Times New Roman,serif" font-size="10.00">empty</text>
</g>
<!-- empty&#45;&gt;joinpoint -->
<g id="edge24" class="edge">
<title>empty&#45;&gt;joinpoint</title>
<path fill="none" stroke="black" d="M104.71,-204.15C99.71,-206.61 94.56,-209.44 90,-212.5 73.01,-223.9 55.91,-239.75 43.99,-251.67"/>
<polygon fill="black" stroke="black" points="41.45,-249.27 36.95,-258.86 46.45,-254.16 41.45,-249.27"/>
</g>
<!-- enumDecl -->
<g id="node34" class="node">
<title>enumDecl</title>
<polygon fill="#b2dfee" stroke="#b2dfee" points="439,-500 383,-500 383,-481 439,-481 439,-500"/>
<text text-anchor="middle" x="411" y="-488" font-family="Times New Roman,serif" font-size="10.00">enumDecl</text>
</g>
<!-- enumDecl&#45;&gt;namedDecl -->
<g id="edge25" class="edge">
<title>enumDecl&#45;&gt;namedDecl</title>
<path fill="none" stroke="black" d="M382.77,-497.55C361.21,-503.12 330.81,-510.99 306.57,-517.26"/>
<polygon fill="black" stroke="black" points="305.4,-513.95 296.6,-519.84 307.16,-520.73 305.4,-513.95"/>
</g>
<!-- enumType -->
<g id="node35" class="node">
<title>enumType</title>
<polygon fill="#b2dfee" stroke="#b2dfee" points="440.5,-1166 381.5,-1166 381.5,-1147 440.5,-1147 440.5,-1166"/>
<text text-anchor="middle" x="411" y="-1154" font-family="Times New Roman,serif" font-size="10.00">enumType</text>
</g>
<!-- tagType -->
<g id="node36" class="node">
<title>tagType</title>
<polygon fill="#b2dfee" stroke="#b2dfee" points="293,-1166 239,-1166 239,-1147 293,-1147 293,-1166"/>
<text text-anchor="middle" x="266" y="-1154" font-family="Times New Roman,serif" font-size="10.00">tagType</text>
</g>
<!-- enumType&#45;&gt;tagType -->
<g id="edge26" class="edge">
<title>enumType&#45;&gt;tagType</title>
<path fill="none" stroke="black" d="M381.41,-1156.5C358.97,-1156.5 327.59,-1156.5 303.37,-1156.5"/>
<polygon fill="black" stroke="black" points="303.14,-1153 293.14,-1156.5 303.14,-1160 303.14,-1153"/>
</g>
<!-- tagType&#45;&gt;type -->
<g id="edge59" class="edge">
<title>tagType&#45;&gt;type</title>
<path fill="none" stroke="black" d="M238.87,-1163.63C217.97,-1169.34 188.44,-1177.4 165.33,-1183.72"/>
<polygon fill="black" stroke="black" points="164.27,-1180.38 155.55,-1186.39 166.11,-1187.13 164.27,-1180.38"/>
</g>
<!-- enumeratorDecl -->
<g id="node37" class="node">
<title>enumeratorDecl</title>
<polygon fill="#b2dfee" stroke="#b2dfee" points="451,-463 371,-463 371,-444 451,-444 451,-463"/>
<text text-anchor="middle" x="411" y="-451" font-family="Times New Roman,serif" font-size="10.00">enumeratorDecl</text>
</g>
<!-- enumeratorDecl&#45;&gt;namedDecl -->
<g id="edge27" class="edge">
<title>enumeratorDecl&#45;&gt;namedDecl</title>
<path fill="none" stroke="black" d="M382.44,-463.08C376.45,-465.71 370.32,-468.86 365,-472.5 346.05,-485.44 348.67,-497.69 329,-509.5 322.11,-513.64 314.21,-516.87 306.42,-519.38"/>
<polygon fill="black" stroke="black" points="305.32,-516.05 296.68,-522.19 307.25,-522.78 305.32,-516.05"/>
</g>
<!-- exprStmt -->
<g id="node38" class="node">
<title>exprStmt</title>
<polygon fill="#b2dfee" stroke="#b2dfee" points="293,-315 239,-315 239,-296 293,-296 293,-315"/>
<text text-anchor="middle" x="266" y="-303" font-family="Times New Roman,serif" font-size="10.00">exprStmt</text>
</g>
<!-- exprStmt&#45;&gt;statement -->
<g id="edge28" class="edge">
<title>exprStmt&#45;&gt;statement</title>
<path fill="none" stroke="black" d="M238.87,-305.5C218.47,-305.5 189.83,-305.5 166.98,-305.5"/>
<polygon fill="black" stroke="black" points="166.94,-302 156.94,-305.5 166.94,-309 166.94,-302"/>
</g>
<!-- field -->
<g id="node39" class="node">
<title>field</title>
<polygon fill="#b2dfee" stroke="#b2dfee" points="552.5,-537 498.5,-537 498.5,-518 552.5,-518 552.5,-537"/>
<text text-anchor="middle" x="525.5" y="-525" font-family="Times New Roman,serif" font-size="10.00">field</text>
</g>
<!-- field&#45;&gt;declarator -->
<g id="edge30" class="edge">
<title>field&#45;&gt;declarator</title>
<path fill="none" stroke="black" d="M498.41,-527.5C483.82,-527.5 465.39,-527.5 449.3,-527.5"/>
<polygon fill="black" stroke="black" points="449.13,-524 439.13,-527.5 449.13,-531 449.13,-524"/>
</g>
<!-- file -->
<g id="node40" class="node">
<title>file</title>
<polygon fill="#b2dfee" stroke="#b2dfee" points="155.5,-167 101.5,-167 101.5,-148 155.5,-148 155.5,-167"/>
<text text-anchor="middle" x="128.5" y="-155" font-family="Times New Roman,serif" font-size="10.00">file</text>
</g>
<!-- file&#45;&gt;joinpoint -->
<g id="edge31" class="edge">
<title>file&#45;&gt;joinpoint</title>
<path fill="none" stroke="black" d="M102.53,-167.15C98.09,-169.5 93.71,-172.28 90,-175.5 65.81,-196.51 47.03,-229.1 36.75,-249.6"/>
<polygon fill="black" stroke="black" points="33.48,-248.31 32.28,-258.84 39.79,-251.36 33.48,-248.31"/>
</g>
<!-- function -->
<g id="node41" class="node">
<title>function</title>
<polygon fill="#b2dfee" stroke="#b2dfee" points="552.5,-500 498.5,-500 498.5,-481 552.5,-481 552.5,-500"/>
<text text-anchor="middle" x="525.5" y="-488" font-family="Times New Roman,serif" font-size="10.00">function</text>
</g>
<!-- function&#45;&gt;declarator -->
<g id="edge32" class="edge">
<title>function&#45;&gt;declarator</title>
<path fill="none" stroke="black" d="M498.41,-499.08C483.68,-503.93 465.03,-510.06 448.84,-515.38"/>
<polygon fill="black" stroke="black" points="447.53,-512.13 439.13,-518.58 449.72,-518.78 447.53,-512.13"/>
</g>
<!-- functionType -->
<g id="node42" class="node">
<title>functionType</title>
<polygon fill="#b2dfee" stroke="#b2dfee" points="301.5,-1129 230.5,-1129 230.5,-1110 301.5,-1110 301.5,-1129"/>
<text text-anchor="middle" x="266" y="-1117" font-family="Times New Roman,serif" font-size="10.00">functionType</text>
</g>
<!-- functionType&#45;&gt;type -->
<g id="edge33" class="edge">
<title>functionType&#45;&gt;type</title>
<path fill="none" stroke="black" d="M230.39,-1127.81C221.23,-1130.62 211.53,-1134.17 203,-1138.5 182.57,-1148.88 161.9,-1164.95 147.71,-1177.04"/>
<polygon fill="black" stroke="black" points="145.39,-1174.42 140.15,-1183.63 149.99,-1179.7 145.39,-1174.42"/>
</g>
<!-- if -->
<g id="node43" class="node">
<title>if</title>
<polygon fill="#b2dfee" stroke="#b2dfee" points="293,-278 239,-278 239,-259 293,-259 293,-278"/>
<text text-anchor="middle" x="266" y="-266" font-family="Times New Roman,serif" font-size="10.00">if</text>
</g>
<!-- if&#45;&gt;statement -->
<g id="edge34" class="edge">
<title>if&#45;&gt;statement</title>
<path fill="none" stroke="black" d="M238.87,-275.63C218.38,-281.23 189.58,-289.1 166.67,-295.35"/>
<polygon fill="black" stroke="black" points="165.67,-292 156.94,-298.01 167.51,-298.75 165.67,-292"/>
</g>
<!-- include -->
<g id="node44" class="node">
<title>include</title>
<polygon fill="#b2dfee" stroke="#b2dfee" points="293,-500 239,-500 239,-481 293,-481 293,-500"/>
<text text-anchor="middle" x="266" y="-488" font-family="Times New Roman,serif" font-size="10.00">include</text>
</g>
<!-- include&#45;&gt;decl -->
<g id="edge35" class="edge">
<title>include&#45;&gt;decl</title>
<path fill="none" stroke="black" d="M238.87,-494.16C218.07,-497.08 188.71,-501.2 165.65,-504.43"/>
<polygon fill="black" stroke="black" points="164.96,-500.99 155.55,-505.85 165.93,-507.93 164.96,-500.99"/>
</g>
<!-- literal -->
<g id="node45" class="node">
<title>literal</title>
<polygon fill="#b2dfee" stroke="#b2dfee" points="293,-981 239,-981 239,-962 293,-962 293,-981"/>
<text text-anchor="middle" x="266" y="-969" font-family="Times New Roman,serif" font-size="10.00">literal</text>
</g>
<!-- literal&#45;&gt;expression -->
<g id="edge36" class="edge">
<title>literal&#45;&gt;expression</title>
<path fill="none" stroke="black" d="M238.91,-969.2C226.73,-966.91 212.79,-962.39 203,-953.5 153.63,-908.64 136.92,-826.25 131.69,-788.43"/>
<polygon fill="black" stroke="black" points="135.13,-787.7 130.41,-778.21 128.18,-788.57 135.13,-787.7"/>
</g>
<!-- marker -->
<g id="node46" class="node">
<title>marker</title>
<polygon fill="#b2dfee" stroke="#b2dfee" points="293,-93 239,-93 239,-74 293,-74 293,-93"/>
<text text-anchor="middle" x="266" y="-81" font-family="Times New Roman,serif" font-size="10.00">marker</text>
</g>
<!-- pragma -->
<g id="node47" class="node">
<title>pragma</title>
<polygon fill="#b2dfee" stroke="#b2dfee" points="155.5,-93 101.5,-93 101.5,-74 155.5,-74 155.5,-93"/>
<text text-anchor="middle" x="128.5" y="-81" font-family="Times New Roman,serif" font-size="10.00">pragma</text>
</g>
<!-- marker&#45;&gt;pragma -->
<g id="edge38" class="edge">
<title>marker&#45;&gt;pragma</title>
<path fill="none" stroke="black" d="M238.87,-83.5C218.07,-83.5 188.71,-83.5 165.65,-83.5"/>
<polygon fill="black" stroke="black" points="165.55,-80 155.55,-83.5 165.55,-87 165.55,-80"/>
</g>
<!-- pragma&#45;&gt;joinpoint -->
<g id="edge49" class="edge">
<title>pragma&#45;&gt;joinpoint</title>
<path fill="none" stroke="black" d="M120.11,-93.34C112.18,-104.12 99.45,-122.07 90,-138.5 68.09,-176.61 47.04,-223.67 36,-249.43"/>
<polygon fill="black" stroke="black" points="32.71,-248.21 32.02,-258.78 39.15,-250.95 32.71,-248.21"/>
</g>
<!-- memberAccess -->
<g id="node48" class="node">
<title>memberAccess</title>
<polygon fill="#b2dfee" stroke="#b2dfee" points="304.5,-944 227.5,-944 227.5,-925 304.5,-925 304.5,-944"/>
<text text-anchor="middle" x="266" y="-932" font-family="Times New Roman,serif" font-size="10.00">memberAccess</text>
</g>
<!-- memberAccess&#45;&gt;expression -->
<g id="edge39" class="edge">
<title>memberAccess&#45;&gt;expression</title>
<path fill="none" stroke="black" d="M227.46,-928.93C218.73,-926.26 209.97,-922.32 203,-916.5 162.04,-882.27 141.8,-819.62 133.79,-787.94"/>
<polygon fill="black" stroke="black" points="137.17,-787.04 131.45,-778.12 130.36,-788.66 137.17,-787.04"/>
</g>
<!-- memberCall -->
<g id="node49" class="node">
<title>memberCall</title>
<polygon fill="#b2dfee" stroke="#b2dfee" points="442,-611 380,-611 380,-592 442,-592 442,-611"/>
<text text-anchor="middle" x="411" y="-599" font-family="Times New Roman,serif" font-size="10.00">memberCall</text>
</g>
<!-- memberCall&#45;&gt;call -->
<g id="edge40" class="edge">
<title>memberCall&#45;&gt;call</title>
<path fill="none" stroke="black" d="M382.44,-611.08C376.45,-613.71 370.32,-616.86 365,-620.5 346.05,-633.44 348.67,-645.69 329,-657.5 321.11,-662.24 311.91,-665.79 303.04,-668.43"/>
<polygon fill="black" stroke="black" points="302.02,-665.07 293.26,-671.03 303.82,-671.84 302.02,-665.07"/>
</g>
<!-- method -->
<g id="node50" class="node">
<title>method</title>
<polygon fill="#b2dfee" stroke="#b2dfee" points="648,-500 594,-500 594,-481 648,-481 648,-500"/>
<text text-anchor="middle" x="621" y="-488" font-family="Times New Roman,serif" font-size="10.00">method</text>
</g>
<!-- method&#45;&gt;function -->
<g id="edge41" class="edge">
<title>method&#45;&gt;function</title>
<path fill="none" stroke="black" d="M593.96,-490.5C584.31,-490.5 573.19,-490.5 562.8,-490.5"/>
<polygon fill="black" stroke="black" points="562.73,-487 552.73,-490.5 562.73,-494 562.73,-487"/>
</g>
<!-- newExpr -->
<g id="node51" class="node">
<title>newExpr</title>
<polygon fill="#b2dfee" stroke="#b2dfee" points="293,-907 239,-907 239,-888 293,-888 293,-907"/>
<text text-anchor="middle" x="266" y="-895" font-family="Times New Roman,serif" font-size="10.00">newExpr</text>
</g>
<!-- newExpr&#45;&gt;expression -->
<g id="edge43" class="edge">
<title>newExpr&#45;&gt;expression</title>
<path fill="none" stroke="black" d="M238.74,-894.08C226.95,-891.55 213.38,-887.14 203,-879.5 170.42,-855.53 148.04,-812.46 137.13,-787.61"/>
<polygon fill="black" stroke="black" points="140.27,-786.04 133.17,-778.18 133.82,-788.75 140.27,-786.04"/>
</g>
<!-- omp -->
<g id="node52" class="node">
<title>omp</title>
<polygon fill="#b2dfee" stroke="#b2dfee" points="293,-56 239,-56 239,-37 293,-37 293,-56"/>
<text text-anchor="middle" x="266" y="-44" font-family="Times New Roman,serif" font-size="10.00">omp</text>
</g>
<!-- omp&#45;&gt;pragma -->
<g id="edge44" class="edge">
<title>omp&#45;&gt;pragma</title>
<path fill="none" stroke="black" d="M238.87,-53.63C217.97,-59.34 188.44,-67.4 165.33,-73.72"/>
<polygon fill="black" stroke="black" points="164.27,-70.38 155.55,-76.39 166.11,-77.13 164.27,-70.38"/>
</g>
<!-- param -->
<g id="node53" class="node">
<title>param</title>
<polygon fill="#b2dfee" stroke="#b2dfee" points="648,-463 594,-463 594,-444 648,-444 648,-463"/>
<text text-anchor="middle" x="621" y="-451" font-family="Times New Roman,serif" font-size="10.00">param</text>
</g>
<!-- vardecl -->
<g id="node54" class="node">
<title>vardecl</title>
<polygon fill="#b2dfee" stroke="#b2dfee" points="552.5,-463 498.5,-463 498.5,-444 552.5,-444 552.5,-463"/>
<text text-anchor="middle" x="525.5" y="-451" font-family="Times New Roman,serif" font-size="10.00">vardecl</text>
</g>
<!-- param&#45;&gt;vardecl -->
<g id="edge46" class="edge">
<title>param&#45;&gt;vardecl</title>
<path fill="none" stroke="black" d="M593.96,-453.5C584.31,-453.5 573.19,-453.5 562.8,-453.5"/>
<polygon fill="black" stroke="black" points="562.73,-450 552.73,-453.5 562.73,-457 562.73,-450"/>
</g>
<!-- vardecl&#45;&gt;declarator -->
<g id="edge70" class="edge">
<title>vardecl&#45;&gt;declarator</title>
<path fill="none" stroke="black" d="M506.64,-463.19C502.04,-465.97 497.2,-469.16 493,-472.5 475.03,-486.76 476.07,-496.74 457,-509.5 454.27,-511.33 451.33,-513.01 448.31,-514.56"/>
<polygon fill="black" stroke="black" points="446.73,-511.43 439.1,-518.79 449.65,-517.79 446.73,-511.43"/>
</g>
<!-- parenType -->
<g id="node55" class="node">
<title>parenType</title>
<polygon fill="#b2dfee" stroke="#b2dfee" points="296,-1092 236,-1092 236,-1073 296,-1073 296,-1092"/>
<text text-anchor="middle" x="266" y="-1080" font-family="Times New Roman,serif" font-size="10.00">parenType</text>
</g>
<!-- parenType&#45;&gt;type -->
<g id="edge47" class="edge">
<title>parenType&#45;&gt;type</title>
<path fill="none" stroke="black" d="M235.94,-1087.6C224.96,-1090.46 212.78,-1094.85 203,-1101.5 174.68,-1120.75 151.96,-1154.19 139.63,-1175.01"/>
<polygon fill="black" stroke="black" points="136.5,-1173.43 134.57,-1183.85 142.58,-1176.91 136.5,-1173.43"/>
</g>
<!-- pointerType -->
<g id="node56" class="node">
<title>pointerType</title>
<polygon fill="#b2dfee" stroke="#b2dfee" points="299,-1055 233,-1055 233,-1036 299,-1036 299,-1055"/>
<text text-anchor="middle" x="266" y="-1043" font-family="Times New Roman,serif" font-size="10.00">pointerType</text>
</g>
<!-- pointerType&#45;&gt;type -->
<g id="edge48" class="edge">
<title>pointerType&#45;&gt;type</title>
<path fill="none" stroke="black" d="M232.82,-1050.49C222.49,-1053.29 211.52,-1057.67 203,-1064.5 166.6,-1093.64 144.94,-1146.01 135.37,-1174.23"/>
<polygon fill="black" stroke="black" points="132.03,-1173.17 132.28,-1183.76 138.69,-1175.33 132.03,-1173.17"/>
</g>
<!-- program -->
<g id="node57" class="node">
<title>program</title>
<polygon fill="#b2dfee" stroke="#b2dfee" points="155.5,-56 101.5,-56 101.5,-37 155.5,-37 155.5,-56"/>
<text text-anchor="middle" x="128.5" y="-44" font-family="Times New Roman,serif" font-size="10.00">program</text>
</g>
<!-- program&#45;&gt;joinpoint -->
<g id="edge50" class="edge">
<title>program&#45;&gt;joinpoint</title>
<path fill="none" stroke="black" d="M101.32,-55.55C97.1,-57.93 93.1,-60.88 90,-64.5 43.05,-119.22 31.65,-208.76 28.89,-248.46"/>
<polygon fill="black" stroke="black" points="25.38,-248.5 28.29,-258.68 32.37,-248.9 25.38,-248.5"/>
</g>
<!-- qualType -->
<g id="node58" class="node">
<title>qualType</title>
<polygon fill="#b2dfee" stroke="#b2dfee" points="293.5,-1018 238.5,-1018 238.5,-999 293.5,-999 293.5,-1018"/>
<text text-anchor="middle" x="266" y="-1006" font-family="Times New Roman,serif" font-size="10.00">qualType</text>
</g>
<!-- qualType&#45;&gt;type -->
<g id="edge51" class="edge">
<title>qualType&#45;&gt;type</title>
<path fill="none" stroke="black" d="M238.42,-1011.56C226.41,-1014.12 212.77,-1018.83 203,-1027.5 158.32,-1067.14 139.52,-1139.05 132.76,-1173.73"/>
<polygon fill="black" stroke="black" points="129.31,-1173.14 130.97,-1183.6 136.2,-1174.39 129.31,-1173.14"/>
</g>
<!-- returnStmt -->
<g id="node59" class="node">
<title>returnStmt</title>
<polygon fill="#b2dfee" stroke="#b2dfee" points="295.5,-241 236.5,-241 236.5,-222 295.5,-222 295.5,-241"/>
<text text-anchor="middle" x="266" y="-229" font-family="Times New Roman,serif" font-size="10.00">returnStmt</text>
</g>
<!-- returnStmt&#45;&gt;statement -->
<g id="edge53" class="edge">
<title>returnStmt&#45;&gt;statement</title>
<path fill="none" stroke="black" d="M236.26,-236.58C225.33,-239.32 213.09,-243.44 203,-249.5 183.33,-261.31 185.48,-272.91 167,-286.5 164.94,-288.01 162.75,-289.47 160.49,-290.85"/>
<polygon fill="black" stroke="black" points="158.65,-287.87 151.63,-295.81 162.07,-293.98 158.65,-287.87"/>
</g>
<!-- struct -->
<g id="node60" class="node">
<title>struct</title>
<polygon fill="#b2dfee" stroke="#b2dfee" points="552.5,-574 498.5,-574 498.5,-555 552.5,-555 552.5,-574"/>
<text text-anchor="middle" x="525.5" y="-562" font-family="Times New Roman,serif" font-size="10.00">struct</text>
</g>
<!-- struct&#45;&gt;record -->
<g id="edge56" class="edge">
<title>struct&#45;&gt;record</title>
<path fill="none" stroke="black" d="M498.41,-564.5C483.61,-564.5 464.85,-564.5 448.59,-564.5"/>
<polygon fill="black" stroke="black" points="448.34,-561 438.34,-564.5 448.34,-568 448.34,-561"/>
</g>
<!-- switch -->
<g id="node61" class="node">
<title>switch</title>
<polygon fill="#b2dfee" stroke="#b2dfee" points="293,-463 239,-463 239,-444 293,-444 293,-463"/>
<text text-anchor="middle" x="266" y="-451" font-family="Times New Roman,serif" font-size="10.00">switch</text>
</g>
<!-- switch&#45;&gt;statement -->
<g id="edge57" class="edge">
<title>switch&#45;&gt;statement</title>
<path fill="none" stroke="black" d="M238.95,-451.54C226.63,-449.34 212.56,-444.8 203,-435.5 165.51,-399.06 201.36,-362.91 167,-323.5 166.26,-322.66 165.48,-321.85 164.66,-321.08"/>
<polygon fill="black" stroke="black" points="166.53,-318.11 156.4,-315.03 162.4,-323.76 166.53,-318.11"/>
</g>
<!-- tag -->
<g id="node62" class="node">
<title>tag</title>
<polygon fill="#b2dfee" stroke="#b2dfee" points="293,-19 239,-19 239,0 293,0 293,-19"/>
<text text-anchor="middle" x="266" y="-7" font-family="Times New Roman,serif" font-size="10.00">tag</text>
</g>
<!-- tag&#45;&gt;pragma -->
<g id="edge58" class="edge">
<title>tag&#45;&gt;pragma</title>
<path fill="none" stroke="black" d="M238.74,-13.97C227.21,-16.71 213.86,-20.98 203,-27.5 183.33,-39.31 185.48,-50.91 167,-64.5 164.94,-66.01 162.75,-67.47 160.49,-68.85"/>
<polygon fill="black" stroke="black" points="158.65,-65.87 151.63,-73.81 162.07,-71.98 158.65,-65.87"/>
</g>
<!-- templateSpecializationType -->
<g id="node63" class="node">
<title>templateSpecializationType</title>
<polygon fill="#b2dfee" stroke="#b2dfee" points="329,-1425 203,-1425 203,-1406 329,-1406 329,-1425"/>
<text text-anchor="middle" x="266" y="-1413" font-family="Times New Roman,serif" font-size="10.00">templateSpecializationType</text>
</g>
<!-- templateSpecializationType&#45;&gt;type -->
<g id="edge60" class="edge">
<title>templateSpecializationType&#45;&gt;type</title>
<path fill="none" stroke="black" d="M215.26,-1405.86C210.79,-1403.62 206.6,-1400.88 203,-1397.5 149.17,-1346.98 134.68,-1254.15 130.85,-1213.48"/>
<polygon fill="black" stroke="black" points="134.32,-1212.94 130.01,-1203.26 127.34,-1213.51 134.32,-1212.94"/>
</g>
<!-- ternaryOp -->
<g id="node64" class="node">
<title>ternaryOp</title>
<polygon fill="#b2dfee" stroke="#b2dfee" points="439.5,-759 382.5,-759 382.5,-740 439.5,-740 439.5,-759"/>
<text text-anchor="middle" x="411" y="-747" font-family="Times New Roman,serif" font-size="10.00">ternaryOp</text>
</g>
<!-- ternaryOp&#45;&gt;op -->
<g id="edge61" class="edge">
<title>ternaryOp&#45;&gt;op</title>
<path fill="none" stroke="black" d="M382.43,-742.37C359.74,-736.5 327.43,-728.14 302.76,-721.75"/>
<polygon fill="black" stroke="black" points="303.6,-718.35 293.04,-719.24 301.85,-725.13 303.6,-718.35"/>
</g>
<!-- this -->
<g id="node65" class="node">
<title>this</title>
<polygon fill="#b2dfee" stroke="#b2dfee" points="293,-870 239,-870 239,-851 293,-851 293,-870"/>
<text text-anchor="middle" x="266" y="-858" font-family="Times New Roman,serif" font-size="10.00">this</text>
</g>
<!-- this&#45;&gt;expression -->
<g id="edge62" class="edge">
<title>this&#45;&gt;expression</title>
<path fill="none" stroke="black" d="M238.77,-855.98C227.25,-853.23 213.89,-848.96 203,-842.5 178.34,-827.86 156.06,-803.01 142.65,-786.19"/>
<polygon fill="black" stroke="black" points="145.37,-783.98 136.48,-778.22 139.84,-788.27 145.37,-783.98"/>
</g>
<!-- typedefDecl -->
<g id="node66" class="node">
<title>typedefDecl</title>
<polygon fill="#b2dfee" stroke="#b2dfee" points="558,-426 493,-426 493,-407 558,-407 558,-426"/>
<text text-anchor="middle" x="525.5" y="-414" font-family="Times New Roman,serif" font-size="10.00">typedefDecl</text>
</g>
<!-- typedefNameDecl -->
<g id="node67" class="node">
<title>typedefNameDecl</title>
<polygon fill="#b2dfee" stroke="#b2dfee" points="455,-426 367,-426 367,-407 455,-407 455,-426"/>
<text text-anchor="middle" x="411" y="-414" font-family="Times New Roman,serif" font-size="10.00">typedefNameDecl</text>
</g>
<!-- typedefDecl&#45;&gt;typedefNameDecl -->
<g id="edge64" class="edge">
<title>typedefDecl&#45;&gt;typedefNameDecl</title>
<path fill="none" stroke="black" d="M492.86,-416.5C484.27,-416.5 474.73,-416.5 465.29,-416.5"/>
<polygon fill="black" stroke="black" points="465.15,-413 455.15,-416.5 465.15,-420 465.15,-413"/>
</g>
<!-- typedefNameDecl&#45;&gt;namedDecl -->
<g id="edge65" class="edge">
<title>typedefNameDecl&#45;&gt;namedDecl</title>
<path fill="none" stroke="black" d="M378.68,-426.23C373.72,-428.71 368.94,-431.77 365,-435.5 338.46,-460.66 356.97,-485.93 329,-509.5 322.54,-514.94 314.51,-518.74 306.4,-521.39"/>
<polygon fill="black" stroke="black" points="305.28,-518.07 296.56,-524.09 307.13,-524.82 305.28,-518.07"/>
</g>
<!-- typedefType -->
<g id="node68" class="node">
<title>typedefType</title>
<polygon fill="#b2dfee" stroke="#b2dfee" points="300,-1388 232,-1388 232,-1369 300,-1369 300,-1388"/>
<text text-anchor="middle" x="266" y="-1376" font-family="Times New Roman,serif" font-size="10.00">typedefType</text>
</g>
<!-- typedefType&#45;&gt;type -->
<g id="edge66" class="edge">
<title>typedefType&#45;&gt;type</title>
<path fill="none" stroke="black" d="M231.78,-1374.42C221.61,-1371.8 211.01,-1367.52 203,-1360.5 157.63,-1320.76 139.09,-1247.76 132.57,-1212.95"/>
<polygon fill="black" stroke="black" points="136.01,-1212.34 130.85,-1203.08 129.12,-1213.54 136.01,-1212.34"/>
</g>
<!-- unaryExprOrType -->
<g id="node69" class="node">
<title>unaryExprOrType</title>
<polygon fill="#b2dfee" stroke="#b2dfee" points="310,-833 222,-833 222,-814 310,-814 310,-833"/>
<text text-anchor="middle" x="266" y="-821" font-family="Times New Roman,serif" font-size="10.00">unaryExprOrType</text>
</g>
<!-- unaryExprOrType&#45;&gt;expression -->
<g id="edge67" class="edge">
<title>unaryExprOrType&#45;&gt;expression</title>
<path fill="none" stroke="black" d="M227.91,-813.94C219.61,-811.47 210.93,-808.62 203,-805.5 186.69,-799.09 169.13,-790.32 155.27,-782.94"/>
<polygon fill="black" stroke="black" points="156.78,-779.77 146.32,-778.09 153.44,-785.93 156.78,-779.77"/>
</g>
<!-- unaryOp -->
<g id="node70" class="node">
<title>unaryOp</title>
<polygon fill="#b2dfee" stroke="#b2dfee" points="438,-722 384,-722 384,-703 438,-703 438,-722"/>
<text text-anchor="middle" x="411" y="-710" font-family="Times New Roman,serif" font-size="10.00">unaryOp</text>
</g>
<!-- unaryOp&#45;&gt;op -->
<g id="edge68" class="edge">
<title>unaryOp&#45;&gt;op</title>
<path fill="none" stroke="black" d="M383.77,-712.5C361.2,-712.5 328.39,-712.5 303.29,-712.5"/>
<polygon fill="black" stroke="black" points="303.06,-709 293.06,-712.5 303.06,-716 303.06,-709"/>
</g>
<!-- undefinedType -->
<g id="node71" class="node">
<title>undefinedType</title>
<polygon fill="#b2dfee" stroke="#b2dfee" points="305,-1351 227,-1351 227,-1332 305,-1332 305,-1351"/>
<text text-anchor="middle" x="266" y="-1339" font-family="Times New Roman,serif" font-size="10.00">undefinedType</text>
</g>
<!-- undefinedType&#45;&gt;type -->
<g id="edge69" class="edge">
<title>undefinedType&#45;&gt;type</title>
<path fill="none" stroke="black" d="M226.7,-1335.36C218.29,-1332.71 209.86,-1328.92 203,-1323.5 166.22,-1294.4 144.72,-1241.52 135.27,-1212.99"/>
<polygon fill="black" stroke="black" points="138.58,-1211.84 132.23,-1203.35 131.9,-1213.94 138.58,-1211.84"/>
</g>
<!-- variableArrayType -->
<g id="node72" class="node">
<title>variableArrayType</title>
<polygon fill="#b2dfee" stroke="#b2dfee" points="457,-1277 365,-1277 365,-1258 457,-1258 457,-1277"/>
<text text-anchor="middle" x="411" y="-1265" font-family="Times New Roman,serif" font-size="10.00">variableArrayType</text>
</g>
<!-- variableArrayType&#45;&gt;arrayType -->
<g id="edge71" class="edge">
<title>variableArrayType&#45;&gt;arrayType</title>
<path fill="none" stroke="black" d="M364.75,-1267.5C345.65,-1267.5 323.64,-1267.5 305.35,-1267.5"/>
<polygon fill="black" stroke="black" points="305.34,-1264 295.34,-1267.5 305.34,-1271 305.34,-1264"/>
</g>
<!-- varref -->
<g id="node73" class="node">
<title>varref</title>
<polygon fill="#b2dfee" stroke="#b2dfee" points="293,-796 239,-796 239,-777 293,-777 293,-796"/>
<text text-anchor="middle" x="266" y="-784" font-family="Times New Roman,serif" font-size="10.00">varref</text>
</g>
<!-- varref&#45;&gt;expression -->
<g id="edge72" class="edge">
<title>varref&#45;&gt;expression</title>
<path fill="none" stroke="black" d="M238.87,-783.03C218.87,-780.37 190.95,-776.66 168.33,-773.66"/>
<polygon fill="black" stroke="black" points="168.73,-770.18 158.36,-772.33 167.81,-777.12 168.73,-770.18"/>
</g>
<!-- wrapperStmt -->
<g id="node74" class="node">
<title>wrapperStmt</title>
<polygon fill="#b2dfee" stroke="#b2dfee" points="299.5,-426 232.5,-426 232.5,-407 299.5,-407 299.5,-426"/>
<text text-anchor="middle" x="266" y="-414" font-family="Times New Roman,serif" font-size="10.00">wrapperStmt</text>
</g>
<!-- wrapperStmt&#45;&gt;statement -->
<g id="edge73" class="edge">
<title>wrapperStmt&#45;&gt;statement</title>
<path fill="none" stroke="black" d="M232.24,-412.35C221.98,-409.73 211.21,-405.46 203,-398.5 174.79,-374.6 193.14,-349.64 167,-323.5 166.08,-322.58 165.11,-321.7 164.09,-320.86"/>
<polygon fill="black" stroke="black" points="165.88,-317.85 155.63,-315.17 161.97,-323.66 165.88,-317.85"/>
</g>
</g>
</svg>
