<?xml version="1.0" encoding="UTF-8" standalone="no"?>
<!DOCTYPE svg PUBLIC "-//W3C//DTD SVG 1.1//EN"
 "http://www.w3.org/Graphics/SVG/1.1/DTD/svg11.dtd">
<!-- Generated by graphviz version 2.48.0 (20210717.1556)
 -->
<!-- Title: CxxWeaver_join_point_hierarchy_join_point_hierarchy Pages: 1 -->
<svg width="656pt" height="1414pt"
 viewBox="0.00 0.00 656.00 1414.00" xmlns="http://www.w3.org/2000/svg" xmlns:xlink="http://www.w3.org/1999/xlink">
<g id="graph0" class="graph" transform="scale(1 1) rotate(0) translate(4 1410)">
<title>CxxWeaver_join_point_hierarchy_join_point_hierarchy</title>
<polygon fill="white" stroke="transparent" points="-4,4 -4,-1410 652,-1410 652,4 -4,4"/>
<!-- accessSpecifier -->
<g id="node1" class="node">
<title>accessSpecifier</title>
<polygon fill="#b2dfee" stroke="#b2dfee" points="305,-463 227,-463 227,-444 305,-444 305,-463"/>
<text text-anchor="middle" x="266" y="-451" font-family="Times New Roman,serif" font-size="10.00">accessSpecifier</text>
</g>
<!-- decl -->
<g id="node2" class="node">
<title>decl</title>
<polygon fill="#b2dfee" stroke="#b2dfee" points="155.5,-482 101.5,-482 101.5,-463 155.5,-463 155.5,-482"/>
<text text-anchor="middle" x="128.5" y="-470" font-family="Times New Roman,serif" font-size="10.00">decl</text>
</g>
<!-- accessSpecifier&#45;&gt;decl -->
<g id="edge1" class="edge">
<title>accessSpecifier&#45;&gt;decl</title>
<path fill="none" stroke="black" d="M226.9,-458.84C207.74,-461.53 184.65,-464.77 165.76,-467.42"/>
<polygon fill="black" stroke="black" points="165.17,-463.96 155.75,-468.82 166.14,-470.9 165.17,-463.96"/>
</g>
<!-- joinpoint -->
<g id="node9" class="node">
<title>joinpoint</title>
<polygon fill="#b2dfee" stroke="#b2dfee" points="54,-259 0,-259 0,-240 54,-240 54,-259"/>
<text text-anchor="middle" x="27" y="-247" font-family="Times New Roman,serif" font-size="10.00">joinpoint</text>
</g>
<!-- decl&#45;&gt;joinpoint -->
<g id="edge19" class="edge">
<title>decl&#45;&gt;joinpoint</title>
<path fill="none" stroke="black" d="M123.22,-462.92C108.08,-428.96 56.77,-313.99 36.42,-268.37"/>
<polygon fill="black" stroke="black" points="39.53,-266.75 32.26,-259.05 33.14,-269.6 39.53,-266.75"/>
</g>
<!-- adjustedType -->
<g id="node3" class="node">
<title>adjustedType</title>
<polygon fill="#b2dfee" stroke="#b2dfee" points="302,-1332 230,-1332 230,-1313 302,-1313 302,-1332"/>
<text text-anchor="middle" x="266" y="-1320" font-family="Times New Roman,serif" font-size="10.00">adjustedType</text>
</g>
<!-- type -->
<g id="node4" class="node">
<title>type</title>
<polygon fill="#b2dfee" stroke="#b2dfee" points="155.5,-1184 101.5,-1184 101.5,-1165 155.5,-1165 155.5,-1184"/>
<text text-anchor="middle" x="128.5" y="-1172" font-family="Times New Roman,serif" font-size="10.00">type</text>
</g>
<!-- adjustedType&#45;&gt;type -->
<g id="edge2" class="edge">
<title>adjustedType&#45;&gt;type</title>
<path fill="none" stroke="black" d="M229.94,-1317.33C220.48,-1314.66 210.73,-1310.62 203,-1304.5 166.22,-1275.4 144.72,-1222.52 135.27,-1193.99"/>
<polygon fill="black" stroke="black" points="138.58,-1192.84 132.23,-1184.35 131.9,-1194.94 138.58,-1192.84"/>
</g>
<!-- type&#45;&gt;joinpoint -->
<g id="edge62" class="edge">
<title>type&#45;&gt;joinpoint</title>
<path fill="none" stroke="black" d="M126.45,-1164.74C116.8,-1075.05 43.63,-394.8 30.14,-269.36"/>
<polygon fill="black" stroke="black" points="33.6,-268.83 29.05,-259.26 26.64,-269.58 33.6,-268.83"/>
</g>
<!-- arrayAccess -->
<g id="node5" class="node">
<title>arrayAccess</title>
<polygon fill="#b2dfee" stroke="#b2dfee" points="299.5,-777 232.5,-777 232.5,-758 299.5,-758 299.5,-777"/>
<text text-anchor="middle" x="266" y="-765" font-family="Times New Roman,serif" font-size="10.00">arrayAccess</text>
</g>
<!-- expression -->
<g id="node6" class="node">
<title>expression</title>
<polygon fill="#b2dfee" stroke="#b2dfee" points="158,-759 99,-759 99,-740 158,-740 158,-759"/>
<text text-anchor="middle" x="128.5" y="-747" font-family="Times New Roman,serif" font-size="10.00">expression</text>
</g>
<!-- arrayAccess&#45;&gt;expression -->
<g id="edge3" class="edge">
<title>arrayAccess&#45;&gt;expression</title>
<path fill="none" stroke="black" d="M232.2,-763.14C212.99,-760.59 188.62,-757.35 168.44,-754.67"/>
<polygon fill="black" stroke="black" points="168.69,-751.18 158.32,-753.33 167.77,-758.11 168.69,-751.18"/>
</g>
<!-- expression&#45;&gt;joinpoint -->
<g id="edge28" class="edge">
<title>expression&#45;&gt;joinpoint</title>
<path fill="none" stroke="black" d="M125.6,-739.96C113.63,-679.81 48.59,-352.97 31.9,-269.12"/>
<polygon fill="black" stroke="black" points="35.3,-268.27 29.92,-259.14 28.44,-269.63 35.3,-268.27"/>
</g>
<!-- arrayType -->
<g id="node7" class="node">
<title>arrayType</title>
<polygon fill="#b2dfee" stroke="#b2dfee" points="295,-1295 237,-1295 237,-1276 295,-1276 295,-1295"/>
<text text-anchor="middle" x="266" y="-1283" font-family="Times New Roman,serif" font-size="10.00">arrayType</text>
</g>
<!-- arrayType&#45;&gt;type -->
<g id="edge4" class="edge">
<title>arrayType&#45;&gt;type</title>
<path fill="none" stroke="black" d="M236.86,-1281.18C225.65,-1278.52 213.04,-1274.26 203,-1267.5 174.26,-1248.16 151.53,-1214.04 139.34,-1192.94"/>
<polygon fill="black" stroke="black" points="142.29,-1191.04 134.36,-1184.01 136.17,-1194.45 142.29,-1191.04"/>
</g>
<!-- attribute -->
<g id="node8" class="node">
<title>attribute</title>
<polygon fill="#b2dfee" stroke="#b2dfee" points="155.5,-333 101.5,-333 101.5,-314 155.5,-314 155.5,-333"/>
<text text-anchor="middle" x="128.5" y="-321" font-family="Times New Roman,serif" font-size="10.00">attribute</text>
</g>
<!-- attribute&#45;&gt;joinpoint -->
<g id="edge5" class="edge">
<title>attribute&#45;&gt;joinpoint</title>
<path fill="none" stroke="black" d="M106.33,-313.96C100.85,-311.18 95.07,-307.95 90,-304.5 73.57,-293.32 56.82,-278.2 44.88,-266.63"/>
<polygon fill="black" stroke="black" points="47.02,-263.83 37.44,-259.29 42.1,-268.81 47.02,-263.83"/>
</g>
<!-- binaryOp -->
<g id="node10" class="node">
<title>binaryOp</title>
<polygon fill="#b2dfee" stroke="#b2dfee" points="438,-824 384,-824 384,-805 438,-805 438,-824"/>
<text text-anchor="middle" x="411" y="-812" font-family="Times New Roman,serif" font-size="10.00">binaryOp</text>
</g>
<!-- op -->
<g id="node11" class="node">
<title>op</title>
<polygon fill="#b2dfee" stroke="#b2dfee" points="293,-740 239,-740 239,-721 293,-721 293,-740"/>
<text text-anchor="middle" x="266" y="-728" font-family="Times New Roman,serif" font-size="10.00">op</text>
</g>
<!-- binaryOp&#45;&gt;op -->
<g id="edge6" class="edge">
<title>binaryOp&#45;&gt;op</title>
<path fill="none" stroke="black" d="M383.98,-806.83C377.41,-804.18 370.63,-800.77 365,-796.5 344.03,-780.6 350.61,-764.51 329,-749.5 321.19,-744.07 311.79,-740.16 302.69,-737.35"/>
<polygon fill="black" stroke="black" points="303.6,-733.97 293.03,-734.72 301.76,-740.73 303.6,-733.97"/>
</g>
<!-- op&#45;&gt;expression -->
<g id="edge44" class="edge">
<title>op&#45;&gt;expression</title>
<path fill="none" stroke="black" d="M238.87,-734.16C218.87,-736.97 190.95,-740.88 168.33,-744.05"/>
<polygon fill="black" stroke="black" points="167.78,-740.6 158.36,-745.45 168.75,-747.53 167.78,-740.6"/>
</g>
<!-- body -->
<g id="node12" class="node">
<title>body</title>
<polygon fill="#b2dfee" stroke="#b2dfee" points="438,-417 384,-417 384,-398 438,-398 438,-417"/>
<text text-anchor="middle" x="411" y="-405" font-family="Times New Roman,serif" font-size="10.00">body</text>
</g>
<!-- scope -->
<g id="node13" class="node">
<title>scope</title>
<polygon fill="#b2dfee" stroke="#b2dfee" points="293,-426 239,-426 239,-407 293,-407 293,-426"/>
<text text-anchor="middle" x="266" y="-414" font-family="Times New Roman,serif" font-size="10.00">scope</text>
</g>
<!-- body&#45;&gt;scope -->
<g id="edge7" class="edge">
<title>body&#45;&gt;scope</title>
<path fill="none" stroke="black" d="M383.77,-409.15C361.2,-410.57 328.39,-412.64 303.29,-414.22"/>
<polygon fill="black" stroke="black" points="302.82,-410.74 293.06,-414.86 303.26,-417.72 302.82,-410.74"/>
</g>
<!-- statement -->
<g id="node17" class="node">
<title>statement</title>
<polygon fill="#b2dfee" stroke="#b2dfee" points="156.5,-296 100.5,-296 100.5,-277 156.5,-277 156.5,-296"/>
<text text-anchor="middle" x="128.5" y="-284" font-family="Times New Roman,serif" font-size="10.00">statement</text>
</g>
<!-- scope&#45;&gt;statement -->
<g id="edge53" class="edge">
<title>scope&#45;&gt;statement</title>
<path fill="none" stroke="black" d="M238.85,-413.78C226.66,-411.29 212.73,-406.55 203,-397.5 170.55,-367.31 197.09,-337.04 167,-304.5 166.24,-303.68 165.43,-302.89 164.59,-302.13"/>
<polygon fill="black" stroke="black" points="166.41,-299.13 156.23,-296.18 162.35,-304.83 166.41,-299.13"/>
</g>
<!-- builtinType -->
<g id="node14" class="node">
<title>builtinType</title>
<polygon fill="#b2dfee" stroke="#b2dfee" points="297.5,-1258 234.5,-1258 234.5,-1239 297.5,-1239 297.5,-1258"/>
<text text-anchor="middle" x="266" y="-1246" font-family="Times New Roman,serif" font-size="10.00">builtinType</text>
</g>
<!-- builtinType&#45;&gt;type -->
<g id="edge8" class="edge">
<title>builtinType&#45;&gt;type</title>
<path fill="none" stroke="black" d="M234.19,-1241.96C223.96,-1239.16 212.71,-1235.39 203,-1230.5 182.16,-1220 161.28,-1203.35 147.12,-1190.93"/>
<polygon fill="black" stroke="black" points="149.4,-1188.27 139.62,-1184.19 144.72,-1193.48 149.4,-1188.27"/>
</g>
<!-- call -->
<g id="node15" class="node">
<title>call</title>
<polygon fill="#b2dfee" stroke="#b2dfee" points="293,-703 239,-703 239,-684 293,-684 293,-703"/>
<text text-anchor="middle" x="266" y="-691" font-family="Times New Roman,serif" font-size="10.00">call</text>
</g>
<!-- call&#45;&gt;expression -->
<g id="edge9" class="edge">
<title>call&#45;&gt;expression</title>
<path fill="none" stroke="black" d="M238.72,-700.49C227.55,-703.73 214.49,-707.89 203,-712.5 186.74,-719.03 169.18,-727.8 155.3,-735.16"/>
<polygon fill="black" stroke="black" points="153.49,-732.16 146.35,-739.99 156.81,-738.33 153.49,-732.16"/>
</g>
<!-- case -->
<g id="node16" class="node">
<title>case</title>
<polygon fill="#b2dfee" stroke="#b2dfee" points="293,-389 239,-389 239,-370 293,-370 293,-389"/>
<text text-anchor="middle" x="266" y="-377" font-family="Times New Roman,serif" font-size="10.00">case</text>
</g>
<!-- case&#45;&gt;statement -->
<g id="edge10" class="edge">
<title>case&#45;&gt;statement</title>
<path fill="none" stroke="black" d="M238.99,-375.74C227.11,-373.03 213.41,-368.39 203,-360.5 179.42,-342.63 189.18,-324.09 167,-304.5 165.85,-303.48 164.63,-302.51 163.37,-301.59"/>
<polygon fill="black" stroke="black" points="164.86,-298.39 154.51,-296.1 161.17,-304.34 164.86,-298.39"/>
</g>
<!-- statement&#45;&gt;joinpoint -->
<g id="edge54" class="edge">
<title>statement&#45;&gt;joinpoint</title>
<path fill="none" stroke="black" d="M101.88,-276.97C90.13,-272.6 76.02,-267.36 63.29,-262.62"/>
<polygon fill="black" stroke="black" points="64.48,-259.33 53.88,-259.12 62.04,-265.89 64.48,-259.33"/>
</g>
<!-- cast -->
<g id="node18" class="node">
<title>cast</title>
<polygon fill="#b2dfee" stroke="#b2dfee" points="293,-666 239,-666 239,-647 293,-647 293,-666"/>
<text text-anchor="middle" x="266" y="-654" font-family="Times New Roman,serif" font-size="10.00">cast</text>
</g>
<!-- cast&#45;&gt;expression -->
<g id="edge11" class="edge">
<title>cast&#45;&gt;expression</title>
<path fill="none" stroke="black" d="M238.77,-661.51C227.25,-664.45 213.89,-668.93 203,-675.5 178.45,-690.32 156.14,-715.13 142.7,-731.89"/>
<polygon fill="black" stroke="black" points="139.9,-729.79 136.51,-739.83 145.42,-734.09 139.9,-729.79"/>
</g>
<!-- cilkFor -->
<g id="node19" class="node">
<title>cilkFor</title>
<polygon fill="#b2dfee" stroke="#b2dfee" points="438,-352 384,-352 384,-333 438,-333 438,-352"/>
<text text-anchor="middle" x="411" y="-340" font-family="Times New Roman,serif" font-size="10.00">cilkFor</text>
</g>
<!-- loop -->
<g id="node20" class="node">
<title>loop</title>
<polygon fill="#b2dfee" stroke="#b2dfee" points="293,-352 239,-352 239,-333 293,-333 293,-352"/>
<text text-anchor="middle" x="266" y="-340" font-family="Times New Roman,serif" font-size="10.00">loop</text>
</g>
<!-- cilkFor&#45;&gt;loop -->
<g id="edge12" class="edge">
<title>cilkFor&#45;&gt;loop</title>
<path fill="none" stroke="black" d="M383.77,-342.5C361.2,-342.5 328.39,-342.5 303.29,-342.5"/>
<polygon fill="black" stroke="black" points="303.06,-339 293.06,-342.5 303.06,-346 303.06,-339"/>
</g>
<!-- loop&#45;&gt;statement -->
<g id="edge36" class="edge">
<title>loop&#45;&gt;statement</title>
<path fill="none" stroke="black" d="M238.98,-335.71C227.74,-332.47 214.55,-328.27 203,-323.5 186.28,-316.6 183.16,-312.64 167,-304.5 164.4,-303.19 161.69,-301.85 158.97,-300.51"/>
<polygon fill="black" stroke="black" points="160.33,-297.29 149.81,-296.07 157.28,-303.59 160.33,-297.29"/>
</g>
<!-- cilkSpawn -->
<g id="node21" class="node">
<title>cilkSpawn</title>
<polygon fill="#b2dfee" stroke="#b2dfee" points="439.5,-713 382.5,-713 382.5,-694 439.5,-694 439.5,-713"/>
<text text-anchor="middle" x="411" y="-701" font-family="Times New Roman,serif" font-size="10.00">cilkSpawn</text>
</g>
<!-- cilkSpawn&#45;&gt;call -->
<g id="edge13" class="edge">
<title>cilkSpawn&#45;&gt;call</title>
<path fill="none" stroke="black" d="M382.43,-701.57C359.85,-699.99 327.72,-697.75 303.09,-696.02"/>
<polygon fill="black" stroke="black" points="303.26,-692.53 293.04,-695.32 302.77,-699.51 303.26,-692.53"/>
</g>
<!-- cilkSync -->
<g id="node22" class="node">
<title>cilkSync</title>
<polygon fill="#b2dfee" stroke="#b2dfee" points="293,-241 239,-241 239,-222 293,-222 293,-241"/>
<text text-anchor="middle" x="266" y="-229" font-family="Times New Roman,serif" font-size="10.00">cilkSync</text>
</g>
<!-- cilkSync&#45;&gt;statement -->
<g id="edge14" class="edge">
<title>cilkSync&#45;&gt;statement</title>
<path fill="none" stroke="black" d="M238.7,-237.99C227.54,-241.03 214.47,-244.99 203,-249.5 201.77,-249.98 177.59,-262.18 157.29,-272.44"/>
<polygon fill="black" stroke="black" points="155.68,-269.33 148.33,-276.97 158.84,-275.58 155.68,-269.33"/>
</g>
<!-- class -->
<g id="node23" class="node">
<title>class</title>
<polygon fill="#b2dfee" stroke="#b2dfee" points="552.5,-639 498.5,-639 498.5,-620 552.5,-620 552.5,-639"/>
<text text-anchor="middle" x="525.5" y="-627" font-family="Times New Roman,serif" font-size="10.00">class</text>
</g>
<!-- record -->
<g id="node24" class="node">
<title>record</title>
<polygon fill="#b2dfee" stroke="#b2dfee" points="438,-602 384,-602 384,-583 438,-583 438,-602"/>
<text text-anchor="middle" x="411" y="-590" font-family="Times New Roman,serif" font-size="10.00">record</text>
</g>
<!-- class&#45;&gt;record -->
<g id="edge15" class="edge">
<title>class&#45;&gt;record</title>
<path fill="none" stroke="black" d="M498.41,-620.92C483.46,-616 464.49,-609.76 448.13,-604.38"/>
<polygon fill="black" stroke="black" points="448.93,-600.96 438.34,-601.16 446.75,-607.61 448.93,-600.96"/>
</g>
<!-- namedDecl -->
<g id="node29" class="node">
<title>namedDecl</title>
<polygon fill="#b2dfee" stroke="#b2dfee" points="296.5,-537 235.5,-537 235.5,-518 296.5,-518 296.5,-537"/>
<text text-anchor="middle" x="266" y="-525" font-family="Times New Roman,serif" font-size="10.00">namedDecl</text>
</g>
<!-- record&#45;&gt;namedDecl -->
<g id="edge51" class="edge">
<title>record&#45;&gt;namedDecl</title>
<path fill="none" stroke="black" d="M385.12,-582.89C378.54,-580.26 371.47,-577.34 365,-574.5 341.21,-564.05 314.65,-551.24 295.19,-541.63"/>
<polygon fill="black" stroke="black" points="296.49,-538.37 285.98,-537.07 293.38,-544.65 296.49,-538.37"/>
</g>
<!-- clavaException -->
<g id="node25" class="node">
<title>clavaException</title>
<polygon fill="#b2dfee" stroke="#b2dfee" points="167,-259 90,-259 90,-240 167,-240 167,-259"/>
<text text-anchor="middle" x="128.5" y="-247" font-family="Times New Roman,serif" font-size="10.00">clavaException</text>
</g>
<!-- clavaException&#45;&gt;joinpoint -->
<g id="edge16" class="edge">
<title>clavaException&#45;&gt;joinpoint</title>
<path fill="none" stroke="black" d="M89.88,-249.5C81.53,-249.5 72.68,-249.5 64.37,-249.5"/>
<polygon fill="black" stroke="black" points="64.22,-246 54.22,-249.5 64.22,-253 64.22,-246"/>
</g>
<!-- comment -->
<g id="node26" class="node">
<title>comment</title>
<polygon fill="#b2dfee" stroke="#b2dfee" points="155.5,-222 101.5,-222 101.5,-203 155.5,-203 155.5,-222"/>
<text text-anchor="middle" x="128.5" y="-210" font-family="Times New Roman,serif" font-size="10.00">comment</text>
</g>
<!-- comment&#45;&gt;joinpoint -->
<g id="edge17" class="edge">
<title>comment&#45;&gt;joinpoint</title>
<path fill="none" stroke="black" d="M101.88,-222.03C90.13,-226.4 76.02,-231.64 63.29,-236.38"/>
<polygon fill="black" stroke="black" points="62.04,-233.11 53.88,-239.88 64.48,-239.67 62.04,-233.11"/>
</g>
<!-- cudaKernelCall -->
<g id="node27" class="node">
<title>cudaKernelCall</title>
<polygon fill="#b2dfee" stroke="#b2dfee" points="449.5,-676 372.5,-676 372.5,-657 449.5,-657 449.5,-676"/>
<text text-anchor="middle" x="411" y="-664" font-family="Times New Roman,serif" font-size="10.00">cudaKernelCall</text>
</g>
<!-- cudaKernelCall&#45;&gt;call -->
<g id="edge18" class="edge">
<title>cudaKernelCall&#45;&gt;call</title>
<path fill="none" stroke="black" d="M372.43,-673.59C350.95,-677.65 324.16,-682.71 302.96,-686.71"/>
<polygon fill="black" stroke="black" points="302.22,-683.29 293.05,-688.58 303.52,-690.17 302.22,-683.29"/>
</g>
<!-- declarator -->
<g id="node28" class="node">
<title>declarator</title>
<polygon fill="#b2dfee" stroke="#b2dfee" points="439,-565 383,-565 383,-546 439,-546 439,-565"/>
<text text-anchor="middle" x="411" y="-553" font-family="Times New Roman,serif" font-size="10.00">declarator</text>
</g>
<!-- declarator&#45;&gt;namedDecl -->
<g id="edge20" class="edge">
<title>declarator&#45;&gt;namedDecl</title>
<path fill="none" stroke="black" d="M382.77,-550.17C361.21,-545.95 330.81,-539.99 306.57,-535.25"/>
<polygon fill="black" stroke="black" points="307.08,-531.78 296.6,-533.3 305.74,-538.65 307.08,-531.78"/>
</g>
<!-- namedDecl&#45;&gt;decl -->
<g id="edge41" class="edge">
<title>namedDecl&#45;&gt;decl</title>
<path fill="none" stroke="black" d="M235.3,-520.07C224.94,-517.17 213.33,-513.56 203,-509.5 186.69,-503.09 169.13,-494.32 155.27,-486.94"/>
<polygon fill="black" stroke="black" points="156.78,-483.77 146.32,-482.09 153.44,-489.93 156.78,-483.77"/>
</g>
<!-- deleteExpr -->
<g id="node30" class="node">
<title>deleteExpr</title>
<polygon fill="#b2dfee" stroke="#b2dfee" points="295,-629 237,-629 237,-610 295,-610 295,-629"/>
<text text-anchor="middle" x="266" y="-617" font-family="Times New Roman,serif" font-size="10.00">deleteExpr</text>
</g>
<!-- deleteExpr&#45;&gt;expression -->
<g id="edge21" class="edge">
<title>deleteExpr&#45;&gt;expression</title>
<path fill="none" stroke="black" d="M236.87,-623.83C225.53,-626.62 212.83,-631.16 203,-638.5 170.6,-662.71 148.15,-705.69 137.19,-730.47"/>
<polygon fill="black" stroke="black" points="133.88,-729.29 133.2,-739.86 140.33,-732.02 133.88,-729.29"/>
</g>
<!-- elaboratedType -->
<g id="node31" class="node">
<title>elaboratedType</title>
<polygon fill="#b2dfee" stroke="#b2dfee" points="306,-1221 226,-1221 226,-1202 306,-1202 306,-1221"/>
<text text-anchor="middle" x="266" y="-1209" font-family="Times New Roman,serif" font-size="10.00">elaboratedType</text>
</g>
<!-- elaboratedType&#45;&gt;type -->
<g id="edge22" class="edge">
<title>elaboratedType&#45;&gt;type</title>
<path fill="none" stroke="black" d="M230.11,-1201.97C210.25,-1196.55 185.43,-1189.77 165.41,-1184.3"/>
<polygon fill="black" stroke="black" points="166.28,-1180.92 155.72,-1181.66 164.44,-1187.67 166.28,-1180.92"/>
</g>
<!-- empty -->
<g id="node32" class="node">
<title>empty</title>
<polygon fill="#b2dfee" stroke="#b2dfee" points="155.5,-185 101.5,-185 101.5,-166 155.5,-166 155.5,-185"/>
<text text-anchor="middle" x="128.5" y="-173" font-family="Times New Roman,serif" font-size="10.00">empty</text>
</g>
<!-- empty&#45;&gt;joinpoint -->
<g id="edge23" class="edge">
<title>empty&#45;&gt;joinpoint</title>
<path fill="none" stroke="black" d="M104.71,-185.15C99.71,-187.61 94.56,-190.44 90,-193.5 73.01,-204.9 55.91,-220.75 43.99,-232.67"/>
<polygon fill="black" stroke="black" points="41.45,-230.27 36.95,-239.86 46.45,-235.16 41.45,-230.27"/>
</g>
<!-- enumDecl -->
<g id="node33" class="node">
<title>enumDecl</title>
<polygon fill="#b2dfee" stroke="#b2dfee" points="439,-528 383,-528 383,-509 439,-509 439,-528"/>
<text text-anchor="middle" x="411" y="-516" font-family="Times New Roman,serif" font-size="10.00">enumDecl</text>
</g>
<!-- enumDecl&#45;&gt;namedDecl -->
<g id="edge24" class="edge">
<title>enumDecl&#45;&gt;namedDecl</title>
<path fill="none" stroke="black" d="M382.77,-520.21C361.31,-521.56 331.08,-523.47 306.89,-524.99"/>
<polygon fill="black" stroke="black" points="306.36,-521.52 296.6,-525.64 306.8,-528.5 306.36,-521.52"/>
</g>
<!-- enumType -->
<g id="node34" class="node">
<title>enumType</title>
<polygon fill="#b2dfee" stroke="#b2dfee" points="440.5,-1184 381.5,-1184 381.5,-1165 440.5,-1165 440.5,-1184"/>
<text text-anchor="middle" x="411" y="-1172" font-family="Times New Roman,serif" font-size="10.00">enumType</text>
</g>
<!-- tagType -->
<g id="node35" class="node">
<title>tagType</title>
<polygon fill="#b2dfee" stroke="#b2dfee" points="293,-1184 239,-1184 239,-1165 293,-1165 293,-1184"/>
<text text-anchor="middle" x="266" y="-1172" font-family="Times New Roman,serif" font-size="10.00">tagType</text>
</g>
<!-- enumType&#45;&gt;tagType -->
<g id="edge25" class="edge">
<title>enumType&#45;&gt;tagType</title>
<path fill="none" stroke="black" d="M381.41,-1174.5C358.97,-1174.5 327.59,-1174.5 303.37,-1174.5"/>
<polygon fill="black" stroke="black" points="303.14,-1171 293.14,-1174.5 303.14,-1178 303.14,-1171"/>
</g>
<!-- tagType&#45;&gt;type -->
<g id="edge58" class="edge">
<title>tagType&#45;&gt;type</title>
<path fill="none" stroke="black" d="M238.87,-1174.5C218.07,-1174.5 188.71,-1174.5 165.65,-1174.5"/>
<polygon fill="black" stroke="black" points="165.55,-1171 155.55,-1174.5 165.55,-1178 165.55,-1171"/>
</g>
<!-- enumeratorDecl -->
<g id="node36" class="node">
<title>enumeratorDecl</title>
<polygon fill="#b2dfee" stroke="#b2dfee" points="451,-491 371,-491 371,-472 451,-472 451,-491"/>
<text text-anchor="middle" x="411" y="-479" font-family="Times New Roman,serif" font-size="10.00">enumeratorDecl</text>
</g>
<!-- enumeratorDecl&#45;&gt;namedDecl -->
<g id="edge26" class="edge">
<title>enumeratorDecl&#45;&gt;namedDecl</title>
<path fill="none" stroke="black" d="M383.48,-491.04C367.72,-496.62 347.29,-503.69 329,-509.5 321.72,-511.81 313.92,-514.17 306.4,-516.38"/>
<polygon fill="black" stroke="black" points="305.36,-513.04 296.74,-519.2 307.32,-519.76 305.36,-513.04"/>
</g>
<!-- exprStmt -->
<g id="node37" class="node">
<title>exprStmt</title>
<polygon fill="#b2dfee" stroke="#b2dfee" points="293,-204 239,-204 239,-185 293,-185 293,-204"/>
<text text-anchor="middle" x="266" y="-192" font-family="Times New Roman,serif" font-size="10.00">exprStmt</text>
</g>
<!-- exprStmt&#45;&gt;statement -->
<g id="edge27" class="edge">
<title>exprStmt&#45;&gt;statement</title>
<path fill="none" stroke="black" d="M238.72,-197.89C226.93,-200.42 213.36,-204.83 203,-212.5 179.51,-229.87 188.77,-248.02 167,-267.5 165.49,-268.85 163.87,-270.13 162.17,-271.34"/>
<polygon fill="black" stroke="black" points="159.99,-268.58 153.31,-276.81 163.66,-274.54 159.99,-268.58"/>
</g>
<!-- field -->
<g id="node38" class="node">
<title>field</title>
<polygon fill="#b2dfee" stroke="#b2dfee" points="552.5,-565 498.5,-565 498.5,-546 552.5,-546 552.5,-565"/>
<text text-anchor="middle" x="525.5" y="-553" font-family="Times New Roman,serif" font-size="10.00">field</text>
</g>
<!-- field&#45;&gt;declarator -->
<g id="edge29" class="edge">
<title>field&#45;&gt;declarator</title>
<path fill="none" stroke="black" d="M498.41,-555.5C483.82,-555.5 465.39,-555.5 449.3,-555.5"/>
<polygon fill="black" stroke="black" points="449.13,-552 439.13,-555.5 449.13,-559 449.13,-552"/>
</g>
<!-- file -->
<g id="node39" class="node">
<title>file</title>
<polygon fill="#b2dfee" stroke="#b2dfee" points="155.5,-148 101.5,-148 101.5,-129 155.5,-129 155.5,-148"/>
<text text-anchor="middle" x="128.5" y="-136" font-family="Times New Roman,serif" font-size="10.00">file</text>
</g>
<!-- file&#45;&gt;joinpoint -->
<g id="edge30" class="edge">
<title>file&#45;&gt;joinpoint</title>
<path fill="none" stroke="black" d="M102.53,-148.15C98.09,-150.5 93.71,-153.28 90,-156.5 65.81,-177.51 47.03,-210.1 36.75,-230.6"/>
<polygon fill="black" stroke="black" points="33.48,-229.31 32.28,-239.84 39.79,-232.36 33.48,-229.31"/>
</g>
<!-- function -->
<g id="node40" class="node">
<title>function</title>
<polygon fill="#b2dfee" stroke="#b2dfee" points="552.5,-528 498.5,-528 498.5,-509 552.5,-509 552.5,-528"/>
<text text-anchor="middle" x="525.5" y="-516" font-family="Times New Roman,serif" font-size="10.00">function</text>
</g>
<!-- function&#45;&gt;declarator -->
<g id="edge31" class="edge">
<title>function&#45;&gt;declarator</title>
<path fill="none" stroke="black" d="M498.41,-527.08C483.68,-531.93 465.03,-538.06 448.84,-543.38"/>
<polygon fill="black" stroke="black" points="447.53,-540.13 439.13,-546.58 449.72,-546.78 447.53,-540.13"/>
</g>
<!-- functionType -->
<g id="node41" class="node">
<title>functionType</title>
<polygon fill="#b2dfee" stroke="#b2dfee" points="301.5,-1147 230.5,-1147 230.5,-1128 301.5,-1128 301.5,-1147"/>
<text text-anchor="middle" x="266" y="-1135" font-family="Times New Roman,serif" font-size="10.00">functionType</text>
</g>
<!-- functionType&#45;&gt;type -->
<g id="edge32" class="edge">
<title>functionType&#45;&gt;type</title>
<path fill="none" stroke="black" d="M230.46,-1146.93C210.6,-1152.35 185.69,-1159.16 165.58,-1164.65"/>
<polygon fill="black" stroke="black" points="164.58,-1161.29 155.85,-1167.3 166.42,-1168.05 164.58,-1161.29"/>
</g>
<!-- if -->
<g id="node42" class="node">
<title>if</title>
<polygon fill="#b2dfee" stroke="#b2dfee" points="293,-167 239,-167 239,-148 293,-148 293,-167"/>
<text text-anchor="middle" x="266" y="-155" font-family="Times New Roman,serif" font-size="10.00">if</text>
</g>
<!-- if&#45;&gt;statement -->
<g id="edge33" class="edge">
<title>if&#45;&gt;statement</title>
<path fill="none" stroke="black" d="M238.89,-159.78C226.7,-162.06 212.77,-166.58 203,-175.5 170.58,-205.11 196.52,-235 167,-267.5 165.82,-268.8 164.53,-270.02 163.16,-271.17"/>
<polygon fill="black" stroke="black" points="160.96,-268.44 154.68,-276.97 164.91,-274.22 160.96,-268.44"/>
</g>
<!-- include -->
<g id="node43" class="node">
<title>include</title>
<polygon fill="#b2dfee" stroke="#b2dfee" points="293,-500 239,-500 239,-481 293,-481 293,-500"/>
<text text-anchor="middle" x="266" y="-488" font-family="Times New Roman,serif" font-size="10.00">include</text>
</g>
<!-- include&#45;&gt;decl -->
<g id="edge34" class="edge">
<title>include&#45;&gt;decl</title>
<path fill="none" stroke="black" d="M238.87,-487.03C218.07,-484.27 188.71,-480.37 165.65,-477.3"/>
<polygon fill="black" stroke="black" points="165.92,-473.81 155.55,-475.96 165,-480.75 165.92,-473.81"/>
</g>
<!-- literal -->
<g id="node44" class="node">
<title>literal</title>
<polygon fill="#b2dfee" stroke="#b2dfee" points="293,-592 239,-592 239,-573 293,-573 293,-592"/>
<text text-anchor="middle" x="266" y="-580" font-family="Times New Roman,serif" font-size="10.00">literal</text>
</g>
<!-- literal&#45;&gt;expression -->
<g id="edge35" class="edge">
<title>literal&#45;&gt;expression</title>
<path fill="none" stroke="black" d="M238.9,-585.68C226.86,-588.28 213.04,-592.98 203,-601.5 162.3,-636.03 141.93,-698.55 133.85,-730.13"/>
<polygon fill="black" stroke="black" points="130.43,-729.37 131.48,-739.91 137.23,-731.01 130.43,-729.37"/>
</g>
<!-- marker -->
<g id="node45" class="node">
<title>marker</title>
<polygon fill="#b2dfee" stroke="#b2dfee" points="293,-19 239,-19 239,0 293,0 293,-19"/>
<text text-anchor="middle" x="266" y="-7" font-family="Times New Roman,serif" font-size="10.00">marker</text>
</g>
<!-- pragma -->
<g id="node46" class="node">
<title>pragma</title>
<polygon fill="#b2dfee" stroke="#b2dfee" points="155.5,-93 101.5,-93 101.5,-74 155.5,-74 155.5,-93"/>
<text text-anchor="middle" x="128.5" y="-81" font-family="Times New Roman,serif" font-size="10.00">pragma</text>
</g>
<!-- marker&#45;&gt;pragma -->
<g id="edge37" class="edge">
<title>marker&#45;&gt;pragma</title>
<path fill="none" stroke="black" d="M238.74,-13.97C227.21,-16.71 213.86,-20.98 203,-27.5 183.33,-39.31 185.48,-50.91 167,-64.5 164.94,-66.01 162.75,-67.47 160.49,-68.85"/>
<polygon fill="black" stroke="black" points="158.65,-65.87 151.63,-73.81 162.07,-71.98 158.65,-65.87"/>
</g>
<!-- pragma&#45;&gt;joinpoint -->
<g id="edge48" class="edge">
<title>pragma&#45;&gt;joinpoint</title>
<path fill="none" stroke="black" d="M115.24,-93.26C107.32,-100.01 97.19,-109.55 90,-119.5 64.14,-155.31 44.45,-203.61 34.72,-230.1"/>
<polygon fill="black" stroke="black" points="31.35,-229.12 31.28,-239.72 37.95,-231.48 31.35,-229.12"/>
</g>
<!-- memberAccess -->
<g id="node47" class="node">
<title>memberAccess</title>
<polygon fill="#b2dfee" stroke="#b2dfee" points="304.5,-962 227.5,-962 227.5,-943 304.5,-943 304.5,-962"/>
<text text-anchor="middle" x="266" y="-950" font-family="Times New Roman,serif" font-size="10.00">memberAccess</text>
</g>
<!-- memberAccess&#45;&gt;expression -->
<g id="edge38" class="edge">
<title>memberAccess&#45;&gt;expression</title>
<path fill="none" stroke="black" d="M227.44,-947.42C218.61,-944.75 209.8,-940.68 203,-934.5 153.63,-889.64 136.92,-807.25 131.69,-769.43"/>
<polygon fill="black" stroke="black" points="135.13,-768.7 130.41,-759.21 128.18,-769.57 135.13,-768.7"/>
</g>
<!-- memberCall -->
<g id="node48" class="node">
<title>memberCall</title>
<polygon fill="#b2dfee" stroke="#b2dfee" points="442,-639 380,-639 380,-620 442,-620 442,-639"/>
<text text-anchor="middle" x="411" y="-627" font-family="Times New Roman,serif" font-size="10.00">memberCall</text>
</g>
<!-- memberCall&#45;&gt;call -->
<g id="edge39" class="edge">
<title>memberCall&#45;&gt;call</title>
<path fill="none" stroke="black" d="M384.25,-639.1C377.81,-641.84 371.03,-645.04 365,-648.5 347.66,-658.46 346.89,-666.57 329,-675.5 320.84,-679.57 311.6,-682.88 302.8,-685.49"/>
<polygon fill="black" stroke="black" points="301.84,-682.12 293.12,-688.14 303.69,-688.87 301.84,-682.12"/>
</g>
<!-- method -->
<g id="node49" class="node">
<title>method</title>
<polygon fill="#b2dfee" stroke="#b2dfee" points="648,-528 594,-528 594,-509 648,-509 648,-528"/>
<text text-anchor="middle" x="621" y="-516" font-family="Times New Roman,serif" font-size="10.00">method</text>
</g>
<!-- method&#45;&gt;function -->
<g id="edge40" class="edge">
<title>method&#45;&gt;function</title>
<path fill="none" stroke="black" d="M593.96,-518.5C584.31,-518.5 573.19,-518.5 562.8,-518.5"/>
<polygon fill="black" stroke="black" points="562.73,-515 552.73,-518.5 562.73,-522 562.73,-515"/>
</g>
<!-- newExpr -->
<g id="node50" class="node">
<title>newExpr</title>
<polygon fill="#b2dfee" stroke="#b2dfee" points="293,-925 239,-925 239,-906 293,-906 293,-925"/>
<text text-anchor="middle" x="266" y="-913" font-family="Times New Roman,serif" font-size="10.00">newExpr</text>
</g>
<!-- newExpr&#45;&gt;expression -->
<g id="edge42" class="edge">
<title>newExpr&#45;&gt;expression</title>
<path fill="none" stroke="black" d="M238.91,-912.78C226.88,-910.39 213.06,-905.91 203,-897.5 162.04,-863.27 141.8,-800.62 133.79,-768.94"/>
<polygon fill="black" stroke="black" points="137.17,-768.04 131.45,-759.12 130.36,-769.66 137.17,-768.04"/>
</g>
<!-- omp -->
<g id="node51" class="node">
<title>omp</title>
<polygon fill="#b2dfee" stroke="#b2dfee" points="293,-93 239,-93 239,-74 293,-74 293,-93"/>
<text text-anchor="middle" x="266" y="-81" font-family="Times New Roman,serif" font-size="10.00">omp</text>
</g>
<!-- omp&#45;&gt;pragma -->
<g id="edge43" class="edge">
<title>omp&#45;&gt;pragma</title>
<path fill="none" stroke="black" d="M238.87,-83.5C218.07,-83.5 188.71,-83.5 165.65,-83.5"/>
<polygon fill="black" stroke="black" points="165.55,-80 155.55,-83.5 165.55,-87 165.55,-80"/>
</g>
<!-- param -->
<g id="node52" class="node">
<title>param</title>
<polygon fill="#b2dfee" stroke="#b2dfee" points="648,-491 594,-491 594,-472 648,-472 648,-491"/>
<text text-anchor="middle" x="621" y="-479" font-family="Times New Roman,serif" font-size="10.00">param</text>
</g>
<!-- vardecl -->
<g id="node53" class="node">
<title>vardecl</title>
<polygon fill="#b2dfee" stroke="#b2dfee" points="552.5,-491 498.5,-491 498.5,-472 552.5,-472 552.5,-491"/>
<text text-anchor="middle" x="525.5" y="-479" font-family="Times New Roman,serif" font-size="10.00">vardecl</text>
</g>
<!-- param&#45;&gt;vardecl -->
<g id="edge45" class="edge">
<title>param&#45;&gt;vardecl</title>
<path fill="none" stroke="black" d="M593.96,-481.5C584.31,-481.5 573.19,-481.5 562.8,-481.5"/>
<polygon fill="black" stroke="black" points="562.73,-478 552.73,-481.5 562.73,-485 562.73,-478"/>
</g>
<!-- vardecl&#45;&gt;declarator -->
<g id="edge69" class="edge">
<title>vardecl&#45;&gt;declarator</title>
<path fill="none" stroke="black" d="M506.64,-491.19C502.04,-493.97 497.2,-497.16 493,-500.5 475.03,-514.76 476.07,-524.74 457,-537.5 454.27,-539.33 451.33,-541.01 448.31,-542.56"/>
<polygon fill="black" stroke="black" points="446.73,-539.43 439.1,-546.79 449.65,-545.79 446.73,-539.43"/>
</g>
<!-- parenType -->
<g id="node54" class="node">
<title>parenType</title>
<polygon fill="#b2dfee" stroke="#b2dfee" points="296,-1110 236,-1110 236,-1091 296,-1091 296,-1110"/>
<text text-anchor="middle" x="266" y="-1098" font-family="Times New Roman,serif" font-size="10.00">parenType</text>
</g>
<!-- parenType&#45;&gt;type -->
<g id="edge46" class="edge">
<title>parenType&#45;&gt;type</title>
<path fill="none" stroke="black" d="M235.8,-1107.21C225.16,-1110.23 213.24,-1114.3 203,-1119.5 182.57,-1129.88 161.9,-1145.95 147.71,-1158.04"/>
<polygon fill="black" stroke="black" points="145.39,-1155.42 140.15,-1164.63 149.99,-1160.7 145.39,-1155.42"/>
</g>
<!-- pointerType -->
<g id="node55" class="node">
<title>pointerType</title>
<polygon fill="#b2dfee" stroke="#b2dfee" points="299,-1073 233,-1073 233,-1054 299,-1054 299,-1073"/>
<text text-anchor="middle" x="266" y="-1061" font-family="Times New Roman,serif" font-size="10.00">pointerType</text>
</g>
<!-- pointerType&#45;&gt;type -->
<g id="edge47" class="edge">
<title>pointerType&#45;&gt;type</title>
<path fill="none" stroke="black" d="M232.77,-1069.46C222.66,-1072.32 211.84,-1076.49 203,-1082.5 174.68,-1101.75 151.96,-1135.19 139.63,-1156.01"/>
<polygon fill="black" stroke="black" points="136.5,-1154.43 134.57,-1164.85 142.58,-1157.91 136.5,-1154.43"/>
</g>
<!-- program -->
<g id="node56" class="node">
<title>program</title>
<polygon fill="#b2dfee" stroke="#b2dfee" points="155.5,-56 101.5,-56 101.5,-37 155.5,-37 155.5,-56"/>
<text text-anchor="middle" x="128.5" y="-44" font-family="Times New Roman,serif" font-size="10.00">program</text>
</g>
<!-- program&#45;&gt;joinpoint -->
<g id="edge49" class="edge">
<title>program&#45;&gt;joinpoint</title>
<path fill="none" stroke="black" d="M101.41,-55.62C97.18,-58 93.15,-60.93 90,-64.5 47.11,-113.07 33.7,-192.36 29.66,-229.33"/>
<polygon fill="black" stroke="black" points="26.13,-229.46 28.65,-239.75 33.1,-230.14 26.13,-229.46"/>
</g>
<!-- qualType -->
<g id="node57" class="node">
<title>qualType</title>
<polygon fill="#b2dfee" stroke="#b2dfee" points="293.5,-1036 238.5,-1036 238.5,-1017 293.5,-1017 293.5,-1036"/>
<text text-anchor="middle" x="266" y="-1024" font-family="Times New Roman,serif" font-size="10.00">qualType</text>
</g>
<!-- qualType&#45;&gt;type -->
<g id="edge50" class="edge">
<title>qualType&#45;&gt;type</title>
<path fill="none" stroke="black" d="M238.49,-1030.08C226.64,-1032.75 213.11,-1037.41 203,-1045.5 166.6,-1074.64 144.94,-1127.01 135.37,-1155.23"/>
<polygon fill="black" stroke="black" points="132.03,-1154.17 132.28,-1164.76 138.69,-1156.33 132.03,-1154.17"/>
</g>
<!-- returnStmt -->
<g id="node58" class="node">
<title>returnStmt</title>
<polygon fill="#b2dfee" stroke="#b2dfee" points="295.5,-130 236.5,-130 236.5,-111 295.5,-111 295.5,-130"/>
<text text-anchor="middle" x="266" y="-118" font-family="Times New Roman,serif" font-size="10.00">returnStmt</text>
</g>
<!-- returnStmt&#45;&gt;statement -->
<g id="edge52" class="edge">
<title>returnStmt&#45;&gt;statement</title>
<path fill="none" stroke="black" d="M236.28,-122.77C224.57,-125.1 211.75,-129.66 203,-138.5 161.13,-180.81 204.75,-221.48 167,-267.5 166.05,-268.66 165,-269.76 163.89,-270.8"/>
<polygon fill="black" stroke="black" points="161.73,-268.04 155.76,-276.79 165.89,-273.68 161.73,-268.04"/>
</g>
<!-- struct -->
<g id="node59" class="node">
<title>struct</title>
<polygon fill="#b2dfee" stroke="#b2dfee" points="552.5,-602 498.5,-602 498.5,-583 552.5,-583 552.5,-602"/>
<text text-anchor="middle" x="525.5" y="-590" font-family="Times New Roman,serif" font-size="10.00">struct</text>
</g>
<!-- struct&#45;&gt;record -->
<g id="edge55" class="edge">
<title>struct&#45;&gt;record</title>
<path fill="none" stroke="black" d="M498.41,-592.5C483.61,-592.5 464.85,-592.5 448.59,-592.5"/>
<polygon fill="black" stroke="black" points="448.34,-589 438.34,-592.5 448.34,-596 448.34,-589"/>
</g>
<!-- switch -->
<g id="node60" class="node">
<title>switch</title>
<polygon fill="#b2dfee" stroke="#b2dfee" points="293,-315 239,-315 239,-296 293,-296 293,-315"/>
<text text-anchor="middle" x="266" y="-303" font-family="Times New Roman,serif" font-size="10.00">switch</text>
</g>
<!-- switch&#45;&gt;statement -->
<g id="edge56" class="edge">
<title>switch&#45;&gt;statement</title>
<path fill="none" stroke="black" d="M238.87,-301.84C218.47,-298.98 189.83,-294.96 166.98,-291.76"/>
<polygon fill="black" stroke="black" points="167.33,-288.27 156.94,-290.35 166.36,-295.2 167.33,-288.27"/>
</g>
<!-- tag -->
<g id="node61" class="node">
<title>tag</title>
<polygon fill="#b2dfee" stroke="#b2dfee" points="293,-56 239,-56 239,-37 293,-37 293,-56"/>
<text text-anchor="middle" x="266" y="-44" font-family="Times New Roman,serif" font-size="10.00">tag</text>
</g>
<!-- tag&#45;&gt;pragma -->
<g id="edge57" class="edge">
<title>tag&#45;&gt;pragma</title>
<path fill="none" stroke="black" d="M238.87,-53.63C217.97,-59.34 188.44,-67.4 165.33,-73.72"/>
<polygon fill="black" stroke="black" points="164.27,-70.38 155.55,-76.39 166.11,-77.13 164.27,-70.38"/>
</g>
<!-- templateSpecializationType -->
<g id="node62" class="node">
<title>templateSpecializationType</title>
<polygon fill="#b2dfee" stroke="#b2dfee" points="329,-999 203,-999 203,-980 329,-980 329,-999"/>
<text text-anchor="middle" x="266" y="-987" font-family="Times New Roman,serif" font-size="10.00">templateSpecializationType</text>
</g>
<!-- templateSpecializationType&#45;&gt;type -->
<g id="edge59" class="edge">
<title>templateSpecializationType&#45;&gt;type</title>
<path fill="none" stroke="black" d="M217.98,-999.07C212.54,-1001.52 207.38,-1004.61 203,-1008.5 158.32,-1048.14 139.52,-1120.05 132.76,-1154.73"/>
<polygon fill="black" stroke="black" points="129.31,-1154.14 130.97,-1164.6 136.2,-1155.39 129.31,-1154.14"/>
</g>
<!-- ternaryOp -->
<g id="node63" class="node">
<title>ternaryOp</title>
<polygon fill="#b2dfee" stroke="#b2dfee" points="439.5,-787 382.5,-787 382.5,-768 439.5,-768 439.5,-787"/>
<text text-anchor="middle" x="411" y="-775" font-family="Times New Roman,serif" font-size="10.00">ternaryOp</text>
</g>
<!-- ternaryOp&#45;&gt;op -->
<g id="edge60" class="edge">
<title>ternaryOp&#45;&gt;op</title>
<path fill="none" stroke="black" d="M383.08,-767.93C367.36,-762.4 347.11,-755.4 329,-749.5 320.54,-746.74 311.39,-743.87 302.78,-741.23"/>
<polygon fill="black" stroke="black" points="303.59,-737.82 293.01,-738.25 301.55,-744.51 303.59,-737.82"/>
</g>
<!-- this -->
<g id="node64" class="node">
<title>this</title>
<polygon fill="#b2dfee" stroke="#b2dfee" points="293,-888 239,-888 239,-869 293,-869 293,-888"/>
<text text-anchor="middle" x="266" y="-876" font-family="Times New Roman,serif" font-size="10.00">this</text>
</g>
<!-- this&#45;&gt;expression -->
<g id="edge61" class="edge">
<title>this&#45;&gt;expression</title>
<path fill="none" stroke="black" d="M238.74,-875.08C226.95,-872.55 213.38,-868.14 203,-860.5 170.42,-836.53 148.04,-793.46 137.13,-768.61"/>
<polygon fill="black" stroke="black" points="140.27,-767.04 133.17,-759.18 133.82,-769.75 140.27,-767.04"/>
</g>
<!-- typedefDecl -->
<g id="node65" class="node">
<title>typedefDecl</title>
<polygon fill="#b2dfee" stroke="#b2dfee" points="558,-454 493,-454 493,-435 558,-435 558,-454"/>
<text text-anchor="middle" x="525.5" y="-442" font-family="Times New Roman,serif" font-size="10.00">typedefDecl</text>
</g>
<!-- typedefNameDecl -->
<g id="node66" class="node">
<title>typedefNameDecl</title>
<polygon fill="#b2dfee" stroke="#b2dfee" points="455,-454 367,-454 367,-435 455,-435 455,-454"/>
<text text-anchor="middle" x="411" y="-442" font-family="Times New Roman,serif" font-size="10.00">typedefNameDecl</text>
</g>
<!-- typedefDecl&#45;&gt;typedefNameDecl -->
<g id="edge63" class="edge">
<title>typedefDecl&#45;&gt;typedefNameDecl</title>
<path fill="none" stroke="black" d="M492.86,-444.5C484.27,-444.5 474.73,-444.5 465.29,-444.5"/>
<polygon fill="black" stroke="black" points="465.15,-441 455.15,-444.5 465.15,-448 465.15,-441"/>
</g>
<!-- typedefNameDecl&#45;&gt;namedDecl -->
<g id="edge64" class="edge">
<title>typedefNameDecl&#45;&gt;namedDecl</title>
<path fill="none" stroke="black" d="M379.27,-454.2C374.25,-456.49 369.29,-459.25 365,-462.5 344.03,-478.4 350.72,-494.65 329,-509.5 322.3,-514.08 314.43,-517.51 306.59,-520.08"/>
<polygon fill="black" stroke="black" points="305.41,-516.77 296.76,-522.88 307.33,-523.5 305.41,-516.77"/>
</g>
<!-- typedefType -->
<g id="node67" class="node">
<title>typedefType</title>
<polygon fill="#b2dfee" stroke="#b2dfee" points="300,-1406 232,-1406 232,-1387 300,-1387 300,-1406"/>
<text text-anchor="middle" x="266" y="-1394" font-family="Times New Roman,serif" font-size="10.00">typedefType</text>
</g>
<!-- typedefType&#45;&gt;type -->
<g id="edge65" class="edge">
<title>typedefType&#45;&gt;type</title>
<path fill="none" stroke="black" d="M231.81,-1392.83C221.53,-1390.24 210.85,-1385.86 203,-1378.5 149.17,-1327.98 134.68,-1235.15 130.85,-1194.48"/>
<polygon fill="black" stroke="black" points="134.32,-1193.94 130.01,-1184.26 127.34,-1194.51 134.32,-1193.94"/>
</g>
<!-- unaryExprOrType -->
<g id="node68" class="node">
<title>unaryExprOrType</title>
<polygon fill="#b2dfee" stroke="#b2dfee" points="310,-851 222,-851 222,-832 310,-832 310,-851"/>
<text text-anchor="middle" x="266" y="-839" font-family="Times New Roman,serif" font-size="10.00">unaryExprOrType</text>
</g>
<!-- unaryExprOrType&#45;&gt;expression -->
<g id="edge66" class="edge">
<title>unaryExprOrType&#45;&gt;expression</title>
<path fill="none" stroke="black" d="M221.79,-832.04C215.26,-829.74 208.78,-826.93 203,-823.5 178.34,-808.86 156.06,-784.01 142.65,-767.19"/>
<polygon fill="black" stroke="black" points="145.37,-764.98 136.48,-759.22 139.84,-769.27 145.37,-764.98"/>
</g>
<!-- unaryOp -->
<g id="node69" class="node">
<title>unaryOp</title>
<polygon fill="#b2dfee" stroke="#b2dfee" points="438,-750 384,-750 384,-731 438,-731 438,-750"/>
<text text-anchor="middle" x="411" y="-738" font-family="Times New Roman,serif" font-size="10.00">unaryOp</text>
</g>
<!-- unaryOp&#45;&gt;op -->
<g id="edge67" class="edge">
<title>unaryOp&#45;&gt;op</title>
<path fill="none" stroke="black" d="M383.77,-738.67C361.2,-737.09 328.39,-734.79 303.29,-733.04"/>
<polygon fill="black" stroke="black" points="303.28,-729.53 293.06,-732.32 302.79,-736.51 303.28,-729.53"/>
</g>
<!-- undefinedType -->
<g id="node70" class="node">
<title>undefinedType</title>
<polygon fill="#b2dfee" stroke="#b2dfee" points="305,-1369 227,-1369 227,-1350 305,-1350 305,-1369"/>
<text text-anchor="middle" x="266" y="-1357" font-family="Times New Roman,serif" font-size="10.00">undefinedType</text>
</g>
<!-- undefinedType&#45;&gt;type -->
<g id="edge68" class="edge">
<title>undefinedType&#45;&gt;type</title>
<path fill="none" stroke="black" d="M226.94,-1354.05C218.33,-1351.38 209.74,-1347.41 203,-1341.5 157.63,-1301.76 139.09,-1228.76 132.57,-1193.95"/>
<polygon fill="black" stroke="black" points="136.01,-1193.34 130.85,-1184.08 129.12,-1194.54 136.01,-1193.34"/>
</g>
<!-- variableArrayType -->
<g id="node71" class="node">
<title>variableArrayType</title>
<polygon fill="#b2dfee" stroke="#b2dfee" points="457,-1295 365,-1295 365,-1276 457,-1276 457,-1295"/>
<text text-anchor="middle" x="411" y="-1283" font-family="Times New Roman,serif" font-size="10.00">variableArrayType</text>
</g>
<!-- variableArrayType&#45;&gt;arrayType -->
<g id="edge70" class="edge">
<title>variableArrayType&#45;&gt;arrayType</title>
<path fill="none" stroke="black" d="M364.75,-1285.5C345.65,-1285.5 323.64,-1285.5 305.35,-1285.5"/>
<polygon fill="black" stroke="black" points="305.34,-1282 295.34,-1285.5 305.34,-1289 305.34,-1282"/>
</g>
<!-- varref -->
<g id="node72" class="node">
<title>varref</title>
<polygon fill="#b2dfee" stroke="#b2dfee" points="293,-814 239,-814 239,-795 293,-795 293,-814"/>
<text text-anchor="middle" x="266" y="-802" font-family="Times New Roman,serif" font-size="10.00">varref</text>
</g>
<!-- varref&#45;&gt;expression -->
<g id="edge71" class="edge">
<title>varref&#45;&gt;expression</title>
<path fill="none" stroke="black" d="M238.7,-798.01C227.54,-794.97 214.47,-791.01 203,-786.5 186.69,-780.09 169.13,-771.32 155.27,-763.94"/>
<polygon fill="black" stroke="black" points="156.78,-760.77 146.32,-759.09 153.44,-766.93 156.78,-760.77"/>
</g>
<!-- wrapperStmt -->
<g id="node73" class="node">
<title>wrapperStmt</title>
<polygon fill="#b2dfee" stroke="#b2dfee" points="299.5,-278 232.5,-278 232.5,-259 299.5,-259 299.5,-278"/>
<text text-anchor="middle" x="266" y="-266" font-family="Times New Roman,serif" font-size="10.00">wrapperStmt</text>
</g>
<!-- wrapperStmt&#45;&gt;statement -->
<g id="edge72" class="edge">
<title>wrapperStmt&#45;&gt;statement</title>
<path fill="none" stroke="black" d="M232.2,-272.86C212.37,-275.49 187.03,-278.86 166.49,-281.59"/>
<polygon fill="black" stroke="black" points="165.99,-278.12 156.53,-282.91 166.91,-285.06 165.99,-278.12"/>
</g>
</g>
</svg>
